<svg version="1.1" id="Layer_1" xmlns="http://www.w3.org/2000/svg" xmlns:xlink="http://www.w3.org/1999/xlink" x="0px" y="0px"
	 width="100%" viewBox="0 0 225 225" enable-background="new 0 0 225 225" xml:space="preserve">
<path fill="#FFFFFF" opacity="1.000000" stroke="none" 
	d="
M1.000000,88.000000 
	C1.000000,58.666672 1.000000,29.833344 1.000000,1.000012 
	C75.999977,1.000008 150.999954,1.000008 225.999954,1.000004 
	C225.999969,75.999969 225.999969,150.999939 225.999985,225.999939 
	C151.000046,225.999954 76.000092,225.999954 1.000068,225.999969 
	C1.000000,180.166672 1.000000,134.333328 1.000000,88.000000 
M185.726410,168.942551 
	C186.530502,167.629227 187.334579,166.315903 188.576920,164.517929 
	C190.393875,161.979980 192.564163,159.622803 193.970108,156.874588 
	C202.707962,139.794586 206.511871,121.845795 204.146698,102.553268 
	C202.499298,89.115715 198.386581,76.593170 191.325684,65.265694 
	C183.814102,53.215210 173.880219,43.264141 161.614777,35.791851 
	C149.366257,28.329855 136.185852,24.138020 121.877808,22.643053 
	C106.077095,20.992126 91.215866,23.533279 76.376205,30.188841 
	C75.913277,30.454205 75.450356,30.719570 74.265182,31.028898 
	C67.178764,35.566376 59.422859,39.346836 53.194717,44.854813 
	C46.999462,50.333710 42.339069,57.548164 36.466442,64.406128 
	C23.087152,85.959923 18.661776,109.159004 24.648052,133.881210 
	C26.354551,140.928726 29.957174,147.517136 32.802162,155.028442 
	C36.742249,164.076645 42.667938,171.661224 50.062439,178.894104 
	C58.896793,188.510406 69.856377,194.945312 81.952286,199.349075 
	C104.773384,207.657516 127.579979,206.842529 149.818588,197.350479 
	C156.342819,194.565750 162.052734,189.873215 168.538284,185.857346 
	C168.773087,185.660629 168.944855,185.419067 169.739365,184.996567 
	C174.851166,179.682770 179.962952,174.368973 185.002029,169.003784 
	C185.002029,169.003784 185.057953,169.073120 185.726410,168.942551 
z"/>
<path fill="#ACB0B9" opacity="1.000000" stroke="none" 
	d="
M49.928062,178.262177 
	C42.667938,171.661224 36.742249,164.076645 32.841541,154.260284 
	C30.990961,146.023010 29.017185,138.573380 27.272461,131.070496 
	C26.858114,129.288681 27.211042,127.328438 27.211042,124.156868 
	C31.228163,127.184624 34.459400,129.165894 37.107960,131.745422 
	C39.699619,134.269516 41.121269,133.816666 42.683254,130.530289 
	C40.477634,129.166351 38.318718,127.831291 36.187622,126.513435 
	C39.457458,120.252693 45.123367,118.598015 51.712280,121.884659 
	C51.229702,122.992790 50.743046,124.110291 50.243031,125.258461 
	C52.680218,125.258461 54.761608,125.258461 57.293331,125.258461 
	C54.825783,120.845444 52.650261,116.954681 50.164440,112.508972 
	C48.627865,114.703575 47.692085,116.040100 46.756306,117.376617 
	C46.519180,116.775635 46.282055,116.174644 46.044930,115.573662 
	C43.573170,115.573662 41.005108,115.972572 38.669479,115.408684 
	C37.466000,115.118134 36.504780,113.203758 35.790817,111.836800 
	C35.535141,111.347298 36.328049,110.310104 36.642368,109.522888 
	C35.875435,108.843117 35.108501,108.163345 34.341564,107.483566 
	C33.619087,109.381844 32.896610,111.280121 31.781038,114.211243 
	C30.075294,110.983559 29.204542,108.947098 27.994925,107.137108 
	C26.129208,104.345375 27.217285,97.414124 30.052406,95.506561 
	C31.269684,99.319351 26.688702,103.742645 31.126776,106.077751 
	C35.314655,105.018631 38.855579,104.123123 42.396507,103.227615 
	C37.759899,109.250893 37.759899,109.250893 45.279209,112.579185 
	C46.866486,111.329109 48.395683,110.124771 49.959450,108.957153 
	C49.994019,108.993889 50.063484,109.067047 50.085617,109.416351 
	C51.688847,110.909752 53.269947,112.053841 54.927296,113.253113 
	C57.365540,109.829376 60.242954,107.164261 55.992722,103.629585 
	C55.994698,102.946785 55.994720,102.557549 56.369293,102.124878 
	C59.057255,100.474022 61.618637,99.125336 63.627480,97.200119 
	C66.851570,94.110207 67.724174,95.547218 67.999542,99.403259 
	C67.832695,102.814445 68.274872,105.438492 72.121346,106.322777 
	C73.797539,109.034042 75.305176,111.421234 76.633575,113.524620 
	C68.608017,116.222961 67.325294,107.831978 62.959167,103.369652 
	C62.155762,106.212273 62.050144,108.321243 61.047066,109.835846 
	C56.611855,116.532890 58.035740,121.237633 65.853905,123.773285 
	C62.868431,129.253387 69.417725,126.872826 70.753021,129.308899 
	C60.064541,129.477859 56.639015,132.740799 52.331161,146.644226 
	C50.828362,146.106781 49.325478,145.569305 47.926994,144.669250 
	C49.076744,143.575424 50.653687,143.054550 51.045403,142.064667 
	C51.664646,140.499817 51.634186,138.611282 51.523952,136.882355 
	C51.502747,136.549698 49.385750,135.810287 49.029526,136.133514 
	C47.539421,137.485611 45.848125,139.001419 45.243214,140.798172 
	C44.884010,141.865082 46.410927,143.566986 47.066681,145.385620 
	C47.042751,146.287231 46.876774,147.146011 47.065605,147.232788 
	C50.665508,148.887299 50.999138,154.759308 56.289230,154.330078 
	C57.024765,154.270401 57.861252,155.454895 59.194321,156.482086 
	C55.906971,156.935593 53.482594,157.270065 50.757278,157.646042 
	C52.592911,160.937469 53.469921,163.973282 55.463154,165.772598 
	C59.345547,169.277267 60.012966,163.360931 62.765728,162.359802 
	C61.055248,161.522018 59.344772,160.684219 57.920017,159.986374 
	C61.573185,159.260162 65.204697,158.538254 69.508186,157.682770 
	C68.288048,156.096222 67.892982,155.335800 67.284935,154.832855 
	C63.920357,152.049789 61.663094,150.350632 68.451569,148.692413 
	C74.993462,147.094437 75.794586,142.278625 71.715836,136.666245 
	C71.334129,136.141022 71.423027,135.273758 71.249481,134.325073 
	C74.540352,135.168610 77.382874,135.897217 78.859589,136.275742 
	C79.252174,142.346268 79.616096,147.973541 79.980019,153.600830 
	C80.752602,153.253174 81.525192,152.905518 82.297783,152.557861 
	C83.980843,153.819626 85.779709,154.957230 87.309227,156.383652 
	C88.468895,157.465164 89.043671,159.282028 90.310440,160.115524 
	C92.275414,161.408386 94.691193,163.437881 96.804443,159.980728 
	C95.032082,158.734589 93.497627,157.655731 91.663788,156.366364 
	C93.243721,155.231308 94.300224,154.539490 95.277962,153.750107 
	C96.174034,153.026657 96.985062,152.197861 97.833557,151.415482 
	C96.914948,150.892715 95.996033,150.370468 95.077827,149.847000 
	C94.507187,149.521683 93.636963,149.326965 93.423927,148.843353 
	C92.786049,147.395325 92.405357,145.834030 91.924271,144.316940 
	C93.355469,144.142197 94.811890,143.713409 96.211922,143.852478 
	C98.295265,144.059402 100.619034,144.204239 102.321136,145.233963 
	C104.056778,146.283981 105.164635,148.371719 107.102325,150.660690 
	C106.968658,145.069870 110.493553,146.278046 113.527023,145.539749 
	C119.792885,144.014771 115.605339,151.224915 118.444153,151.631226 
	C120.804893,149.391388 122.749413,147.546448 124.693924,145.701508 
	C124.433594,145.635544 124.173264,145.569595 123.912933,145.503632 
	C124.708412,143.119476 125.503883,140.735306 126.430923,137.956818 
	C125.545845,136.555954 124.282661,134.556610 123.217140,132.870132 
	C120.773598,133.233932 118.394379,133.588150 116.008072,133.606369 
	C115.985001,132.821121 115.969009,132.371872 115.955696,131.564331 
	C115.624329,129.831039 115.290276,128.456055 114.935020,126.752136 
	C114.285057,125.945358 113.656311,125.467491 112.648903,124.982872 
	C111.512833,124.981720 110.755424,124.987312 109.999130,124.745789 
	C110.000237,124.498672 110.000916,124.004272 109.979568,123.706100 
	C109.638702,122.939148 109.319199,122.470360 108.999771,121.582985 
	C108.999496,119.766678 108.999138,118.368950 109.362633,116.972862 
	C110.768280,116.529160 111.810074,116.083817 112.868324,115.631439 
	C111.281944,113.313438 110.120552,111.616425 108.959160,109.919411 
	C109.320190,109.611740 109.681229,109.304070 110.042259,108.996407 
	C113.321892,111.275299 116.601524,113.554199 120.735344,116.426636 
	C122.439705,115.221649 125.062004,113.367691 127.747437,111.469093 
	C128.516388,112.695656 128.673981,112.983810 128.865814,113.247009 
	C129.999298,114.802055 131.140747,116.351295 132.279526,117.902489 
	C133.197678,117.219421 134.440247,116.724411 134.967514,115.814774 
	C136.122925,113.821472 137.966248,111.659210 134.401260,109.764046 
	C133.768677,109.427765 134.311401,106.880608 134.311401,105.940849 
	C138.565552,108.911995 142.324554,111.537331 147.181320,114.929359 
	C147.181320,111.604439 147.181320,109.665634 147.181320,106.312164 
	C149.388901,107.484749 151.720566,107.962776 152.181274,109.160484 
	C152.756912,110.656975 152.045212,112.835609 151.430695,114.555946 
	C150.650925,116.738899 149.410614,118.757339 148.641464,120.300056 
	C153.402695,122.591904 156.959396,124.303940 160.569351,126.041611 
	C160.589050,125.994949 160.768204,125.548416 160.964355,125.109474 
	C164.045151,118.215218 163.628235,117.167488 157.334244,113.419785 
	C156.221680,112.757324 155.788010,110.954727 154.616669,108.954231 
	C157.024048,109.274895 158.238113,109.436607 160.113525,109.686417 
	C159.850403,104.993294 159.611786,100.737625 159.371155,96.445724 
	C166.269760,98.419655 171.956055,94.953789 176.602631,90.285469 
	C177.635178,91.894791 178.389465,93.070396 179.596802,94.952118 
	C180.427124,91.933807 180.827148,90.311844 181.320312,88.718704 
	C182.760056,84.067772 178.508743,78.671646 173.759140,78.767075 
	C172.215088,78.798103 170.648148,77.689377 169.289413,77.176598 
	C170.897186,74.452385 172.130157,72.363205 173.130112,70.668877 
	C165.821274,63.793079 159.013611,64.430611 152.217041,69.874832 
	C151.946564,68.357224 151.678116,66.851097 151.409683,65.344971 
	C151.069656,65.293701 150.729630,65.242439 150.389603,65.191177 
	C149.069580,68.543167 147.749557,71.895164 146.063675,76.176201 
	C147.583984,77.462921 149.537155,79.003326 151.360687,80.684349 
	C154.532104,83.607933 156.161438,91.100098 153.748230,93.993156 
	C152.173767,95.880692 149.445053,96.786987 147.281784,98.206589 
	C144.689987,99.907410 143.258606,101.946136 145.461441,105.172562 
	C144.114273,104.499596 142.663544,103.720543 142.073029,102.518814 
	C140.804443,99.937103 139.499771,98.487099 136.301086,99.663689 
	C133.810623,100.579765 132.181427,99.485756 131.912140,96.579117 
	C131.816391,95.545670 130.980408,94.593536 130.548004,93.576370 
	C128.609924,89.017303 123.531242,90.026855 120.377670,87.776741 
	C117.356949,85.621429 114.701859,84.324783 111.466576,86.778854 
	C112.675385,89.278397 113.830223,91.666351 114.985069,94.054314 
	C114.477631,94.402077 113.970184,94.749840 113.462746,95.097603 
	C110.160172,91.282516 106.857605,87.467430 102.908173,82.905090 
	C101.639168,86.143272 100.437691,89.209152 99.067703,92.705025 
	C95.368919,90.968857 90.752335,88.801880 85.958733,86.551811 
	C86.860886,84.154266 87.547737,82.328903 88.030991,81.044640 
	C86.825706,79.102524 85.762764,77.389763 84.510315,75.371651 
	C81.715012,76.072281 79.814209,83.206581 74.988220,77.494598 
	C81.246124,69.074966 90.822365,65.722427 98.805405,69.034927 
	C97.141716,71.734268 95.508629,74.383949 93.875549,77.033630 
	C94.251472,77.322632 94.627396,77.611641 95.003319,77.900650 
	C98.344055,76.166512 100.322281,69.662209 105.157127,74.814911 
	C106.873528,72.741592 109.220802,69.375389 109.568359,69.570541 
	C112.296669,71.102501 114.665497,68.925247 116.825577,69.249153 
	C121.014236,69.877258 123.917084,73.703156 128.406601,74.887848 
	C130.386459,75.410294 130.866257,81.700722 131.973450,85.388588 
	C132.252487,86.318031 131.997330,87.601280 132.549622,88.221710 
	C134.911789,90.875298 137.340027,93.512413 140.045990,95.798225 
	C141.242340,96.808823 143.156830,96.969246 144.745316,97.515625 
	C145.199524,95.976212 145.856155,94.460983 146.043915,92.889725 
	C146.194199,91.632179 145.774582,90.306534 145.601730,88.963226 
	C147.410385,88.059662 149.113266,87.208939 151.909149,85.812172 
	C149.612534,83.702454 147.901825,82.172676 146.238464,80.593025 
	C143.840042,78.315300 141.819626,75.381233 139.025284,73.832817 
	C133.325394,70.674370 137.928986,68.375038 139.094849,65.625633 
	C139.576355,64.490105 139.614014,63.075138 139.518021,61.812775 
	C139.429962,60.654591 139.084747,58.697815 138.509979,58.563850 
	C137.285492,58.278431 135.747589,58.738773 134.507416,59.280807 
	C133.152863,59.872826 131.989532,60.902336 130.742859,61.741158 
	C130.186005,60.139652 129.629150,58.538139 129.438477,56.929741 
	C131.130157,54.571907 133.423477,52.250690 133.496887,49.861279 
	C133.564270,47.667431 131.104675,45.952129 128.413315,48.259090 
	C128.259109,48.391273 127.330772,47.336922 126.818520,47.388535 
	C125.348717,47.536640 123.907608,47.969501 122.455215,48.290440 
	C123.208725,49.847504 123.735191,51.581757 124.775604,52.914913 
	C125.964897,54.438858 127.611298,55.606071 128.683105,56.917282 
	C123.695465,54.356579 119.900681,55.237427 117.342941,60.310955 
	C113.870872,56.615768 106.735931,55.514908 111.842110,48.671360 
	C112.029846,48.419746 111.676956,47.740993 111.537529,47.272758 
	C110.282845,43.059311 111.798569,41.446690 116.216316,42.181530 
	C117.706833,42.429459 119.241531,42.411873 120.756035,42.515633 
	C120.828056,41.770454 120.900085,41.025272 120.972107,40.280090 
	C117.240189,39.854790 113.517670,39.225376 109.774117,39.053143 
	C104.466743,38.808968 103.865501,38.253792 104.543922,32.543827 
	C101.809235,31.821852 98.879662,29.839029 102.185860,27.565788 
	C104.638123,25.879692 108.873528,26.210611 112.226746,26.539379 
	C117.999046,27.105328 123.683289,28.947554 129.442184,29.142862 
	C133.461212,29.279161 134.929565,30.578053 135.007141,34.211433 
	C135.051102,36.270168 135.015060,38.330616 135.015060,39.165180 
	C141.212082,38.248192 146.792374,37.422459 153.258789,36.465607 
	C154.975128,38.584209 156.836853,41.470768 159.283646,43.721222 
	C161.337784,45.610519 165.111511,46.236565 166.195267,48.391739 
	C167.143341,50.277081 165.406372,53.512646 164.695297,56.919556 
	C166.072937,56.500622 167.555298,55.774082 169.083191,55.660591 
	C170.702332,55.540325 172.909744,55.417210 173.894043,56.333366 
	C175.899475,58.199947 177.344254,60.707764 178.841934,63.064564 
	C179.586105,64.235626 180.544434,65.756004 180.350540,66.946465 
	C179.777069,70.467278 180.150375,72.865044 184.414993,73.156830 
	C185.173492,73.208725 186.053024,74.210098 186.544083,74.984062 
	C188.714478,78.404816 191.064026,81.760948 192.782654,85.407272 
	C195.106628,90.337944 193.629135,94.746895 189.999542,96.678658 
	C189.999542,99.059570 189.999542,101.152519 189.999542,103.245476 
	C187.918198,102.880814 185.795670,102.666756 183.766434,102.111603 
	C181.469727,101.483261 179.256744,100.548897 176.720627,99.645470 
	C176.512115,101.532097 176.385544,102.677437 176.186218,104.480881 
	C174.456406,103.105988 173.262344,102.156921 171.721146,100.931938 
	C171.551117,102.473320 171.429092,103.579506 171.325653,104.517159 
	C168.841080,103.960457 166.742325,103.490204 164.818710,103.059196 
	C164.955200,105.589310 164.734909,107.533539 165.273102,109.238319 
	C165.600082,110.274086 167.098633,110.939995 168.070892,111.772049 
	C169.776001,108.805542 172.760086,108.338951 175.733475,107.680641 
	C177.270187,107.340393 178.690674,106.475197 180.163681,105.847176 
	C180.053940,107.581047 180.137970,109.358124 179.764389,111.033150 
	C179.526688,112.098915 178.609818,113.013199 177.645691,113.966064 
	C174.958298,114.399673 172.622726,114.862625 169.821991,115.417778 
	C173.716110,121.160004 175.760223,117.362068 178.353882,114.990555 
	C181.623428,110.543388 187.168671,111.053246 190.939484,108.491821 
	C195.272675,110.989571 202.301361,112.107033 197.168671,119.792679 
	C197.103485,119.890289 197.162399,120.164757 197.258820,120.262703 
	C201.043213,124.106049 197.223419,126.210953 195.138138,128.395508 
	C194.330383,129.241730 192.415085,129.030731 191.004349,129.301346 
	C191.046066,127.997185 190.875641,126.639488 191.187561,125.403526 
	C191.517303,124.096909 192.306488,122.906258 193.088455,121.256851 
	C190.645279,121.620132 189.203781,121.834465 187.762268,122.048805 
	C188.199234,120.495750 188.730270,118.961052 189.038284,117.382835 
	C189.226822,116.416809 189.073135,115.384010 189.073135,114.381195 
	C188.612976,114.295296 188.152802,114.209389 187.692642,114.123489 
	C185.815125,117.680382 182.225677,121.340691 182.432968,124.771629 
	C182.810623,131.022812 179.672821,133.679718 174.121979,136.752304 
	C176.144272,137.454971 178.299973,138.538452 178.521652,138.230362 
	C181.378586,134.259720 185.113144,136.582520 188.713730,136.378952 
	C189.143661,141.483887 189.783920,146.407974 189.897919,151.344238 
	C189.979218,154.864105 185.354797,159.100082 183.253387,157.724625 
	C180.977661,156.235077 179.132782,154.087265 177.100006,152.226532 
	C178.837860,151.111435 180.587585,150.013901 182.296997,148.856781 
	C182.488464,148.727158 182.451370,148.259888 182.746124,146.930710 
	C179.960052,146.762405 177.278946,146.295547 174.670029,146.554932 
	C173.053009,146.715683 171.545639,147.979034 169.989044,148.747467 
	C169.989044,147.035522 169.989044,145.323563 169.989044,143.570618 
	C162.867554,142.459351 166.825668,151.164871 161.972656,152.186584 
	C161.891800,152.703094 161.810944,153.219604 161.730087,153.736115 
	C166.260498,156.300354 170.790894,158.864609 175.725021,161.657349 
	C175.889526,162.601303 176.276474,164.821503 176.733856,167.445847 
	C174.436905,169.110931 170.762909,170.412659 169.656204,172.870422 
	C167.587189,177.465286 164.006287,177.547607 160.722107,176.687073 
	C158.672729,176.150101 157.282440,173.097733 155.596375,171.174164 
	C155.814453,170.802948 156.032532,170.431732 156.250610,170.060516 
	C154.647675,170.161240 153.044739,170.261948 152.073273,170.322998 
	C153.467621,172.888992 154.647842,175.060913 155.822403,177.222427 
	C152.586243,177.559265 150.244171,177.930084 147.892044,178.011627 
	C145.605057,178.090912 142.488708,178.772430 141.192947,177.591507 
	C138.814056,175.423370 139.824860,172.585190 142.139847,170.186584 
	C143.126190,169.164612 143.256607,167.316544 143.964890,165.308289 
	C139.482315,166.997192 136.321365,168.188141 132.351181,169.683990 
	C132.063446,170.153152 131.213486,171.539001 130.363525,172.924866 
	C129.790588,172.598251 129.217667,172.271637 128.644745,171.945007 
	C130.093903,169.269547 131.543076,166.594070 132.712463,164.435120 
	C129.162979,164.982346 125.813667,165.568832 122.443695,165.989975 
	C120.638611,166.215561 118.776962,166.021866 116.985153,166.301376 
	C116.386368,166.394791 115.539886,167.350311 115.510597,167.946350 
	C115.482040,168.527130 116.242142,169.516144 116.847359,169.701691 
	C123.192482,171.646973 126.767197,178.219376 133.626022,179.459793 
	C137.110184,180.089920 140.366882,181.897217 143.791840,182.961929 
	C146.296921,183.740662 149.078949,183.797119 151.432693,184.854248 
	C154.902832,186.412781 157.510925,186.697937 158.844910,181.339706 
	C160.603653,182.894363 161.813156,183.963531 162.745911,185.219147 
	C156.671051,192.619812 148.757202,195.732071 139.909653,197.005157 
	C138.442413,197.216293 136.717606,196.833420 135.513260,197.476639 
	C128.938324,200.988144 122.467705,201.678131 115.552673,198.267166 
	C114.082520,197.541977 111.746132,198.532410 109.816757,198.791367 
	C108.263054,198.999893 106.659637,199.704437 105.185524,199.481064 
	C100.267128,198.735825 95.396957,197.672211 90.508308,196.730591 
	C96.803360,195.509811 92.468178,189.868378 95.189804,186.922150 
	C98.904274,186.922150 103.009811,186.922150 107.465378,186.922150 
	C106.415909,183.847183 111.171486,179.478546 106.527931,177.576614 
	C102.818214,179.043213 99.921410,179.675751 97.620178,181.204697 
	C92.793274,184.411667 92.921898,184.605255 90.892502,182.369171 
	C92.136581,179.865875 93.298569,177.527771 94.460556,175.189682 
	C93.997490,174.961243 93.534431,174.732803 93.071365,174.504379 
	C91.455864,176.257339 89.982674,179.306458 88.196243,179.502609 
	C84.043533,179.958542 83.526840,182.805313 82.826523,184.140198 
	C83.812233,187.481583 84.439476,189.607803 85.066711,191.734024 
	C82.737267,191.385056 79.985680,191.705856 78.161148,190.555832 
	C73.532806,187.638641 69.320068,184.062073 64.938126,180.747421 
	C65.711563,179.018677 66.356735,177.576630 67.146072,175.812347 
	C63.632694,174.637985 60.502735,173.439804 57.281384,172.586807 
	C55.915939,172.225266 53.759029,171.996521 53.016674,172.748596 
	C51.589756,174.194214 50.914875,176.382141 49.928062,178.262177 
M141.909943,55.709381 
	C144.206009,56.429832 146.471649,57.322346 148.821625,57.737770 
	C149.344406,57.830185 150.880859,56.042255 150.719254,55.464500 
	C150.118622,53.317192 149.386673,50.983715 147.975754,49.348511 
	C146.559006,47.706532 144.273605,46.814034 141.993210,45.352253 
	C137.155899,47.883518 140.570023,51.581692 141.909943,55.709381 
M42.899517,137.729340 
	C42.686104,136.922729 42.472687,136.116119 42.259274,135.309509 
	C41.925163,135.420258 41.591057,135.531006 41.256947,135.641739 
	C41.693932,136.488205 42.130913,137.334671 42.899517,137.729340 
M112.411758,122.483658 
	C112.411758,122.483658 112.523499,122.416649 112.411758,122.483658 
z"/>
<path fill="#C5CAD2" opacity="1.000000" stroke="none" 
	d="
M177.997498,113.995407 
	C178.609818,113.013199 179.526688,112.098915 179.764389,111.033150 
	C180.137970,109.358124 180.053940,107.581047 180.163681,105.847176 
	C178.690674,106.475197 177.270187,107.340393 175.733475,107.680641 
	C172.760086,108.338951 169.776001,108.805542 168.070892,111.772049 
	C167.098633,110.939995 165.600082,110.274086 165.273102,109.238319 
	C164.734909,107.533539 164.955200,105.589310 164.818710,103.059196 
	C166.742325,103.490204 168.841080,103.960457 171.325653,104.517159 
	C171.429092,103.579506 171.551117,102.473320 171.721146,100.931938 
	C173.262344,102.156921 174.456406,103.105988 176.186218,104.480881 
	C176.385544,102.677437 176.512115,101.532097 176.720627,99.645470 
	C179.256744,100.548897 181.469727,101.483261 183.766434,102.111603 
	C185.795670,102.666756 187.918198,102.880814 189.999542,103.245476 
	C189.999542,101.152519 189.999542,99.059570 189.999542,96.678658 
	C193.629135,94.746895 195.106628,90.337944 192.782654,85.407272 
	C191.064026,81.760948 188.714478,78.404816 186.544083,74.984062 
	C186.053024,74.210098 185.173492,73.208725 184.414993,73.156830 
	C180.150375,72.865044 179.777069,70.467278 180.350540,66.946465 
	C180.544434,65.756004 179.586105,64.235626 178.841934,63.064564 
	C177.344254,60.707764 175.899475,58.199947 173.894043,56.333366 
	C172.909744,55.417210 170.702332,55.540325 169.083191,55.660591 
	C167.555298,55.774082 166.072937,56.500622 164.695297,56.919556 
	C165.406372,53.512646 167.143341,50.277081 166.195267,48.391739 
	C165.111511,46.236565 161.337784,45.610519 159.283646,43.721222 
	C156.836853,41.470768 154.975128,38.584209 153.258789,36.465607 
	C146.792374,37.422459 141.212082,38.248192 135.015060,39.165180 
	C135.015060,38.330616 135.051102,36.270168 135.007141,34.211433 
	C134.929565,30.578053 133.461212,29.279161 129.442184,29.142862 
	C123.683289,28.947554 117.999046,27.105328 112.226746,26.539379 
	C108.873528,26.210611 104.638123,25.879692 102.185860,27.565788 
	C98.879662,29.839029 101.809235,31.821852 104.543922,32.543827 
	C103.865501,38.253792 104.466743,38.808968 109.774117,39.053143 
	C113.517670,39.225376 117.240189,39.854790 120.972107,40.280090 
	C120.900085,41.025272 120.828056,41.770454 120.756035,42.515633 
	C119.241531,42.411873 117.706833,42.429459 116.216316,42.181530 
	C111.798569,41.446690 110.282845,43.059311 111.537529,47.272758 
	C111.676956,47.740993 112.029846,48.419746 111.842110,48.671360 
	C106.735931,55.514908 113.870872,56.615768 117.342941,60.310955 
	C119.900681,55.237427 123.695465,54.356579 128.655518,56.953491 
	C129.003906,57.000698 129.072296,56.936630 129.072296,56.936630 
	C129.629150,58.538139 130.186005,60.139652 130.742859,61.741158 
	C131.989532,60.902336 133.152863,59.872826 134.507416,59.280807 
	C135.747589,58.738773 137.285492,58.278431 138.509979,58.563850 
	C139.084747,58.697815 139.429962,60.654591 139.518021,61.812775 
	C139.614014,63.075138 139.576355,64.490105 139.094849,65.625633 
	C137.928986,68.375038 133.325394,70.674370 139.025284,73.832817 
	C141.819626,75.381233 143.840042,78.315300 146.238464,80.593025 
	C147.901825,82.172676 149.612534,83.702454 151.909149,85.812172 
	C149.113266,87.208939 147.410385,88.059662 145.601730,88.963226 
	C145.774582,90.306534 146.194199,91.632179 146.043915,92.889725 
	C145.856155,94.460983 145.199524,95.976212 144.745316,97.515625 
	C143.156830,96.969246 141.242340,96.808823 140.045990,95.798225 
	C137.340027,93.512413 134.911789,90.875298 132.549622,88.221710 
	C131.997330,87.601280 132.252487,86.318031 131.973450,85.388588 
	C130.866257,81.700722 130.386459,75.410294 128.406601,74.887848 
	C123.917084,73.703156 121.014236,69.877258 116.825577,69.249153 
	C114.665497,68.925247 112.296669,71.102501 109.568359,69.570541 
	C109.220802,69.375389 106.873528,72.741592 105.157127,74.814911 
	C100.322281,69.662209 98.344055,76.166512 95.003319,77.900650 
	C94.627396,77.611641 94.251472,77.322632 93.875549,77.033630 
	C95.508629,74.383949 97.141716,71.734268 98.805405,69.034927 
	C90.822365,65.722427 81.246124,69.074966 74.656219,77.530029 
	C73.817810,77.917686 73.372070,77.931671 72.720840,77.941833 
	C72.515350,77.938026 72.102737,77.939819 72.080795,77.555115 
	C73.754906,73.111794 74.818718,68.584999 77.360474,65.152657 
	C79.174438,62.703117 82.973671,61.723728 85.887001,60.088310 
	C85.301483,59.562073 84.715965,59.035835 84.130447,58.509598 
	C85.756989,57.344521 87.383530,56.179443 89.224937,54.972824 
	C89.439804,54.931278 89.871178,54.857246 90.274551,54.903503 
	C92.203697,55.474434 93.797447,56.574127 95.241051,56.403500 
	C98.203247,56.053379 101.337395,55.465923 103.861557,54.028980 
	C104.733162,53.532806 104.835678,49.373508 103.825600,48.388214 
	C101.991165,46.598804 99.060181,45.933529 95.395538,44.252659 
	C91.974022,35.024933 89.521889,33.112247 77.600479,31.429209 
	C77.324013,31.390179 77.150475,30.622017 76.928932,30.193954 
	C91.215866,23.533279 106.077095,20.992126 121.877808,22.643053 
	C136.185852,24.138020 149.366257,28.329855 161.614777,35.791851 
	C173.880219,43.264141 183.814102,53.215210 191.325684,65.265694 
	C198.386581,76.593170 202.499298,89.115715 204.146698,102.553268 
	C206.511871,121.845795 202.707962,139.794586 193.970108,156.874588 
	C192.564163,159.622803 190.393875,161.979980 187.957123,164.767761 
	C186.577530,166.369431 185.817734,167.721268 185.057953,169.073120 
	C185.057953,169.073120 185.002029,169.003784 184.680969,169.043335 
	C183.087128,169.804306 181.556686,170.278503 180.586288,171.289993 
	C176.423584,175.628876 169.696915,177.868271 169.053589,185.132690 
	C168.944855,185.419067 168.773087,185.660629 167.937057,185.937546 
	C165.898102,185.689392 164.460388,185.361038 163.022659,185.032684 
	C161.813156,183.963531 160.603653,182.894363 158.844910,181.339706 
	C157.510925,186.697937 154.902832,186.412781 151.432693,184.854248 
	C149.078949,183.797119 146.296921,183.740662 143.791840,182.961929 
	C140.366882,181.897217 137.110184,180.089920 133.626022,179.459793 
	C126.767197,178.219376 123.192482,171.646973 116.847359,169.701691 
	C116.242142,169.516144 115.482040,168.527130 115.510597,167.946350 
	C115.539886,167.350311 116.386368,166.394791 116.985153,166.301376 
	C118.776962,166.021866 120.638611,166.215561 122.443695,165.989975 
	C125.813667,165.568832 129.162979,164.982346 132.712463,164.435120 
	C131.543076,166.594070 130.093903,169.269547 128.644745,171.945007 
	C129.217667,172.271637 129.790588,172.598251 130.363525,172.924866 
	C131.213486,171.539001 132.063446,170.153152 132.351181,169.683990 
	C136.321365,168.188141 139.482315,166.997192 143.964890,165.308289 
	C143.256607,167.316544 143.126190,169.164612 142.139847,170.186584 
	C139.824860,172.585190 138.814056,175.423370 141.192947,177.591507 
	C142.488708,178.772430 145.605057,178.090912 147.892044,178.011627 
	C150.244171,177.930084 152.586243,177.559265 155.822403,177.222427 
	C154.647842,175.060913 153.467621,172.888992 152.073273,170.322998 
	C153.044739,170.261948 154.647675,170.161240 156.250610,170.060516 
	C156.032532,170.431732 155.814453,170.802948 155.596375,171.174164 
	C157.282440,173.097733 158.672729,176.150101 160.722107,176.687073 
	C164.006287,177.547607 167.587189,177.465286 169.656204,172.870422 
	C170.762909,170.412659 174.436905,169.110931 176.733856,167.445847 
	C176.276474,164.821503 175.889526,162.601303 175.725021,161.657349 
	C170.790894,158.864609 166.260498,156.300354 161.730087,153.736115 
	C161.810944,153.219604 161.891800,152.703094 161.972656,152.186584 
	C166.825668,151.164871 162.867554,142.459351 169.989044,143.570618 
	C169.989044,145.323563 169.989044,147.035522 169.989044,148.747467 
	C171.545639,147.979034 173.053009,146.715683 174.670029,146.554932 
	C177.278946,146.295547 179.960052,146.762405 182.746124,146.930710 
	C182.451370,148.259888 182.488464,148.727158 182.296997,148.856781 
	C180.587585,150.013901 178.837860,151.111435 177.100006,152.226532 
	C179.132782,154.087265 180.977661,156.235077 183.253387,157.724625 
	C185.354797,159.100082 189.979218,154.864105 189.897919,151.344238 
	C189.783920,146.407974 189.143661,141.483887 188.713730,136.378952 
	C185.113144,136.582520 181.378586,134.259720 178.521652,138.230362 
	C178.299973,138.538452 176.144272,137.454971 174.121979,136.752304 
	C179.672821,133.679718 182.810623,131.022812 182.432968,124.771629 
	C182.225677,121.340691 185.815125,117.680382 187.692642,114.123489 
	C188.152802,114.209389 188.612976,114.295296 189.073135,114.381195 
	C189.073135,115.384010 189.226822,116.416809 189.038284,117.382835 
	C188.730270,118.961052 188.199234,120.495750 187.762268,122.048805 
	C189.203781,121.834465 190.645279,121.620132 193.088455,121.256851 
	C192.306488,122.906258 191.517303,124.096909 191.187561,125.403526 
	C190.875641,126.639488 191.046066,127.997185 191.004349,129.301346 
	C192.415085,129.030731 194.330383,129.241730 195.138138,128.395508 
	C197.223419,126.210953 201.043213,124.106049 197.258820,120.262703 
	C197.162399,120.164757 197.103485,119.890289 197.168671,119.792679 
	C202.301361,112.107033 195.272675,110.989571 190.939484,108.491821 
	C187.168671,111.053246 181.623428,110.543388 178.354187,114.732475 
	C177.999985,114.339088 177.998734,114.167252 177.997498,113.995407 
z"/>
<path fill="#C5CAD1" opacity="1.000000" stroke="none" 
	d="
M30.070457,95.081459 
	C27.217285,97.414124 26.129208,104.345375 27.994925,107.137108 
	C29.204542,108.947098 30.075294,110.983559 31.781038,114.211243 
	C32.896610,111.280121 33.619087,109.381844 34.341564,107.483566 
	C35.108501,108.163345 35.875435,108.843117 36.642368,109.522888 
	C36.328049,110.310104 35.535141,111.347298 35.790817,111.836800 
	C36.504780,113.203758 37.466000,115.118134 38.669479,115.408684 
	C41.005108,115.972572 43.573170,115.573662 46.044930,115.573662 
	C46.282055,116.174644 46.519180,116.775635 46.756306,117.376617 
	C47.692085,116.040100 48.627865,114.703575 50.164440,112.508972 
	C52.650261,116.954681 54.825783,120.845444 57.293331,125.258461 
	C54.761608,125.258461 52.680218,125.258461 50.243031,125.258461 
	C50.743046,124.110291 51.229702,122.992790 51.712280,121.884659 
	C45.123367,118.598015 39.457458,120.252693 36.187622,126.513435 
	C38.318718,127.831291 40.477634,129.166351 42.683254,130.530289 
	C41.121269,133.816666 39.699619,134.269516 37.107960,131.745422 
	C34.459400,129.165894 31.228163,127.184624 27.211042,124.156868 
	C27.211042,127.328438 26.858114,129.288681 27.272461,131.070496 
	C29.017185,138.573380 30.990961,146.023010 32.785610,153.904099 
	C29.957174,147.517136 26.354551,140.928726 24.648052,133.881210 
	C18.661776,109.159004 23.087152,85.959923 37.097801,64.197189 
	C39.058842,62.921192 40.616661,62.040970 41.673489,60.750469 
	C44.359966,57.470005 47.167305,55.798092 51.313553,59.138748 
	C54.294312,60.778778 56.950546,62.282139 59.606781,63.785496 
	C59.470348,64.351685 59.333912,64.917877 59.197479,65.484062 
	C57.307640,65.361671 55.416157,65.130577 53.528595,65.159058 
	C52.455841,65.175247 50.568913,65.417847 50.452950,65.897789 
	C49.678535,69.102898 46.178326,72.293686 50.245483,75.941582 
	C51.513641,75.443909 52.913311,74.894615 54.653542,74.211678 
	C49.259178,85.786278 48.685806,84.041763 55.872253,91.001129 
	C56.635597,89.213783 57.320351,87.610451 58.320240,85.932381 
	C59.735710,85.269119 60.836048,84.680595 61.952454,84.448059 
	C62.575817,87.024139 63.183109,89.244240 63.772388,91.398476 
	C66.108376,91.263947 68.564003,91.122528 71.009819,90.990555 
	C71.000000,91.000000 71.018173,90.979408 71.070953,91.327484 
	C72.456841,92.435303 73.789940,93.195053 75.246681,94.025269 
	C73.079613,96.074028 72.502655,100.300926 67.998970,99.004921 
	C67.724174,95.547218 66.851570,94.110207 63.627480,97.200119 
	C61.618637,99.125336 59.057255,100.474022 56.023979,102.012589 
	C53.868095,100.297493 52.432083,98.651260 50.946812,96.861740 
	C50.810249,96.667618 50.722946,96.616783 50.635643,96.565956 
	C50.758724,96.709366 50.881805,96.852776 50.953369,97.325974 
	C49.910259,97.158928 48.233536,96.848099 48.039860,96.134651 
	C46.903942,91.950340 46.114429,87.671982 45.140945,83.110664 
	C44.222107,84.295456 43.543221,85.170853 42.850708,85.692352 
	C42.795380,84.632011 42.753674,83.925568 42.800171,82.837921 
	C43.989151,77.747078 47.092552,73.142960 44.022137,68.095032 
	C38.357079,69.877838 35.014874,73.111687 35.003807,79.004066 
	C35.000305,79.000610 35.004494,79.004250 34.654144,79.052261 
	C33.901226,80.091293 33.498661,81.082306 33.065269,82.071533 
	C33.034447,82.069733 33.070641,82.119766 32.743088,81.959930 
	C31.701931,81.869728 30.988329,81.939354 30.274727,82.008987 
	C30.967382,86.371574 26.926252,90.662102 30.066696,95.062286 
	C30.057384,95.062485 30.070457,95.081459 30.070457,95.081459 
z"/>
<path fill="#C5CAD2" opacity="1.000000" stroke="none" 
	d="
M162.745911,185.219147 
	C164.460388,185.361038 165.898102,185.689392 167.735855,186.036407 
	C162.052734,189.873215 156.342819,194.565750 149.818588,197.350479 
	C127.579979,206.842529 104.773384,207.657516 81.952286,199.349075 
	C69.856377,194.945312 58.896793,188.510406 49.995251,178.578140 
	C50.914875,176.382141 51.589756,174.194214 53.016674,172.748596 
	C53.759029,171.996521 55.915939,172.225266 57.281384,172.586807 
	C60.502735,173.439804 63.632694,174.637985 67.146072,175.812347 
	C66.356735,177.576630 65.711563,179.018677 64.938126,180.747421 
	C69.320068,184.062073 73.532806,187.638641 78.161148,190.555832 
	C79.985680,191.705856 82.737267,191.385056 85.066711,191.734024 
	C84.439476,189.607803 83.812233,187.481583 82.826523,184.140198 
	C83.526840,182.805313 84.043533,179.958542 88.196243,179.502609 
	C89.982674,179.306458 91.455864,176.257339 93.071365,174.504379 
	C93.534431,174.732803 93.997490,174.961243 94.460556,175.189682 
	C93.298569,177.527771 92.136581,179.865875 90.892502,182.369171 
	C92.921898,184.605255 92.793274,184.411667 97.620178,181.204697 
	C99.921410,179.675751 102.818214,179.043213 106.527931,177.576614 
	C111.171486,179.478546 106.415909,183.847183 107.465378,186.922150 
	C103.009811,186.922150 98.904274,186.922150 95.189804,186.922150 
	C92.468178,189.868378 96.803360,195.509811 90.508308,196.730591 
	C95.396957,197.672211 100.267128,198.735825 105.185524,199.481064 
	C106.659637,199.704437 108.263054,198.999893 109.816757,198.791367 
	C111.746132,198.532410 114.082520,197.541977 115.552673,198.267166 
	C122.467705,201.678131 128.938324,200.988144 135.513260,197.476639 
	C136.717606,196.833420 138.442413,197.216293 139.909653,197.005157 
	C148.757202,195.732071 156.671051,192.619812 162.745911,185.219147 
z"/>
<path fill="#ABB1B8" opacity="1.000000" stroke="none" 
	d="
M76.652573,30.191399 
	C77.150475,30.622017 77.324013,31.390179 77.600479,31.429209 
	C89.521889,33.112247 91.974022,35.024933 95.395538,44.252659 
	C99.060181,45.933529 101.991165,46.598804 103.825600,48.388214 
	C104.835678,49.373508 104.733162,53.532806 103.861557,54.028980 
	C101.337395,55.465923 98.203247,56.053379 95.241051,56.403500 
	C93.797447,56.574127 92.203697,55.474434 90.351212,54.545399 
	C93.292877,47.004417 91.066345,41.981247 84.241180,41.093559 
	C83.753906,35.296490 79.490540,34.328396 74.918510,33.435596 
	C74.957191,32.385666 74.972313,31.685303 74.987434,30.984936 
	C75.450356,30.719570 75.913277,30.454205 76.652573,30.191399 
z"/>
<path fill="#C7CAD0" opacity="1.000000" stroke="none" 
	d="
M74.626312,31.006918 
	C74.972313,31.685303 74.957191,32.385666 74.576309,33.544029 
	C73.039574,35.968468 71.868607,37.934914 70.424255,39.910744 
	C69.786736,39.940552 69.422592,39.960976 68.944504,39.755924 
	C68.552483,39.350555 68.274399,39.170658 67.734726,39.234146 
	C67.668335,42.698719 67.863541,45.919910 68.058739,49.141102 
	C67.554161,49.199070 67.049576,49.257042 66.544998,49.315010 
	C65.811684,47.042820 65.078369,44.770630 64.263588,42.246002 
	C60.614002,44.303299 56.758217,46.028934 53.493702,48.527187 
	C52.096302,49.596584 51.749401,52.230965 51.263302,54.236217 
	C50.894501,55.757599 51.060829,57.408703 50.989037,59.002083 
	C47.167305,55.798092 44.359966,57.470005 41.673489,60.750469 
	C40.616661,62.040970 39.058842,62.921192 37.367405,63.994911 
	C42.339069,57.548164 46.999462,50.333710 53.194717,44.854813 
	C59.422859,39.346836 67.178764,35.566376 74.626312,31.006918 
z"/>
<path fill="#C5CAD2" opacity="1.000000" stroke="none" 
	d="
M169.396484,185.064636 
	C169.696915,177.868271 176.423584,175.628876 180.586288,171.289993 
	C181.556686,170.278503 183.087128,169.804306 184.717316,169.069031 
	C179.962952,174.368973 174.851166,179.682770 169.396484,185.064636 
z"/>
<path fill="#C5CAD2" opacity="1.000000" stroke="none" 
	d="
M185.392181,169.007843 
	C185.817734,167.721268 186.577530,166.369431 187.737991,165.010071 
	C187.334579,166.315903 186.530502,167.629227 185.392181,169.007843 
z"/>
<path fill="#898D93" opacity="1.000000" stroke="none" 
	d="
M72.926338,77.945648 
	C73.372070,77.931671 73.817810,77.917686 74.595543,77.868279 
	C79.814209,83.206581 81.715012,76.072281 84.510315,75.371651 
	C85.762764,77.389763 86.825706,79.102524 88.030991,81.044640 
	C87.547737,82.328903 86.860886,84.154266 85.958733,86.551811 
	C90.752335,88.801880 95.368919,90.968857 99.067703,92.705025 
	C100.437691,89.209152 101.639168,86.143272 102.908173,82.905090 
	C106.857605,87.467430 110.160172,91.282516 113.462746,95.097603 
	C113.970184,94.749840 114.477631,94.402077 114.985069,94.054314 
	C113.830223,91.666351 112.675385,89.278397 111.466576,86.778854 
	C114.701859,84.324783 117.356949,85.621429 120.377670,87.776741 
	C123.531242,90.026855 128.609924,89.017303 130.548004,93.576370 
	C130.980408,94.593536 131.816391,95.545670 131.912140,96.579117 
	C132.181427,99.485756 133.810623,100.579765 136.301086,99.663689 
	C139.499771,98.487099 140.804443,99.937103 142.073029,102.518814 
	C142.663544,103.720543 144.114273,104.499596 145.461441,105.172562 
	C143.258606,101.946136 144.689987,99.907410 147.281784,98.206589 
	C149.445053,96.786987 152.173767,95.880692 153.748230,93.993156 
	C156.161438,91.100098 154.532104,83.607933 151.360687,80.684349 
	C149.537155,79.003326 147.583984,77.462921 146.063675,76.176201 
	C147.749557,71.895164 149.069580,68.543167 150.389603,65.191177 
	C150.729630,65.242439 151.069656,65.293701 151.409683,65.344971 
	C151.678116,66.851097 151.946564,68.357224 152.217041,69.874832 
	C159.013611,64.430611 165.821274,63.793079 173.130112,70.668877 
	C172.130157,72.363205 170.897186,74.452385 169.289413,77.176598 
	C170.648148,77.689377 172.215088,78.798103 173.759140,78.767075 
	C178.508743,78.671646 182.760056,84.067772 181.320312,88.718704 
	C180.827148,90.311844 180.427124,91.933807 179.596802,94.952118 
	C178.389465,93.070396 177.635178,91.894791 176.602631,90.285469 
	C171.956055,94.953789 166.269760,98.419655 159.371155,96.445724 
	C159.611786,100.737625 159.850403,104.993294 160.113525,109.686417 
	C158.238113,109.436607 157.024048,109.274895 154.616669,108.954231 
	C155.788010,110.954727 156.221680,112.757324 157.334244,113.419785 
	C163.628235,117.167488 164.045151,118.215218 160.964355,125.109474 
	C160.768204,125.548416 160.589050,125.994949 160.569351,126.041611 
	C156.959396,124.303940 153.402695,122.591904 148.641464,120.300056 
	C149.410614,118.757339 150.650925,116.738899 151.430695,114.555946 
	C152.045212,112.835609 152.756912,110.656975 152.181274,109.160484 
	C151.720566,107.962776 149.388901,107.484749 147.181320,106.312164 
	C147.181320,109.665634 147.181320,111.604439 147.181320,114.929359 
	C142.324554,111.537331 138.565552,108.911995 134.311401,105.940849 
	C134.311401,106.880608 133.768677,109.427765 134.401260,109.764046 
	C137.966248,111.659210 136.122925,113.821472 134.967514,115.814774 
	C134.440247,116.724411 133.197678,117.219421 132.279526,117.902489 
	C131.140747,116.351295 129.999298,114.802055 128.865814,113.247009 
	C128.673981,112.983810 128.516388,112.695656 127.747437,111.469093 
	C125.062004,113.367691 122.439705,115.221649 120.735344,116.426636 
	C116.601524,113.554199 113.321892,111.275299 110.042259,108.996407 
	C109.681229,109.304070 109.320190,109.611740 108.959160,109.919411 
	C110.120552,111.616425 111.281944,113.313438 112.868324,115.631439 
	C111.810074,116.083817 110.768280,116.529160 109.048790,116.960876 
	C107.952324,116.942581 107.533554,116.937904 107.049759,116.586243 
	C106.537682,111.995438 106.090637,107.751625 105.701645,104.058861 
	C103.974953,102.453957 102.362160,100.750450 100.528687,99.332253 
	C99.529449,98.559364 98.155922,98.270363 96.951202,97.763130 
	C97.153809,99.183754 96.988640,100.816582 97.654205,101.970093 
	C98.446548,103.343307 99.951927,104.305107 101.276611,105.567360 
	C98.030785,108.972816 94.775574,112.388123 91.520363,115.803421 
	C93.634064,116.384872 96.174484,116.390694 97.916153,115.214134 
	C102.638054,112.024307 102.990250,111.941010 105.058632,117.383652 
	C102.677696,118.993134 100.395554,120.240952 97.593246,121.773193 
	C101.119370,122.228561 103.405487,122.523796 106.473534,122.920006 
	C104.713730,124.844162 103.840942,125.798462 102.968155,126.752762 
	C103.270912,127.269707 103.573669,127.786644 103.876427,128.303589 
	C105.916954,127.200027 107.957489,126.096466 109.998016,124.992905 
	C110.755424,124.987312 111.512833,124.981720 112.684677,125.301857 
	C113.718163,126.112076 114.337196,126.596565 114.956238,127.081055 
	C115.290276,128.456055 115.624329,129.831039 115.545563,131.601105 
	C112.686028,132.338745 110.040054,132.216476 107.849045,133.155624 
	C105.691879,134.080276 103.745979,135.884354 102.277679,137.751114 
	C101.921448,138.204025 103.805901,140.419312 104.652550,141.811905 
	C106.505089,139.315063 107.945656,137.373459 109.386230,135.431870 
	C112.241562,137.808975 113.713081,134.027496 116.015160,133.942368 
	C118.394379,133.588150 120.773598,133.233932 123.217140,132.870132 
	C124.282661,134.556610 125.545845,136.555954 126.430923,137.956818 
	C125.503883,140.735306 124.708412,143.119476 123.912933,145.503632 
	C124.173264,145.569595 124.433594,145.635544 124.693924,145.701508 
	C122.749413,147.546448 120.804893,149.391388 118.444153,151.631226 
	C115.605339,151.224915 119.792885,144.014771 113.527023,145.539749 
	C110.493553,146.278046 106.968658,145.069870 107.102325,150.660690 
	C105.164635,148.371719 104.056778,146.283981 102.321136,145.233963 
	C100.619034,144.204239 98.295265,144.059402 96.211922,143.852478 
	C94.811890,143.713409 93.355469,144.142197 91.924271,144.316940 
	C92.405357,145.834030 92.786049,147.395325 93.423927,148.843353 
	C93.636963,149.326965 94.507187,149.521683 95.077827,149.847000 
	C95.996033,150.370468 96.914948,150.892715 97.833557,151.415482 
	C96.985062,152.197861 96.174034,153.026657 95.277962,153.750107 
	C94.300224,154.539490 93.243721,155.231308 91.663788,156.366364 
	C93.497627,157.655731 95.032082,158.734589 96.804443,159.980728 
	C94.691193,163.437881 92.275414,161.408386 90.310440,160.115524 
	C89.043671,159.282028 88.468895,157.465164 87.309227,156.383652 
	C85.779709,154.957230 83.980843,153.819626 82.297783,152.557861 
	C81.525192,152.905518 80.752602,153.253174 79.980019,153.600830 
	C79.616096,147.973541 79.252174,142.346268 78.859589,136.275742 
	C77.382874,135.897217 74.540352,135.168610 71.249481,134.325073 
	C71.423027,135.273758 71.334129,136.141022 71.715836,136.666245 
	C75.794586,142.278625 74.993462,147.094437 68.451569,148.692413 
	C61.663094,150.350632 63.920357,152.049789 67.284935,154.832855 
	C67.892982,155.335800 68.288048,156.096222 69.508186,157.682770 
	C65.204697,158.538254 61.573185,159.260162 57.920017,159.986374 
	C59.344772,160.684219 61.055248,161.522018 62.765728,162.359802 
	C60.012966,163.360931 59.345547,169.277267 55.463154,165.772598 
	C53.469921,163.973282 52.592911,160.937469 50.757278,157.646042 
	C53.482594,157.270065 55.906971,156.935593 59.194321,156.482086 
	C57.861252,155.454895 57.024765,154.270401 56.289230,154.330078 
	C50.999138,154.759308 50.665508,148.887299 47.065605,147.232788 
	C46.876774,147.146011 47.042751,146.287231 47.249344,145.396957 
	C47.455139,145.006058 47.822590,145.031845 47.822594,145.031830 
	C49.325478,145.569305 50.828362,146.106781 52.331161,146.644226 
	C56.639015,132.740799 60.064541,129.477859 70.753021,129.308899 
	C69.417725,126.872826 62.868431,129.253387 65.853905,123.773285 
	C58.035740,121.237633 56.611855,116.532890 61.047066,109.835846 
	C62.050144,108.321243 62.155762,106.212273 62.959167,103.369652 
	C67.325294,107.831978 68.608017,116.222961 76.633575,113.524620 
	C75.305176,111.421234 73.797539,109.034042 72.175476,105.965492 
	C73.304482,103.104782 74.660187,100.980911 75.769791,98.735428 
	C78.816803,92.569260 77.854271,91.049400 71.018173,90.979408 
	C71.018173,90.979408 71.000000,91.000000 70.969406,90.627594 
	C70.964729,88.165565 70.990639,86.075951 71.008919,83.992508 
	C71.001289,83.998688 70.987122,84.014221 71.369766,83.948151 
	C72.143723,81.903275 72.535034,79.924461 72.926338,77.945648 
M82.446251,127.029121 
	C81.637543,122.715981 78.953606,124.211411 76.136528,124.333092 
	C77.026001,127.493530 82.183617,128.357346 79.241348,131.549606 
	C80.705711,133.460281 82.132759,135.322250 83.559807,137.184219 
	C84.078957,136.923599 84.598099,136.662964 85.117249,136.402344 
	C84.161987,133.512192 83.206734,130.622040 82.446251,127.029121 
M58.267254,151.975006 
	C59.675976,151.708649 61.084698,151.442291 62.493420,151.175934 
	C62.516289,150.560043 62.539158,149.944168 62.562023,149.328278 
	C59.831650,148.715210 57.101276,148.102142 54.370903,147.489075 
	C54.055325,148.124512 53.739746,148.759933 53.424168,149.395370 
	C54.766388,150.254608 56.108612,151.113861 58.267254,151.975006 
z"/>
<path fill="#8A8D93" opacity="1.000000" stroke="none" 
	d="
M42.711971,83.219116 
	C42.753674,83.925568 42.795380,84.632011 42.628525,85.905945 
	C45.254978,91.742508 39.426289,94.352516 37.336102,99.869278 
	C46.319435,93.667145 47.133339,102.764786 51.566845,104.281891 
	C50.919235,106.111382 50.422062,107.515907 49.924885,108.920425 
	C48.395683,110.124771 46.866486,111.329109 45.279209,112.579185 
	C37.759899,109.250893 37.759899,109.250893 42.396507,103.227615 
	C38.855579,104.123123 35.314655,105.018631 31.126776,106.077751 
	C26.688702,103.742645 31.269684,99.319351 30.052406,95.506561 
	C30.070457,95.081459 30.057384,95.062485 30.429159,95.008530 
	C31.381971,93.680168 32.299583,92.450348 32.475590,91.122261 
	C32.869839,88.147392 32.895107,85.123619 33.070641,82.119766 
	C33.070641,82.119766 33.034447,82.069733 33.399437,81.997665 
	C34.177780,80.951813 34.591137,79.978035 35.004494,79.004250 
	C35.004494,79.004250 35.000305,79.000610 35.379311,79.005081 
	C38.076199,80.412735 40.394085,81.815926 42.711971,83.219116 
z"/>
<path fill="#ABB0B8" opacity="1.000000" stroke="none" 
	d="
M49.959450,108.957153 
	C50.422062,107.515907 50.919235,106.111382 51.566845,104.281891 
	C47.133339,102.764786 46.319435,93.667145 37.336102,99.869278 
	C39.426289,94.352516 45.254978,91.742508 42.642151,86.259827 
	C43.543221,85.170853 44.222107,84.295456 45.140945,83.110664 
	C46.114429,87.671982 46.903942,91.950340 48.039860,96.134651 
	C48.233536,96.848099 49.910259,97.158928 50.950924,97.327881 
	C51.000000,97.000000 50.996071,97.005020 50.996071,97.005020 
	C52.432083,98.651260 53.868095,100.297493 55.649426,102.056023 
	C55.994720,102.557549 55.994698,102.946785 55.862331,103.947678 
	C55.252922,107.836594 54.863499,111.224030 50.063484,109.067047 
	C50.063484,109.067047 49.994019,108.993889 49.959450,108.957153 
z"/>
<path fill="#8A8E96" opacity="1.000000" stroke="none" 
	d="
M141.731995,55.362717 
	C140.570023,51.581692 137.155899,47.883518 141.993210,45.352253 
	C144.273605,46.814034 146.559006,47.706532 147.975754,49.348511 
	C149.386673,50.983715 150.118622,53.317192 150.719254,55.464500 
	C150.880859,56.042255 149.344406,57.830185 148.821625,57.737770 
	C146.471649,57.322346 144.206009,56.429832 141.731995,55.362717 
z"/>
<path fill="#8A8E96" opacity="1.000000" stroke="none" 
	d="
M129.031494,56.964493 
	C127.611298,55.606071 125.964897,54.438858 124.775604,52.914913 
	C123.735191,51.581757 123.208725,49.847504 122.455215,48.290440 
	C123.907608,47.969501 125.348717,47.536640 126.818520,47.388535 
	C127.330772,47.336922 128.259109,48.391273 128.413315,48.259090 
	C131.104675,45.952129 133.564270,47.667431 133.496887,49.861279 
	C133.423477,52.250690 131.130157,54.571907 129.438477,56.929741 
	C129.072296,56.936630 129.003906,57.000698 129.031494,56.964493 
z"/>
<path fill="#ABB1B8" opacity="1.000000" stroke="none" 
	d="
M71.070953,91.327484 
	C77.854271,91.049400 78.816803,92.569260 75.769791,98.735428 
	C74.660187,100.980911 73.304482,103.104782 72.006927,105.641418 
	C68.274872,105.438492 67.832695,102.814445 67.999542,99.403259 
	C72.502655,100.300926 73.079613,96.074028 75.246681,94.025269 
	C73.789940,93.195053 72.456841,92.435303 71.070953,91.327484 
z"/>
<path fill="#ABB0B8" opacity="1.000000" stroke="none" 
	d="
M107.114784,116.933228 
	C107.533554,116.937904 107.952324,116.942581 108.684937,116.959244 
	C108.999138,118.368950 108.999496,119.766678 108.770859,121.754120 
	C109.028221,122.897316 109.514565,123.450798 110.000916,124.004272 
	C110.000916,124.004272 110.000237,124.498672 109.999130,124.745789 
	C107.957489,126.096466 105.916954,127.200027 103.876427,128.303589 
	C103.573669,127.786644 103.270912,127.269707 102.968155,126.752762 
	C103.840942,125.798462 104.713730,124.844162 106.473534,122.920006 
	C103.405487,122.523796 101.119370,122.228561 97.593246,121.773193 
	C100.395554,120.240952 102.677696,118.993134 105.382530,117.374657 
	C106.241745,116.980408 106.678261,116.956818 107.114784,116.933228 
z"/>
<path fill="#A7AAAF" opacity="1.000000" stroke="none" 
	d="
M116.008072,133.606369 
	C113.713081,134.027496 112.241562,137.808975 109.386230,135.431870 
	C107.945656,137.373459 106.505089,139.315063 104.652550,141.811905 
	C103.805901,140.419312 101.921448,138.204025 102.277679,137.751114 
	C103.745979,135.884354 105.691879,134.080276 107.849045,133.155624 
	C110.040054,132.216476 112.686028,132.338745 115.542892,131.959412 
	C115.969009,132.371872 115.985001,132.821121 116.008072,133.606369 
z"/>
<path fill="#8A8E96" opacity="1.000000" stroke="none" 
	d="
M47.926994,144.669250 
	C47.822590,145.031845 47.455139,145.006058 47.272480,144.994720 
	C46.410927,143.566986 44.884010,141.865082 45.243214,140.798172 
	C45.848125,139.001419 47.539421,137.485611 49.029526,136.133514 
	C49.385750,135.810287 51.502747,136.549698 51.523952,136.882355 
	C51.634186,138.611282 51.664646,140.499817 51.045403,142.064667 
	C50.653687,143.054550 49.076744,143.575424 47.926994,144.669250 
z"/>
<path fill="#C3C6CF" opacity="1.000000" stroke="none" 
	d="
M50.085617,109.416351 
	C54.863499,111.224030 55.252922,107.836594 55.860374,104.241241 
	C60.242954,107.164261 57.365540,109.829376 54.927296,113.253113 
	C53.269947,112.053841 51.688847,110.909752 50.085617,109.416351 
z"/>
<path fill="#BFC2CB" opacity="1.000000" stroke="none" 
	d="
M177.645691,113.966064 
	C177.998734,114.167252 177.999985,114.339088 178.000916,114.768997 
	C175.760223,117.362068 173.716110,121.160004 169.821991,115.417778 
	C172.622726,114.862625 174.958298,114.399673 177.645691,113.966064 
z"/>
<path fill="#C5CAD1" opacity="1.000000" stroke="none" 
	d="
M42.733707,137.955231 
	C42.130913,137.334671 41.693932,136.488205 41.256947,135.641739 
	C41.591057,135.531006 41.925163,135.420258 42.259274,135.309509 
	C42.472687,136.116119 42.686104,136.922729 42.733707,137.955231 
z"/>
<path fill="#A8ABB2" opacity="1.000000" stroke="none" 
	d="
M114.935028,126.752136 
	C114.337196,126.596565 113.718163,126.112076 113.063339,125.308601 
	C113.656311,125.467491 114.285057,125.945358 114.935028,126.752136 
z"/>
<path fill="#A8ABB2" opacity="1.000000" stroke="none" 
	d="
M109.979568,123.706100 
	C109.514565,123.450798 109.028221,122.897316 108.770782,122.172707 
	C109.319199,122.470360 109.638702,122.939148 109.979568,123.706100 
z"/>
<path fill="#A8ABB2" opacity="1.000000" stroke="none" 
	d="
M112.467628,122.450150 
	C112.523499,122.416649 112.411758,122.483658 112.467628,122.450150 
z"/>
<path fill="#ACB0B9" opacity="1.000000" stroke="none" 
	d="
M51.313557,59.138748 
	C51.060829,57.408703 50.894501,55.757599 51.263302,54.236217 
	C51.749401,52.230965 52.096302,49.596584 53.493702,48.527187 
	C56.758217,46.028934 60.614002,44.303299 64.263588,42.246002 
	C65.078369,44.770630 65.811684,47.042820 66.544998,49.315010 
	C67.049576,49.257042 67.554161,49.199070 68.058739,49.141102 
	C67.863541,45.919910 67.668335,42.698719 67.849258,39.458954 
	C68.503067,39.620720 68.780762,39.801060 69.058456,39.981400 
	C69.422592,39.960976 69.786736,39.940552 70.649788,40.211311 
	C74.626648,44.714211 70.114235,49.163128 71.532654,53.435982 
	C70.399170,53.686852 69.169243,54.331650 68.157791,54.084038 
	C67.018318,53.805092 66.075653,52.722252 65.493683,52.307301 
	C63.288380,53.465469 61.446430,54.135006 59.978413,55.282799 
	C58.323238,56.576920 57.000446,58.375137 59.919586,59.843044 
	C63.337429,61.561726 66.827950,63.135872 71.090363,65.152901 
	C70.276802,63.055416 69.801422,61.829807 69.084686,59.981934 
	C72.497711,60.710121 74.996712,61.035801 75.492645,56.800701 
	C75.626503,55.657528 79.137367,54.349800 81.203667,54.135616 
	C83.748093,53.871868 86.402946,54.673294 89.010071,55.014366 
	C87.383530,56.179443 85.756989,57.344521 84.130447,58.509598 
	C84.715965,59.035835 85.301483,59.562073 85.887001,60.088310 
	C82.973671,61.723728 79.174438,62.703117 77.360474,65.152657 
	C74.818718,68.584999 73.754906,73.111794 71.685944,77.577156 
	C70.528046,77.994987 69.743057,78.006073 68.632034,77.966492 
	C68.694679,74.828171 69.083382,71.740524 69.504219,68.397560 
	C61.206863,65.155502 61.206863,65.155502 55.298611,70.153908 
	C57.941929,71.261589 60.101959,72.166756 62.299255,73.087532 
	C59.983120,75.978355 57.389130,78.672516 55.481609,81.787102 
	C54.201332,83.877533 54.681973,86.080399 58.005104,86.007118 
	C57.320351,87.610451 56.635597,89.213783 55.872253,91.001129 
	C48.685806,84.041763 49.259178,85.786278 54.653542,74.211678 
	C52.913311,74.894615 51.513641,75.443909 50.245483,75.941582 
	C46.178326,72.293686 49.678535,69.102898 50.452950,65.897789 
	C50.568913,65.417847 52.455841,65.175247 53.528595,65.159058 
	C55.416157,65.130577 57.307640,65.361671 59.197479,65.484062 
	C59.333912,64.917877 59.470348,64.351685 59.606781,63.785496 
	C56.950546,62.282139 54.294312,60.778778 51.313557,59.138748 
z"/>
<path fill="#888D94" opacity="1.000000" stroke="none" 
	d="
M89.224937,54.972820 
	C86.402946,54.673294 83.748093,53.871868 81.203667,54.135616 
	C79.137367,54.349800 75.626503,55.657528 75.492645,56.800701 
	C74.996712,61.035801 72.497711,60.710121 69.084686,59.981934 
	C69.801422,61.829807 70.276802,63.055416 71.090363,65.152901 
	C66.827950,63.135872 63.337429,61.561726 59.919586,59.843044 
	C57.000446,58.375137 58.323238,56.576920 59.978413,55.282799 
	C61.446430,54.135006 63.288380,53.465469 65.493683,52.307301 
	C66.075653,52.722252 67.018318,53.805092 68.157791,54.084038 
	C69.169243,54.331650 70.399170,53.686852 71.532654,53.435982 
	C70.114235,49.163128 74.626648,44.714211 70.923172,40.201927 
	C71.868607,37.934914 73.039574,35.968468 74.552750,33.893593 
	C79.490540,34.328396 83.753906,35.296490 84.241180,41.093559 
	C91.066345,41.981247 93.292877,47.004417 89.947838,54.499138 
	C89.871178,54.857246 89.439804,54.931278 89.224937,54.972820 
z"/>
<path fill="#ABB1B8" opacity="1.000000" stroke="none" 
	d="
M68.958076,78.017151 
	C69.743057,78.006073 70.528046,77.994987 71.707886,77.961861 
	C72.102737,77.939819 72.515350,77.938026 72.720840,77.941833 
	C72.535034,79.924461 72.143723,81.903275 71.375511,83.575104 
	C70.318436,81.517792 69.638260,79.767471 68.958076,78.017151 
z"/>
<path fill="#8A8D93" opacity="1.000000" stroke="none" 
	d="
M68.632034,77.966492 
	C69.638260,79.767471 70.318436,81.517792 70.992867,83.641167 
	C70.987122,84.014221 71.001289,83.998688 70.631554,83.953217 
	C67.486671,83.969185 64.711533,84.030632 61.936386,84.092072 
	C60.836048,84.680595 59.735710,85.269119 58.320236,85.932381 
	C54.681973,86.080399 54.201332,83.877533 55.481609,81.787102 
	C57.389130,78.672516 59.983120,75.978355 62.299255,73.087532 
	C60.101959,72.166756 57.941929,71.261589 55.298611,70.153908 
	C61.206863,65.155502 61.206863,65.155502 69.504219,68.397560 
	C69.083382,71.740524 68.694679,74.828171 68.632034,77.966492 
z"/>
<path fill="#ABB0B8" opacity="1.000000" stroke="none" 
	d="
M42.800171,82.837921 
	C40.394085,81.815926 38.076199,80.412735 35.382812,79.008530 
	C35.014874,73.111687 38.357079,69.877838 44.022137,68.095032 
	C47.092552,73.142960 43.989151,77.747078 42.800171,82.837921 
z"/>
<path fill="#ABB1B8" opacity="1.000000" stroke="none" 
	d="
M61.952454,84.448059 
	C64.711533,84.030632 67.486671,83.969185 70.639183,83.947037 
	C70.990639,86.075951 70.964729,88.165565 70.979233,90.618149 
	C68.564003,91.122528 66.108376,91.263947 63.772388,91.398476 
	C63.183109,89.244240 62.575817,87.024139 61.952454,84.448059 
z"/>
<path fill="#ACB0B9" opacity="1.000000" stroke="none" 
	d="
M32.743088,81.959930 
	C32.895107,85.123619 32.869839,88.147392 32.475590,91.122261 
	C32.299583,92.450348 31.381971,93.680168 30.438469,95.008339 
	C26.926252,90.662102 30.967382,86.371574 30.274727,82.008987 
	C30.988329,81.939354 31.701931,81.869728 32.743088,81.959930 
z"/>
<path fill="#ACB0B9" opacity="1.000000" stroke="none" 
	d="
M34.654144,79.052261 
	C34.591137,79.978035 34.177780,80.951813 33.430260,81.999466 
	C33.498661,81.082306 33.901226,80.091293 34.654144,79.052261 
z"/>
<path fill="#ABB0B8" opacity="1.000000" stroke="none" 
	d="
M51.002441,96.998093 
	C50.881805,96.852776 50.758724,96.709366 50.635643,96.565956 
	C50.722946,96.616783 50.810249,96.667618 50.946812,96.861740 
	C50.996071,97.005020 51.000000,97.000000 51.002441,96.998093 
z"/>
<path fill="#ABB1B8" opacity="1.000000" stroke="none" 
	d="
M68.944504,39.755928 
	C68.780762,39.801060 68.503067,39.620720 68.110847,39.215569 
	C68.274399,39.170658 68.552483,39.350555 68.944504,39.755928 
z"/>
<path fill="#A8ABB2" opacity="1.000000" stroke="none" 
	d="
M107.049759,116.586243 
	C106.678261,116.956818 106.241745,116.980408 105.481323,117.013000 
	C102.990250,111.941010 102.638054,112.024307 97.916153,115.214134 
	C96.174484,116.390694 93.634064,116.384872 91.520363,115.803421 
	C94.775574,112.388123 98.030785,108.972816 101.276611,105.567360 
	C99.951927,104.305107 98.446548,103.343307 97.654205,101.970093 
	C96.988640,100.816582 97.153809,99.183754 96.951202,97.763130 
	C98.155922,98.270363 99.529449,98.559364 100.528687,99.332253 
	C102.362160,100.750450 103.974953,102.453957 105.701645,104.058861 
	C106.090637,107.751625 106.537682,111.995438 107.049759,116.586243 
z"/>
<path fill="#A8ABB2" opacity="1.000000" stroke="none" 
	d="
M82.348862,127.380508 
	C83.206734,130.622040 84.161987,133.512192 85.117249,136.402344 
	C84.598099,136.662964 84.078957,136.923599 83.559807,137.184219 
	C82.132759,135.322250 80.705711,133.460281 79.241348,131.549606 
	C82.183617,128.357346 77.026001,127.493530 76.136528,124.333092 
	C78.953606,124.211411 81.637543,122.715981 82.348862,127.380508 
z"/>
<path fill="#A3A6AD" opacity="1.000000" stroke="none" 
	d="
M57.859043,151.974060 
	C56.108612,151.113861 54.766388,150.254608 53.424168,149.395370 
	C53.739746,148.759933 54.055325,148.124512 54.370903,147.489075 
	C57.101276,148.102142 59.831650,148.715210 62.562023,149.328278 
	C62.539158,149.944168 62.516289,150.560043 62.493420,151.175934 
	C61.084698,151.442291 59.675976,151.708649 57.859043,151.974060 
z"/>
</svg>