<svg version="1.1" id="Layer_1" xmlns="http://www.w3.org/2000/svg" xmlns:xlink="http://www.w3.org/1999/xlink" x="0px" y="0px"
	 width="100%" viewBox="0 0 221 228" enable-background="new 0 0 221 228" xml:space="preserve">
<path fill="#FEFEFE" opacity="1.000000" stroke="none" 
	d="
M222.000000,84.000000 
	C222.000000,132.666672 222.000000,180.833328 222.000000,229.000000 
	C148.333328,229.000000 74.666664,229.000000 1.000000,229.000000 
	C1.000000,153.000000 1.000000,77.000000 1.000000,1.000000 
	C74.666664,1.000000 148.333328,1.000000 222.000000,1.000000 
	C222.000000,28.500000 222.000000,56.000000 222.000000,84.000000 
M193.071640,95.272408 
	C193.071640,95.272408 192.990906,94.953392 193.362656,94.453964 
	C194.015732,93.972862 194.668793,93.491760 195.094406,93.178215 
	C192.618286,88.947014 190.214600,84.839584 187.861343,79.840454 
	C187.883041,76.856003 187.627640,73.832275 188.042740,70.903580 
	C188.251785,69.428619 189.364716,67.645020 190.610992,66.834534 
	C194.576340,64.255753 195.041260,62.109806 191.791595,57.265968 
	C190.515060,59.756413 190.029907,63.291775 186.073807,61.338829 
	C186.972519,60.094139 187.871231,58.849445 189.127289,57.109867 
	C185.884537,54.760338 182.850098,52.555347 179.766434,50.421494 
	C179.736679,50.400917 179.053055,51.325291 177.879486,51.674286 
	C176.577744,51.372753 175.276001,51.071220 173.398911,50.291229 
	C172.408890,50.289623 171.418869,50.288017 170.122589,50.698372 
	C169.787308,50.720413 169.452042,50.742455 169.037018,50.243973 
	C168.689850,50.463753 168.342682,50.683529 167.500977,51.281677 
	C166.730545,51.557854 165.960114,51.834030 164.546860,51.816765 
	C163.050186,51.202007 161.553528,50.587250 160.113510,49.299984 
	C160.870285,48.006187 161.627060,46.712387 162.575912,45.090206 
	C157.943588,44.769741 159.234329,47.895252 158.472046,49.986938 
	C158.472046,49.986938 158.000198,49.996048 157.781723,49.462078 
	C156.849457,48.971115 155.917191,48.480148 154.388748,47.951607 
	C153.924973,47.626972 153.461182,47.302334 153.668671,46.928314 
	C155.232346,45.438065 156.796036,43.947815 158.359726,42.457565 
	C158.016739,41.972389 157.673752,41.487209 157.330765,41.002033 
	C156.238464,41.290382 155.146149,41.578728 153.296402,41.795956 
	C151.190445,41.860947 149.084488,41.925941 146.406036,42.015865 
	C146.185699,42.666508 145.965363,43.317154 145.873276,44.458820 
	C145.607819,44.651924 145.342346,44.845024 144.388412,44.927765 
	C143.976700,42.954659 143.564987,40.981548 142.988922,38.175911 
	C142.886169,36.484016 142.783432,34.792126 143.365952,32.617611 
	C143.572678,31.366043 144.039230,30.093090 143.938309,28.866844 
	C143.611420,24.895277 145.499557,23.552151 149.005569,24.786411 
	C148.136673,28.786636 147.267761,32.786865 146.398865,36.787090 
	C146.941238,36.952473 147.483612,37.117855 148.025986,37.283237 
	C148.408752,36.316326 148.881134,35.373936 149.153976,34.376942 
	C149.598495,32.752537 149.493317,29.942638 150.348724,29.630629 
	C156.788528,27.281742 155.786850,23.444555 152.739380,18.426273 
	C150.462479,18.632130 148.185593,18.837984 145.064453,19.043667 
	C140.652618,18.693813 136.244492,18.114878 131.828171,18.043552 
	C123.568985,17.910164 122.328354,18.963972 119.161186,27.166111 
	C118.835327,31.205591 118.509468,35.245071 118.141762,39.903183 
	C117.985962,40.498657 117.830154,41.094131 117.862129,41.908524 
	C117.862129,41.908524 117.683434,41.695583 117.064583,41.898075 
	C114.798805,42.510674 114.549942,47.103699 110.892647,44.333054 
	C110.850471,43.881561 110.808304,43.430065 110.950356,42.263138 
	C110.853622,41.534916 110.756889,40.806698 111.378090,39.974091 
	C111.727318,39.412556 112.076553,38.851025 112.425789,38.289497 
	C110.815239,37.917469 109.204689,37.545441 107.091270,37.104004 
	C106.699623,36.803383 106.307983,36.502766 106.209084,35.553890 
	C106.832169,34.558243 107.455254,33.562599 108.507034,32.710991 
	C108.507034,32.710991 108.937950,32.848251 109.353264,33.433239 
	C113.161125,34.572018 111.564514,31.503462 112.137299,29.395342 
	C112.431801,28.597075 112.726303,27.798805 113.698257,27.000340 
	C114.308014,26.665043 114.917770,26.329746 115.527527,25.994452 
	C114.760185,25.653994 113.992851,25.313536 113.096947,24.127916 
	C113.016571,22.151749 112.936188,20.175581 112.951973,17.396896 
	C112.126549,11.545971 109.343857,9.021717 103.389633,9.253532 
	C103.173912,9.464259 103.006310,9.708066 102.145775,9.982628 
	C100.930664,9.799568 99.715561,9.616508 97.421181,9.270855 
	C98.420731,12.647201 99.215576,15.332085 99.605049,18.555351 
	C98.133942,19.624550 96.472595,20.511311 95.233727,21.803215 
	C93.058197,24.071886 91.141335,26.588604 88.943192,29.744530 
	C88.994240,30.501991 89.045288,31.259455 89.096207,32.736488 
	C89.727272,34.490643 90.358330,36.244801 90.974854,38.770168 
	C90.194794,40.831329 89.796555,43.191223 88.500053,44.848328 
	C87.639816,45.947838 85.494057,46.041576 83.923744,46.585537 
	C83.213425,44.387951 82.503098,42.190365 81.754768,39.380093 
	C81.179970,39.189022 80.605171,38.997955 79.977982,38.227367 
	C80.044136,36.943733 80.110291,35.660099 80.146614,34.955368 
	C74.760109,34.955368 69.528732,34.955368 64.098839,34.507954 
	C64.098839,34.507954 64.156311,34.021858 64.977074,33.996330 
	C73.613159,33.788139 76.026352,30.526424 72.392738,23.578503 
	C71.660904,25.669617 70.987587,27.593498 70.314278,29.517380 
	C69.994957,29.491291 69.675644,29.465204 69.356323,29.439116 
	C69.356323,25.639101 69.356323,21.839088 69.356323,17.804688 
	C67.656334,18.435884 66.597992,18.828844 65.203415,18.914797 
	C65.014923,18.656370 64.939186,18.368303 64.869804,17.598240 
	C64.722763,17.303843 64.491241,17.110785 63.695740,16.810310 
	C63.189899,16.807743 62.268131,16.699072 62.237839,16.817812 
	C60.657803,23.011757 58.777077,29.166653 57.801388,35.461040 
	C57.321690,38.555714 58.533028,41.912514 58.824108,45.848991 
	C55.550179,46.565807 52.276249,47.282623 49.010975,47.230396 
	C48.422771,43.920700 41.455181,38.456596 38.464218,39.219418 
	C37.589767,39.442432 37.003357,40.794834 35.504227,42.536678 
	C41.377644,42.773113 43.589016,45.679680 44.639542,50.693386 
	C45.692924,57.100910 38.837479,63.139412 43.905834,69.263123 
	C41.279438,70.962372 38.978054,72.451340 36.155132,73.987793 
	C35.762848,74.297829 35.370567,74.607857 34.596313,75.349289 
	C34.054565,75.467056 33.512821,75.584824 32.490124,75.284210 
	C31.647921,75.191284 30.805717,75.098366 29.627209,74.603317 
	C29.578680,74.435448 29.530149,74.267586 30.086210,74.046951 
	C30.398062,73.850601 30.709915,73.654251 31.021767,73.457886 
	C30.336054,73.313370 29.650339,73.168854 29.000961,73.000885 
	C29.000961,73.000885 28.972425,73.033958 29.091513,72.387085 
	C29.800446,71.629951 30.509378,70.872810 32.439545,68.811409 
	C27.271280,69.499535 23.432180,69.954758 19.628347,70.613586 
	C19.290501,70.672096 19.182224,72.056061 18.151480,73.038849 
	C17.839239,77.180450 17.526999,81.322044 17.192362,86.017433 
	C17.567907,86.369675 17.943453,86.721916 18.872360,87.541565 
	C19.099808,87.965286 19.327255,88.389015 18.754364,88.945969 
	C15.521457,89.977547 13.391591,90.826088 17.218592,94.374557 
	C22.709311,99.465652 32.041206,100.161613 38.791447,95.518211 
	C38.861397,95.685066 38.931351,95.851921 38.960983,96.725639 
	C37.640541,98.145073 36.320099,99.564507 34.242538,100.959045 
	C29.588316,101.328873 24.906902,101.648682 23.218788,107.546974 
	C23.523544,107.709488 23.828300,107.872002 24.307728,108.198639 
	C24.307728,108.198639 24.246832,108.430466 23.579266,108.803535 
	C22.298834,109.958893 21.018402,111.114243 18.931408,112.997368 
	C22.754641,115.398788 25.788885,117.304634 29.558037,119.672081 
	C29.558037,117.497032 29.558037,116.482079 29.558037,114.918083 
	C32.007015,116.893311 34.041454,118.534187 35.713848,120.651031 
	C35.144558,120.780167 34.575264,120.909309 33.945049,120.474609 
	C32.957195,120.931076 31.969339,121.387535 30.239656,122.000885 
	C29.486776,121.952888 28.733896,121.904884 27.550663,121.397224 
	C26.382204,121.496025 25.213745,121.594826 23.329828,121.869385 
	C22.209936,122.264801 21.090044,122.660210 19.447102,123.079117 
	C19.223219,123.324684 18.999336,123.570251 18.711554,123.792221 
	C18.711554,123.792221 18.643721,123.798470 17.964710,123.818359 
	C16.540537,125.165298 14.415626,126.261337 13.826300,127.907211 
	C12.193707,132.466766 7.444764,136.228607 10.517748,142.027817 
	C11.672446,142.644836 12.827146,143.261871 13.406971,144.351303 
	C11.138423,145.175095 8.869874,145.998871 6.208659,146.965240 
	C7.466432,147.748138 8.643686,148.480911 10.087173,149.865280 
	C11.738731,149.962433 13.639311,150.629105 14.990133,150.038467 
	C17.822803,148.799881 20.366255,146.899826 23.666300,145.343399 
	C24.077145,145.453979 24.487988,145.564575 25.076429,146.223648 
	C26.061424,146.926086 27.046419,147.628525 28.163170,148.972137 
	C29.218874,148.730164 30.545713,148.796570 31.261139,148.167572 
	C32.140362,147.394547 32.509193,146.041000 33.549526,144.992004 
	C33.549526,144.992004 33.982414,145.129028 33.886890,145.918076 
	C33.668053,147.780807 33.449215,149.643524 32.735424,151.892151 
	C31.792055,153.255737 30.848690,154.619324 29.184278,156.081406 
	C25.938488,157.119049 24.869757,158.966919 26.969612,162.813370 
	C26.851189,163.887863 26.732765,164.962372 26.070118,166.454269 
	C26.062012,169.656342 26.053905,172.858429 25.501459,176.415741 
	C26.339893,177.918777 27.178329,179.421799 28.109581,181.629761 
	C29.688372,183.659637 31.027016,183.783218 32.451271,180.762329 
	C32.762497,180.289001 33.073727,179.815674 34.070377,179.189072 
	C37.285923,175.363022 40.729973,171.897278 46.850155,171.833313 
	C47.571190,172.089478 48.292225,172.345642 49.112804,173.161804 
	C50.742363,173.440720 52.371918,173.719635 54.018318,174.766510 
	C54.506504,175.580261 54.994686,176.394028 55.424809,177.915573 
	C55.232159,178.596741 55.039509,179.277893 54.313824,179.721466 
	C53.676601,179.805435 53.039379,179.889404 52.402157,179.973373 
	C53.171570,180.320908 53.940983,180.668442 54.782562,181.725037 
	C54.689823,182.188110 54.597088,182.651169 54.192890,183.511032 
	C54.284176,184.299286 54.375458,185.087540 54.707092,186.568588 
	C54.714455,187.054855 54.721813,187.541107 54.207062,188.241394 
	C53.435581,187.340408 52.664097,186.439423 51.655148,185.261093 
	C51.870667,189.586151 52.067898,193.544250 52.288441,197.970093 
	C54.150753,197.970093 55.597950,197.970093 56.992153,197.985016 
	C56.992153,197.985016 57.031826,197.946274 57.003727,198.611191 
	C56.770325,199.445023 56.724472,200.411057 56.254326,201.078018 
	C55.711155,201.848572 54.794106,202.355591 54.039391,202.977036 
	C54.956970,203.658936 55.874554,204.340851 56.990433,205.640289 
	C57.959541,206.318604 58.928654,206.996918 60.251526,208.296692 
	C61.152145,207.810532 62.052769,207.324371 63.398174,206.421127 
	C64.227905,205.262451 65.057632,204.103760 66.509949,202.932648 
	C66.626007,202.272873 66.742065,201.613083 66.931084,200.300476 
	C67.046982,199.878616 67.162888,199.456741 67.819206,198.923813 
	C67.836121,198.269196 67.853043,197.614563 68.021950,196.213699 
	C69.740601,195.472626 71.565369,194.903946 73.142593,193.933105 
	C74.297356,193.222305 75.126900,191.983154 76.777596,190.871643 
	C77.547318,189.446823 78.317039,188.022018 79.105957,186.561676 
	C79.803917,188.191238 80.421516,189.633179 80.983818,191.707123 
	C80.990891,192.129791 80.997963,192.552460 80.474762,193.472519 
	C80.721825,195.204147 80.968887,196.935791 80.556778,198.793442 
	C79.542999,198.978546 78.529228,199.163651 76.242142,199.581268 
	C78.827461,201.212036 80.405861,202.207657 82.121948,203.849274 
	C83.951828,205.609253 84.781212,205.025314 84.876442,202.319809 
	C84.876442,202.319809 85.059120,202.007843 85.739143,201.947037 
	C86.821800,201.632996 87.904465,201.318970 88.992676,201.875015 
	C89.453247,205.779999 89.913826,209.684982 90.298393,212.945496 
	C92.255562,212.118835 93.684662,211.515228 95.051086,211.014206 
	C95.051086,211.014206 95.091698,210.902206 95.018509,211.732758 
	C95.990677,214.406555 91.365982,217.681854 96.040375,220.637650 
	C96.682304,221.530289 97.324234,222.422928 98.188461,223.991196 
	C101.643890,225.609406 104.680237,226.304871 105.000748,220.461884 
	C105.000748,220.461884 105.094978,220.012833 105.789314,219.874161 
	C107.735573,218.534729 109.807030,217.341461 111.591263,215.812897 
	C113.224693,214.413513 114.547783,212.651855 116.357887,210.897842 
	C116.357887,210.897842 116.738037,210.862274 117.441818,210.894714 
	C117.957375,210.249725 118.472939,209.604736 119.338547,208.678650 
	C119.556015,208.468933 119.734596,208.230148 120.623329,207.929291 
	C122.744400,207.268951 124.865471,206.608627 127.579559,205.739655 
	C128.611526,204.769867 129.643478,203.800079 131.452484,202.890396 
	C132.634689,201.595764 133.816895,200.301147 135.681076,199.026566 
	C136.111404,199.172440 136.541748,199.318329 137.186569,200.096390 
	C142.639282,201.439484 145.305542,205.859329 148.336411,210.696884 
	C149.860718,211.912048 151.385010,213.127197 153.102280,214.946198 
	C157.617142,215.933212 160.365265,214.471161 160.602081,208.801285 
	C160.060440,205.216415 159.518784,201.631561 159.024277,197.362442 
	C159.034958,196.676697 159.045639,195.990936 159.497406,194.734665 
	C162.149887,191.121353 164.802383,187.508041 167.902573,183.284851 
	C171.967300,183.062073 177.196213,182.814438 182.419174,182.475174 
	C185.746033,182.259079 189.080215,182.025116 192.380325,181.573990 
	C194.534790,181.279480 197.319778,181.221970 198.567703,179.886185 
	C199.849213,178.514496 199.604874,175.717316 200.028305,173.543961 
	C199.653305,173.496063 199.278305,173.448181 198.903320,173.400284 
	C197.933228,174.266617 196.963135,175.132950 195.353790,175.719009 
	C194.559357,174.458038 193.764908,173.197067 192.847427,171.184082 
	C192.156189,165.900085 189.464523,161.936935 184.725082,158.663467 
	C184.384888,158.549713 184.044693,158.435959 183.652084,158.370575 
	C183.652084,158.370575 183.580994,158.376190 183.868530,157.634094 
	C185.204712,155.098557 186.540894,152.563019 188.357086,150.577576 
	C191.473557,151.303284 194.590012,152.028992 198.645370,152.923248 
	C203.081314,152.596573 207.559143,152.543427 211.942368,151.872406 
	C217.152847,151.074738 219.482330,147.373657 217.239349,143.216202 
	C216.861572,142.471924 216.483795,141.727631 216.660614,142.076004 
	C213.756790,143.751556 211.333420,145.368835 208.730392,146.609116 
	C202.036011,149.798889 194.916458,147.553314 187.467148,147.530716 
	C186.386215,144.984940 187.352203,143.899231 190.877686,144.051025 
	C197.511429,143.271240 204.145172,142.491455 210.778915,141.711670 
	C210.840424,140.955933 210.901932,140.200180 210.963440,139.444443 
	C207.979706,138.000885 204.995956,136.557327 201.734055,134.587097 
	C201.181778,133.521652 200.831146,131.742294 200.040955,131.519073 
	C197.201782,130.717056 194.214111,130.440765 190.955093,129.346420 
	C190.632965,128.236450 190.310837,127.126472 190.023102,125.224358 
	C191.068588,123.337265 192.114075,121.450172 193.510376,118.929848 
	C193.200150,117.913490 192.603699,115.959503 192.382736,113.457771 
	C193.945190,111.753334 195.507645,110.048897 197.642960,108.273300 
	C198.027023,108.287659 198.411087,108.302017 199.047958,108.941452 
	C200.717896,108.752083 202.726074,109.050446 203.942368,108.206940 
	C204.795044,107.615593 204.567383,105.466438 204.798477,103.377945 
	C203.947403,102.966064 203.096329,102.554192 201.642731,101.878822 
	C200.310989,101.276947 198.979263,100.675072 197.326569,99.407791 
	C197.235184,99.179123 197.143784,98.950455 196.860077,98.389809 
	C196.696152,98.183693 196.490250,98.036148 195.596268,97.704781 
	C195.047394,97.288673 194.498535,96.872566 193.820084,96.238083 
	C193.706818,96.107162 193.570572,96.007683 193.178406,95.843124 
	C193.178406,95.843124 193.134033,95.594902 193.071640,95.272408 
M90.108864,217.275986 
	C90.194405,217.326248 90.279938,217.376511 90.365471,217.426788 
	C90.242332,217.285538 90.119194,217.144302 89.889679,216.728134 
	C89.806053,216.678162 89.722435,216.628189 89.638817,216.578201 
	C89.760223,216.717499 89.881630,216.856781 90.108864,217.275986 
M207.705292,133.565613 
	C207.989716,133.294373 208.274139,133.023132 208.558563,132.751892 
	C208.446014,132.634171 208.241882,132.407898 208.234161,132.414413 
	C207.934113,132.667572 207.652023,132.941986 207.705292,133.565613 
M50.201153,200.604492 
	C50.205402,200.212830 50.209652,199.821182 50.213902,199.429520 
	C50.051369,199.427948 49.747570,199.415451 49.746723,199.426392 
	C49.716579,199.816147 49.714806,200.208099 50.201153,200.604492 
M193.618591,123.677925 
	C193.883942,123.599869 194.149292,123.521812 194.414642,123.443748 
	C194.126678,123.149574 193.838715,122.855392 193.550751,122.561218 
	C193.466675,122.824707 193.382599,123.088196 193.618591,123.677925 
M50.752277,177.826538 
	C50.587151,177.881393 50.422024,177.936249 50.256893,177.991104 
	C50.423004,178.044662 50.589119,178.098221 50.752277,177.826538 
M204.182205,133.264481 
	C204.026489,133.376953 203.870789,133.489410 203.715073,133.601883 
	C203.931671,133.579437 204.148285,133.557007 204.182205,133.264481 
M112.407303,35.481869 
	C112.407303,35.481869 112.524857,35.410488 112.407303,35.481869 
z"/>
<path fill="#F89721" opacity="1.000000" stroke="none" 
	d="
M119.876678,26.980747 
	C122.328354,18.963972 123.568985,17.910164 131.828171,18.043552 
	C136.244492,18.114878 140.652618,18.693813 145.688400,19.294243 
	C146.060730,20.133095 145.970322,20.915436 145.532303,21.279312 
	C141.619049,24.530184 140.855087,28.490627 142.680679,33.100231 
	C142.783432,34.792126 142.886169,36.484016 142.980225,38.966805 
	C141.508698,43.236900 140.045868,46.716095 138.548569,50.277321 
	C142.201111,51.408447 143.927658,48.664295 145.076889,45.038128 
	C145.342346,44.845024 145.607819,44.651924 145.912003,43.938309 
	C146.293335,42.942177 146.635925,42.466557 146.978531,41.990936 
	C149.084488,41.925941 151.190445,41.860947 153.683960,42.177765 
	C153.398529,43.711460 152.725525,44.863346 151.939926,46.110748 
	C151.827332,46.206261 151.857101,46.500050 151.602676,46.810246 
	C151.549683,49.119690 151.751129,51.118938 151.892059,53.476425 
	C151.887360,54.556030 151.943176,55.277401 151.871490,56.298508 
	C151.041718,57.685120 150.339447,58.771999 149.466309,59.858742 
	C149.295441,59.858608 149.026840,60.069839 148.730743,60.166527 
	C150.318909,63.794258 152.821259,62.332047 155.613586,61.050880 
	C157.660370,59.115543 159.387146,57.241596 161.378174,55.260899 
	C162.014099,54.745525 162.385742,54.336906 163.059906,53.847153 
	C163.971527,53.214077 164.580597,52.662144 165.189682,52.110207 
	C165.960114,51.834030 166.730545,51.557854 167.939240,51.147179 
	C168.654984,51.022476 168.901413,50.939747 169.116760,50.764500 
	C169.452042,50.742455 169.787308,50.720413 170.562103,50.733597 
	C171.992493,50.769112 172.983383,50.769398 173.974258,50.769684 
	C175.276001,51.071220 176.577744,51.372753 178.440155,51.999371 
	C181.361511,53.891102 183.722229,55.457752 184.833664,56.195335 
	C183.329117,59.748695 182.219330,62.369743 181.038239,65.390976 
	C181.025787,66.869980 181.084656,67.948799 181.078827,69.452827 
	C181.347015,74.844566 180.401459,79.337784 175.856384,82.677719 
	C179.145599,83.558983 182.048492,84.336746 184.956940,85.438683 
	C184.917755,86.406914 184.873001,87.050972 184.508728,87.812141 
	C181.756805,89.629990 179.324432,91.330711 176.892044,93.031441 
	C177.399399,93.708565 177.906754,94.385689 178.414108,95.062813 
	C182.894943,95.062813 187.375778,95.062813 192.037689,95.219505 
	C192.497070,95.561264 192.802155,95.634163 193.134033,95.594902 
	C193.134033,95.594902 193.178406,95.843124 193.277161,96.064301 
	C193.375916,96.285484 193.612961,96.538040 193.612961,96.538040 
	C193.612961,96.538040 193.949661,96.456459 193.949661,96.456459 
	C194.498535,96.872566 195.047394,97.288673 195.978485,98.023552 
	C196.515350,98.607185 196.745911,98.733673 197.052399,98.721786 
	C197.143784,98.950455 197.235184,99.179123 197.048676,99.771133 
	C195.162582,100.455009 193.307938,100.369629 191.990616,101.169327 
	C187.342789,103.990913 182.879135,107.115860 178.510696,110.016151 
	C182.978363,111.528374 186.975159,113.770088 186.319489,120.315849 
	C186.143173,122.075890 188.691254,124.108833 189.988724,126.016495 
	C190.310837,127.126472 190.632965,128.236450 191.213882,129.982727 
	C194.985855,132.117294 198.499039,133.615524 202.012222,135.113770 
	C204.995956,136.557327 207.979706,138.000885 210.963440,139.444443 
	C210.901932,140.200180 210.840424,140.955933 210.778915,141.711670 
	C204.145172,142.491455 197.511429,143.271240 190.263519,143.735092 
	C181.860443,134.860352 181.567245,134.769455 174.750671,138.800110 
	C179.753845,142.254059 179.962860,142.832153 178.071823,147.985336 
	C175.742233,154.333588 176.824753,156.375305 183.580994,158.376190 
	C183.580994,158.376190 183.652084,158.370575 183.806320,158.575851 
	C184.283325,158.917862 184.606094,159.054596 184.928864,159.191330 
	C189.464523,161.936935 192.156189,165.900085 192.651703,171.800873 
	C188.938980,172.288879 185.125320,171.230057 181.970383,172.236374 
	C176.414597,174.008438 171.083511,174.532394 165.528336,173.065994 
	C163.226212,172.458298 160.990707,171.598251 157.651367,170.499847 
	C162.040619,177.977921 157.934906,182.241959 153.960617,186.556000 
	C152.926544,187.678467 151.943573,188.848007 150.540833,189.997253 
	C148.388672,190.763031 146.632812,191.527451 144.501709,192.248703 
	C141.796600,192.054733 139.247528,192.439713 137.198944,191.601517 
	C135.174866,190.773346 133.656601,188.708984 131.870422,187.146652 
	C128.775421,190.188217 125.522339,193.385132 121.471146,197.366379 
	C121.211151,193.232742 121.015457,190.121307 120.819756,187.009888 
	C119.047829,188.730270 118.542557,190.799332 117.455856,192.496017 
	C114.894966,196.494324 114.707756,201.655640 108.633324,203.920074 
	C104.364731,205.511322 98.246078,207.682465 97.924553,214.687561 
	C96.808647,213.196442 95.950172,212.049332 95.091698,210.902206 
	C95.091698,210.902206 95.051086,211.014206 95.056763,210.609558 
	C93.302704,207.135651 91.542969,204.066422 89.857864,200.582520 
	C89.950096,198.763641 89.967697,197.359406 90.227554,195.694489 
	C90.653603,194.262787 90.837395,193.091797 91.264053,191.692963 
	C92.233871,193.591721 92.960823,195.718292 93.668610,197.788803 
	C93.935135,196.418839 94.225296,194.927368 94.567520,193.168320 
	C95.552132,193.955353 96.136292,194.422287 96.433990,194.660248 
	C96.433990,190.179825 96.433990,185.766022 96.433990,180.721313 
	C91.776802,183.618027 89.638763,189.575623 83.704315,187.534546 
	C84.264771,185.426926 84.614433,183.638184 84.831917,182.525620 
	C81.076744,183.557510 78.049957,184.566605 74.944542,185.173126 
	C73.206581,185.512573 71.334045,185.253769 69.529526,185.143692 
	C65.143562,184.876114 62.477562,186.740128 61.014389,190.988480 
	C60.159546,193.470551 58.389915,195.637543 57.031830,197.946274 
	C57.031826,197.946274 56.992153,197.985016 56.974133,197.594772 
	C56.213802,194.145477 55.471489,191.086426 54.729176,188.027374 
	C54.721813,187.541107 54.714455,187.054855 54.697937,185.886307 
	C54.627300,184.507431 54.565819,183.810837 54.504345,183.114243 
	C54.597088,182.651169 54.689823,182.188110 54.831367,181.112885 
	C54.869064,180.320160 54.857960,180.139618 54.846859,179.959061 
	C55.039509,179.277893 55.232159,178.596741 55.704300,177.388672 
	C56.359421,175.922958 56.735046,174.984146 57.370998,173.925079 
	C58.078060,173.447952 58.524799,173.091064 59.293171,172.784317 
	C60.269829,171.998199 60.924850,171.161957 61.823421,170.268814 
	C62.407536,169.875381 62.748100,169.538864 63.414448,169.078659 
	C64.432961,167.112244 65.125687,165.269501 65.818413,163.426773 
	C64.912422,162.821411 64.006432,162.216034 63.100445,161.610672 
	C62.344181,163.041245 61.587921,164.471817 60.571888,165.928940 
	C59.881397,166.230667 59.450680,166.505844 58.667759,166.811646 
	C57.870800,166.993744 57.426048,167.145203 56.592159,167.235291 
	C54.673412,166.997147 53.143803,166.820358 51.347488,166.434647 
	C49.722340,165.492844 48.363888,164.759979 46.846657,163.716019 
	C44.761513,162.950470 42.854282,162.372452 40.904305,162.070450 
	C37.952583,161.613327 34.971096,161.348373 32.140671,160.947021 
	C32.185459,160.927353 32.091839,160.962448 31.660778,161.050583 
	C30.458719,164.155090 29.580999,167.203033 28.753756,170.264603 
	C28.685856,170.515884 28.961363,170.859970 28.847946,171.427704 
	C27.950504,169.808609 27.282423,167.922729 26.614340,166.036865 
	C26.732765,164.962372 26.851189,163.887863 27.217419,162.168518 
	C28.278589,159.676743 29.091955,157.829834 29.905323,155.982910 
	C30.848690,154.619324 31.792055,153.255737 33.346886,151.601883 
	C35.897472,150.524857 38.033543,150.027176 39.724018,148.875458 
	C41.675957,147.545593 43.235073,145.639175 45.066521,143.939667 
	C45.168293,143.896240 45.132336,143.639572 45.132336,143.639572 
	C45.132336,143.639572 45.039494,144.049042 44.681892,143.910568 
	C40.876999,144.224396 37.429707,144.676712 33.982414,145.129028 
	C33.982414,145.129028 33.549526,144.992004 33.153694,144.665253 
	C23.886162,135.376907 18.372152,134.795807 9.847224,141.924026 
	C7.444764,136.228607 12.193707,132.466766 13.826300,127.907211 
	C14.415626,126.261337 16.540537,125.165298 18.567093,124.084259 
	C23.323368,125.135025 27.477261,125.919899 31.859426,126.747910 
	C29.776127,124.795105 28.382843,123.489090 27.238426,122.104576 
	C27.651867,121.969673 27.816441,121.913277 27.981016,121.856880 
	C28.733896,121.904884 29.486776,121.952888 30.936764,121.981461 
	C32.424572,121.654175 33.215271,121.346313 34.005974,121.038452 
	C34.575264,120.909309 35.144558,120.780167 36.240616,120.314987 
	C37.593945,119.007095 38.420506,118.035248 38.302494,118.174004 
	C34.122902,114.734726 30.589008,111.826775 27.046452,108.940155 
	C27.037790,108.961494 27.075592,108.945496 26.941040,108.703583 
	C26.333792,108.497330 25.861094,108.532990 25.213631,108.454788 
	C24.755375,108.272644 24.495937,108.324226 24.248184,108.481735 
	C24.235813,108.467812 24.246832,108.430466 24.246832,108.430466 
	C24.246832,108.430466 24.307728,108.198639 24.060593,107.921539 
	C23.536076,107.461510 23.264549,107.270264 22.998875,107.070702 
	C24.906902,101.648682 29.588316,101.328873 34.804192,101.297592 
	C37.745548,101.345116 40.125248,101.054108 43.290165,100.667068 
	C41.377975,98.594627 40.189640,97.306694 39.001301,96.018768 
	C38.931351,95.851921 38.861397,95.685066 38.442249,95.070427 
	C35.281239,93.449959 32.537312,92.057411 29.639656,91.162750 
	C26.349768,90.146980 22.922340,89.576683 19.554703,88.812729 
	C19.327255,88.389015 19.099808,87.965286 18.590477,87.047653 
	C17.943981,86.190369 17.579369,85.827003 17.214756,85.463646 
	C17.526999,81.322044 17.839239,77.180450 18.961473,72.955246 
	C22.838453,72.925751 25.905439,72.979858 28.972425,73.033966 
	C28.972425,73.033958 29.000961,73.000885 28.991505,73.224510 
	C29.041288,73.747612 29.207811,73.964806 29.481621,74.099716 
	C29.530149,74.267586 29.578680,74.435448 29.949869,75.116997 
	C31.172045,75.654648 32.071560,75.678619 32.971077,75.702591 
	C33.512821,75.584824 34.054565,75.467056 35.055000,75.134087 
	C35.901344,74.592690 36.289005,74.266495 36.676666,73.940308 
	C38.978054,72.451340 41.279438,70.962372 43.905834,69.263123 
	C38.837479,63.139412 45.692924,57.100910 44.733307,50.029530 
	C45.890671,48.909210 46.954277,48.452744 48.057812,48.261822 
	C48.385162,48.725441 48.672588,48.923519 48.971352,49.549763 
	C49.587685,53.294270 50.192680,56.610607 50.892582,60.447166 
	C56.325089,57.479961 59.977245,57.833973 62.980377,62.468273 
	C64.907173,57.722771 67.075920,53.827763 64.921829,48.879326 
	C62.705708,45.427486 60.466446,42.359703 58.434708,39.576221 
	C59.169697,37.318718 59.854115,35.216537 60.388973,33.573730 
	C61.463867,34.183384 62.839157,34.963413 64.199402,35.776970 
	C64.184364,35.810501 64.111916,35.798172 64.192406,36.065502 
	C64.584801,36.513222 64.896706,36.693615 65.141373,36.875557 
	C65.074135,36.877102 65.112259,36.748108 65.214905,37.043335 
	C65.872604,37.554588 66.427650,37.770618 67.409012,37.990768 
	C72.487808,38.660851 77.140289,39.326813 81.792778,39.992775 
	C82.503098,42.190365 83.213425,44.387951 83.923744,46.585537 
	C85.494057,46.041576 87.639816,45.947838 88.500053,44.848328 
	C89.796555,43.191223 90.194794,40.831329 91.301025,38.340855 
	C93.659737,34.711784 90.867447,33.583572 89.096344,32.016918 
	C89.045288,31.259455 88.994240,30.501991 89.370667,29.330498 
	C94.097115,25.330458 98.396088,21.744446 102.908028,17.980791 
	C103.695335,20.234118 104.361778,22.141506 104.999664,24.293324 
	C104.793831,24.844976 104.529556,25.023224 103.809479,25.078148 
	C101.712486,26.244896 99.636673,27.111803 98.342979,28.640572 
	C96.676567,30.609781 96.639572,32.684261 100.062500,32.961632 
	C100.019287,32.991917 100.074684,32.902081 100.055618,33.276855 
	C103.613075,36.760616 107.189606,39.869595 110.766129,42.978573 
	C110.808304,43.430065 110.850471,43.881561 110.541519,44.676064 
	C109.389221,45.915466 108.588058,46.811852 107.192299,48.373508 
	C113.365334,48.508041 117.801987,48.189022 117.683434,41.695583 
	C117.683434,41.695583 117.862129,41.908524 118.112518,41.883869 
	C121.901283,40.723221 120.858109,38.336712 119.936913,35.541473 
	C119.898376,32.388176 119.887527,29.684462 119.876678,26.980747 
M157.757370,131.887756 
	C158.836868,127.258598 159.916382,122.629440 160.997009,117.067627 
	C161.866470,107.542587 159.846344,98.550125 155.817627,89.979813 
	C155.265015,88.804253 153.958908,87.982903 153.001266,86.498917 
	C153.001266,86.498917 152.999481,86.000259 153.000595,85.267052 
	C148.330719,75.622711 140.045624,69.897766 130.886337,64.276817 
	C128.246902,63.196636 125.607475,62.116455 122.313370,61.028614 
	C121.877052,61.017208 121.440742,61.005798 120.833168,60.221649 
	C115.555000,59.826660 110.276833,59.431675 104.231026,59.040188 
	C102.486824,59.351013 100.742622,59.661839 98.493248,59.425278 
	C95.032875,60.224449 91.590179,61.112343 88.108765,61.805923 
	C78.225525,63.774902 70.906487,69.808556 64.470177,77.000648 
	C57.548447,84.735168 52.858990,93.399857 51.627789,104.168510 
	C49.395267,123.695152 53.555817,140.452026 68.722023,153.971817 
	C77.011108,161.361053 86.141510,167.102158 97.074295,168.264084 
	C104.978569,169.104156 113.446838,168.870743 121.073433,166.868362 
	C128.318802,164.966080 135.155151,160.673859 141.479645,156.407196 
	C145.297302,153.831696 150.249039,151.081787 150.715897,144.932861 
	C154.739136,141.972092 157.081635,138.125748 157.018814,132.516647 
	C157.018814,132.516647 157.044739,132.030731 157.757370,131.887756 
M64.544159,42.328407 
	C66.401085,41.533604 68.258011,40.738804 70.424553,39.811478 
	C67.720894,39.418480 64.530304,36.488537 64.544159,42.328407 
z"/>
<path fill="#F5F3EC" opacity="1.000000" stroke="none" 
	d="
M150.937119,189.995926 
	C151.943573,188.848007 152.926544,187.678467 153.960617,186.556000 
	C157.934906,182.241959 162.040619,177.977921 157.651367,170.499847 
	C160.990707,171.598251 163.226212,172.458298 165.528336,173.065994 
	C171.083511,174.532394 176.414597,174.008438 181.970383,172.236374 
	C185.125320,171.230057 188.938980,172.288879 192.713226,172.176880 
	C193.764908,173.197067 194.559357,174.458038 195.531387,176.156403 
	C193.856201,177.150009 192.003403,177.706238 190.005066,177.886017 
	C187.072510,177.331940 184.280624,176.953323 181.499619,177.021027 
	C176.624664,177.139709 172.375900,181.783096 166.708832,179.093185 
	C165.545639,180.258606 164.787521,181.443771 163.932938,182.554718 
	C162.272919,184.712723 160.909348,187.310349 158.788681,188.855103 
	C155.187790,191.478134 155.727692,193.288467 159.056305,195.305191 
	C159.045639,195.990936 159.034958,196.676697 158.761353,197.612839 
	C158.329773,197.835510 158.161133,197.807770 157.943909,197.620499 
	C157.763229,197.447479 157.631134,197.433990 157.499039,197.420502 
	C157.609818,197.614700 157.720612,197.808914 157.882141,198.439514 
	C158.241928,208.325745 156.102341,210.776947 148.178406,210.051071 
	C145.305542,205.859329 142.639282,201.439484 137.424622,199.670044 
	C137.923309,198.490997 138.550461,197.172836 138.390442,197.069092 
	C135.218048,195.012756 130.096024,196.017685 127.258224,199.260162 
	C125.423798,201.356155 123.823036,203.557083 120.420593,202.354065 
	C119.798264,202.134033 118.699608,203.100357 117.883720,203.618179 
	C115.278526,205.271698 112.417442,206.663422 110.185616,208.729294 
	C107.154755,211.534744 104.456108,214.747284 101.918640,218.020615 
	C100.224808,220.205673 98.768173,221.929642 95.904022,219.972443 
	C91.365982,217.681854 95.990677,214.406555 95.055099,211.317474 
	C95.950172,212.049332 96.808647,213.196442 97.924553,214.687561 
	C98.246078,207.682465 104.364731,205.511322 108.633324,203.920074 
	C114.707756,201.655640 114.894966,196.494324 117.455856,192.496017 
	C118.542557,190.799332 119.047829,188.730270 120.819756,187.009888 
	C121.015457,190.121307 121.211151,193.232742 121.471146,197.366379 
	C125.522339,193.385132 128.775421,190.188217 131.870422,187.146652 
	C133.656601,188.708984 135.174866,190.773346 137.198944,191.601517 
	C139.247528,192.439713 141.796600,192.054733 144.674683,192.536896 
	C147.290298,196.520996 149.357666,200.173737 151.425049,203.826462 
	C151.858383,203.786331 152.291718,203.746216 152.725052,203.706100 
	C152.610138,201.853226 152.608078,199.984711 152.353806,198.151169 
	C151.975006,195.419785 151.418182,192.713120 150.937119,189.995926 
z"/>
<path fill="#F6F5EF" opacity="1.000000" stroke="none" 
	d="
M57.017780,198.278732 
	C58.389915,195.637543 60.159546,193.470551 61.014389,190.988480 
	C62.477562,186.740128 65.143562,184.876114 69.529526,185.143692 
	C71.334045,185.253769 73.206581,185.512573 74.944542,185.173126 
	C78.049957,184.566605 81.076744,183.557510 84.831917,182.525620 
	C84.614433,183.638184 84.264771,185.426926 83.521194,187.772675 
	C82.431229,189.244812 81.735168,190.159958 81.039108,191.075104 
	C80.421516,189.633179 79.803917,188.191238 79.105957,186.561676 
	C78.317039,188.022018 77.547318,189.446823 75.973999,190.926422 
	C72.364059,190.981216 69.557716,190.981216 66.751366,190.981216 
	C67.087090,191.391968 67.422813,191.802719 67.758530,192.213486 
	C64.103065,196.483231 60.447598,200.752991 56.792137,205.022751 
	C55.874554,204.340851 54.956970,203.658936 54.039394,202.977051 
	C54.794106,202.355591 55.711155,201.848572 56.254326,201.078018 
	C56.724472,200.411057 56.770325,199.445023 57.017780,198.278732 
z"/>
<path fill="#F6F3E9" opacity="1.000000" stroke="none" 
	d="
M190.005920,125.620422 
	C188.691254,124.108833 186.143173,122.075890 186.319489,120.315849 
	C186.975159,113.770088 182.978363,111.528374 178.510696,110.016151 
	C182.879135,107.115860 187.342789,103.990913 191.990616,101.169327 
	C193.307938,100.369629 195.162582,100.455009 197.209167,100.103836 
	C198.979263,100.675072 200.310989,101.276947 201.833160,102.379166 
	C200.226791,103.591820 198.484070,104.640938 196.620911,104.940063 
	C193.580994,105.428123 189.931824,109.081451 189.944275,112.549187 
	C190.696884,113.227287 191.352066,113.616402 192.007248,114.005516 
	C192.603699,115.959503 193.200150,117.913490 193.510376,118.929848 
	C192.114075,121.450172 191.068588,123.337265 190.005920,125.620422 
z"/>
<path fill="#F8F5EE" opacity="1.000000" stroke="none" 
	d="
M64.898682,49.263386 
	C67.075920,53.827763 64.907173,57.722771 62.980377,62.468273 
	C59.977245,57.833973 56.325089,57.479961 50.892582,60.447166 
	C50.192680,56.610607 49.587685,53.294270 48.988266,49.269238 
	C48.995831,48.373974 48.997807,48.187405 48.999893,48.000420 
	C49.000000,48.000000 49.002319,47.999439 49.002319,47.999439 
	C52.276249,47.282623 55.550179,46.565807 59.219685,45.570969 
	C61.376400,46.616425 63.137543,47.939907 64.898682,49.263386 
z"/>
<path fill="#A7A7A7" opacity="1.000000" stroke="none" 
	d="
M95.972198,220.305054 
	C98.768173,221.929642 100.224808,220.205673 101.918640,218.020615 
	C104.456108,214.747284 107.154755,211.534744 110.185616,208.729294 
	C112.417442,206.663422 115.278526,205.271698 117.883720,203.618179 
	C118.699608,203.100357 119.798264,202.134033 120.420593,202.354065 
	C123.823036,203.557083 125.423798,201.356155 127.258224,199.260162 
	C130.096024,196.017685 135.218048,195.012756 138.390442,197.069092 
	C138.550461,197.172836 137.923309,198.490997 137.317383,199.353958 
	C136.541748,199.318329 136.111404,199.172440 134.995148,199.011215 
	C133.097961,200.274017 131.886703,201.552155 130.675446,202.830292 
	C129.643478,203.800079 128.611526,204.769867 126.906815,205.808105 
	C123.874191,205.840164 120.669098,203.226456 119.874275,207.962265 
	C119.734596,208.230148 119.556015,208.468933 118.839058,208.846237 
	C117.805725,209.629974 117.271881,210.246124 116.738037,210.862274 
	C116.738037,210.862274 116.357887,210.897842 115.816460,210.986008 
	C113.058151,212.034698 110.802353,212.915726 108.634682,213.976776 
	C106.172905,215.181778 104.239548,216.809830 105.094978,220.012833 
	C105.094978,220.012833 105.000748,220.461884 104.682938,220.834457 
	C102.232147,221.909866 100.099159,222.612701 97.966171,223.315552 
	C97.324234,222.422928 96.682304,221.530289 95.972198,220.305054 
z"/>
<path fill="#F2F0E8" opacity="1.000000" stroke="none" 
	d="
M183.724762,158.005142 
	C176.824753,156.375305 175.742233,154.333588 178.071823,147.985336 
	C179.962860,142.832153 179.753845,142.254059 174.750671,138.800110 
	C181.567245,134.769455 181.860443,134.860352 189.816803,143.710510 
	C187.352203,143.899231 186.386215,144.984940 187.732086,148.105423 
	C187.957047,149.129257 187.917068,149.578369 187.877090,150.027496 
	C186.540894,152.563019 185.204712,155.098557 183.724762,158.005142 
z"/>
<path fill="#BFC0C0" opacity="1.000000" stroke="none" 
	d="
M190.150620,178.262451 
	C192.003403,177.706238 193.856201,177.150009 195.851013,176.296524 
	C196.963135,175.132950 197.933228,174.266617 198.903320,173.400284 
	C199.278305,173.448181 199.653305,173.496063 200.028305,173.543961 
	C199.604874,175.717316 199.849213,178.514496 198.567703,179.886185 
	C197.319778,181.221970 194.534790,181.279480 192.380325,181.573990 
	C189.080215,182.025116 185.746033,182.259079 182.419174,182.475174 
	C177.196213,182.814438 171.967300,183.062073 167.902573,183.284851 
	C164.802383,187.508041 162.149887,191.121353 159.276855,195.019928 
	C155.727692,193.288467 155.187790,191.478134 158.788681,188.855103 
	C160.909348,187.310349 162.272919,184.712723 163.932938,182.554718 
	C164.787521,181.443771 165.545639,180.258606 166.771790,179.484863 
	C171.637634,179.912567 176.092590,180.194046 180.515900,179.935120 
	C183.749039,179.745865 186.940552,178.845718 190.150620,178.262451 
z"/>
<path fill="#F6F4EE" opacity="1.000000" stroke="none" 
	d="
M104.178299,25.072496 
	C104.529556,25.023224 104.793831,24.844976 105.270798,23.980909 
	C104.983467,18.650537 104.396461,13.877007 103.809456,9.103477 
	C109.343857,9.021717 112.126549,11.545971 112.636444,17.565138 
	C112.039963,17.648331 111.763069,17.527796 111.476158,17.495111 
	C111.355621,17.481379 111.102509,17.647861 111.097794,17.741863 
	C110.846741,22.740398 110.299149,27.600208 104.889626,30.516546 
	C106.217575,31.370449 107.147957,31.968700 108.078331,32.566956 
	C107.455254,33.562599 106.832169,34.558243 105.733406,35.796257 
	C103.530045,34.993111 101.802368,33.947594 100.074684,32.902081 
	C100.074684,32.902081 100.019287,32.991917 100.004829,32.577316 
	C101.386345,29.799307 102.782326,27.435902 104.178299,25.072496 
z"/>
<path fill="#F5F3E8" opacity="1.000000" stroke="none" 
	d="
M19.154533,88.879349 
	C22.922340,89.576683 26.349768,90.146980 29.639656,91.162750 
	C32.537312,92.057411 35.281239,93.449959 38.215393,94.921471 
	C32.041206,100.161613 22.709311,99.465652 17.218592,94.374557 
	C13.391591,90.826088 15.521457,89.977547 19.154533,88.879349 
M30.056263,94.541260 
	C28.724440,94.329483 27.392616,94.117706 26.060795,93.905930 
	C26.030846,94.182732 26.000896,94.459534 25.970947,94.736328 
	C27.168821,94.794868 28.366697,94.853401 30.056263,94.541260 
z"/>
<path fill="#F29A1F" opacity="1.000000" stroke="none" 
	d="
M64.921829,48.879326 
	C63.137543,47.939907 61.376400,46.616425 59.297188,45.221817 
	C58.533028,41.912514 57.321690,38.555714 57.801388,35.461040 
	C58.777077,29.166653 60.657803,23.011757 62.237839,16.817812 
	C62.268131,16.699072 63.189899,16.807743 64.005554,17.131294 
	C64.444626,17.752193 64.664909,17.951632 64.976204,18.050594 
	C64.939186,18.368303 65.014923,18.656370 65.461319,19.499367 
	C65.858276,22.000679 66.313210,23.959978 66.062042,25.824139 
	C65.689110,28.592052 64.816338,31.292624 64.156311,34.021858 
	C64.156311,34.021858 64.098839,34.507954 64.162704,34.927158 
	C64.226562,35.346363 64.214447,35.743443 64.214447,35.743443 
	C62.839157,34.963413 61.463867,34.183384 60.388973,33.573730 
	C59.854115,35.216537 59.169697,37.318718 58.434708,39.576221 
	C60.466446,42.359703 62.705708,45.427486 64.921829,48.879326 
z"/>
<path fill="#F7F3E8" opacity="1.000000" stroke="none" 
	d="
M10.182486,141.975922 
	C18.372152,134.795807 23.886162,135.376907 32.928253,144.638443 
	C32.509193,146.041000 32.140362,147.394547 31.261139,148.167572 
	C30.545713,148.796570 29.218874,148.730164 28.073017,148.279724 
	C27.012957,146.368866 26.043047,145.150436 24.834679,143.671875 
	C21.058096,143.567474 17.519970,143.723175 13.981844,143.878891 
	C12.827146,143.261871 11.672446,142.644836 10.182486,141.975922 
z"/>
<path fill="#A6A6A7" opacity="1.000000" stroke="none" 
	d="
M188.117096,150.302536 
	C187.917068,149.578369 187.957047,149.129257 187.999084,148.341766 
	C194.916458,147.553314 202.036011,149.798889 208.730392,146.609116 
	C211.333420,145.368835 213.756790,143.751556 216.660614,142.076004 
	C216.483795,141.727631 216.861572,142.471924 217.212646,143.923004 
	C216.329483,149.031708 212.733200,149.339539 209.291641,150.041580 
	C205.407074,150.834000 201.566299,151.841003 197.706482,152.754700 
	C194.590012,152.028992 191.473557,151.303284 188.117096,150.302536 
z"/>
<path fill="#F19918" opacity="1.000000" stroke="none" 
	d="
M81.011467,191.391113 
	C81.735168,190.159958 82.431229,189.244812 83.310394,188.091537 
	C89.638763,189.575623 91.776802,183.618027 96.433990,180.721313 
	C96.433990,185.766022 96.433990,190.179825 96.433990,194.660248 
	C96.136292,194.422287 95.552132,193.955353 94.567520,193.168320 
	C94.225296,194.927368 93.935135,196.418839 93.668610,197.788803 
	C92.960823,195.718292 92.233871,193.591721 91.004486,191.652161 
	C90.333893,191.888275 90.165741,191.937378 89.616943,191.925018 
	C88.478012,191.964081 87.719719,192.064575 86.607117,192.133163 
	C85.366409,192.355179 84.480019,192.609116 83.269287,192.892456 
	C82.298317,192.939606 81.651672,192.957352 81.005035,192.975128 
	C80.997963,192.552460 80.990891,192.129791 81.011467,191.391113 
M87.584930,189.599762 
	C87.606094,189.951569 87.627258,190.303360 87.648422,190.655182 
	C87.899147,190.582504 88.149872,190.509827 88.400597,190.437134 
	C88.268936,190.193802 88.137276,189.950455 87.584930,189.599762 
z"/>
<path fill="#B6B6B4" opacity="1.000000" stroke="none" 
	d="
M56.891281,205.331512 
	C60.447598,200.752991 64.103065,196.483231 67.758530,192.213486 
	C67.422813,191.802719 67.087090,191.391968 66.751366,190.981216 
	C69.557716,190.981216 72.364059,190.981216 75.635910,190.980347 
	C75.126900,191.983154 74.297356,193.222305 73.142593,193.933105 
	C71.565369,194.903946 69.740601,195.472626 67.731674,196.782135 
	C67.387199,197.912003 67.333000,198.473450 67.278793,199.034882 
	C67.162888,199.456741 67.046982,199.878616 66.663589,200.802856 
	C66.226524,201.851852 66.056938,202.398468 65.887360,202.945068 
	C65.057632,204.103760 64.227905,205.262451 62.845829,206.632538 
	C61.494911,207.121048 60.696339,207.398148 59.897766,207.675232 
	C58.928654,206.996918 57.959541,206.318604 56.891281,205.331512 
z"/>
<path fill="#AFAFAF" opacity="1.000000" stroke="none" 
	d="
M186.005203,62.021877 
	C190.029907,63.291775 190.515060,59.756413 191.791595,57.265968 
	C195.041260,62.109806 194.576340,64.255753 190.610992,66.834534 
	C189.364716,67.645020 188.251785,69.428619 188.042740,70.903580 
	C187.627640,73.832275 187.883041,76.856003 187.638870,80.322044 
	C187.416397,80.803635 187.023254,80.891510 186.740601,80.760208 
	C185.809433,80.111778 185.160904,79.594643 184.606018,78.731316 
	C184.716431,77.909622 184.733215,77.434120 184.817688,76.502434 
	C184.943130,72.026970 185.000885,68.007690 185.205902,63.755989 
	C185.570496,63.023006 185.787842,62.522442 186.005203,62.021877 
z"/>
<path fill="#F9F7F1" opacity="1.000000" stroke="none" 
	d="
M151.857086,46.500050 
	C151.857101,46.500050 151.827332,46.206261 152.147217,46.216980 
	C152.726898,46.418980 152.903671,46.668976 152.997406,46.977699 
	C153.461182,47.302334 153.924973,47.626972 154.742310,48.316479 
	C156.063980,49.119583 157.032089,49.557816 158.000198,49.996048 
	C158.000198,49.996048 158.472046,49.986938 158.986481,49.989124 
	C159.686249,49.985035 159.871552,49.978764 160.056854,49.972488 
	C161.553528,50.587250 163.050186,51.202007 164.868271,51.963486 
	C164.580597,52.662144 163.971527,53.214077 162.766327,53.911415 
	C161.818130,54.493767 161.466034,54.930714 161.113922,55.367657 
	C159.387146,57.241596 157.660370,59.115543 155.188507,61.015465 
	C152.637878,60.717575 150.832367,60.393707 149.026840,60.069839 
	C149.026840,60.069839 149.295441,59.858608 149.886658,59.898418 
	C152.420593,59.442688 154.363312,58.947147 156.306030,58.451607 
	C156.217651,58.118668 156.129257,57.785732 156.040863,57.452793 
	C154.693573,56.968121 153.346268,56.483444 151.998993,55.998772 
	C151.943176,55.277401 151.887360,54.556030 151.915436,53.008553 
	C151.951920,50.288315 151.904510,48.394184 151.857086,46.500050 
M157.158936,52.955040 
	C157.413544,52.802883 157.800079,52.700001 157.881119,52.483017 
	C157.946274,52.308533 157.641708,51.995956 157.501205,51.744644 
	C157.360260,51.996246 157.219330,52.247845 157.158936,52.955040 
z"/>
<path fill="#F7F5EC" opacity="1.000000" stroke="none" 
	d="
M27.055111,108.918823 
	C30.589008,111.826775 34.122902,114.734726 38.302494,118.174004 
	C38.420506,118.035248 37.593945,119.007095 36.421638,120.077011 
	C34.041454,118.534187 32.007015,116.893311 29.558037,114.918083 
	C29.558037,116.482079 29.558037,117.497032 29.558037,119.672081 
	C25.788885,117.304634 22.754641,115.398788 18.931408,112.997368 
	C21.018402,111.114243 22.298834,109.958893 23.913048,108.617004 
	C24.246832,108.430466 24.235813,108.467812 24.275261,108.834381 
	C25.266171,110.041763 26.217634,110.882568 28.090572,112.537682 
	C27.484760,110.420418 27.269936,109.669617 27.055111,108.918823 
z"/>
<path fill="#F9F7F1" opacity="1.000000" stroke="none" 
	d="
M187.023254,80.891510 
	C187.023254,80.891510 187.416397,80.803635 187.613663,80.767899 
	C190.214600,84.839584 192.618286,88.947014 195.094406,93.178215 
	C194.668793,93.491760 194.015732,93.972862 192.892731,94.726799 
	C192.234070,95.020691 192.045349,95.041748 191.856613,95.062813 
	C187.375778,95.062813 182.894943,95.062813 178.414108,95.062813 
	C177.906754,94.385689 177.399399,93.708565 176.892044,93.031441 
	C179.324432,91.330711 181.756805,89.629990 184.535309,88.176239 
	C184.400604,92.570213 185.250092,93.055878 189.680054,91.570419 
	C188.790649,87.995499 187.906952,84.443504 187.023254,80.891510 
z"/>
<path fill="#F4F0E5" opacity="1.000000" stroke="none" 
	d="
M64.566696,34.009094 
	C64.816338,31.292624 65.689110,28.592052 66.062042,25.824139 
	C66.313210,23.959978 65.858276,22.000679 65.629425,19.652870 
	C66.597992,18.828844 67.656334,18.435884 69.356323,17.804688 
	C69.356323,21.839088 69.356323,25.639101 69.356323,29.439116 
	C69.675644,29.465204 69.994957,29.491291 70.314278,29.517380 
	C70.987587,27.593498 71.660904,25.669617 72.392738,23.578503 
	C76.026352,30.526424 73.613159,33.788139 64.566696,34.009094 
z"/>
<path fill="#ED981F" opacity="1.000000" stroke="none" 
	d="
M103.599548,9.178505 
	C104.396461,13.877007 104.983467,18.650537 105.299347,23.736481 
	C104.361778,22.141506 103.695335,20.234118 102.908028,17.980791 
	C98.396088,21.744446 94.097115,25.330458 89.457138,28.958950 
	C91.141335,26.588604 93.058197,24.071886 95.233727,21.803215 
	C96.472595,20.511311 98.133942,19.624550 100.139084,18.141401 
	C101.411018,15.146619 102.148926,12.565786 102.886833,9.984955 
	C103.006310,9.708066 103.173912,9.464259 103.599548,9.178505 
z"/>
<path fill="#9A9999" opacity="1.000000" stroke="none" 
	d="
M157.992493,197.780029 
	C158.161133,197.807770 158.329773,197.835510 158.737762,197.954956 
	C159.518784,201.631561 160.060440,205.216415 160.297821,209.307617 
	C157.632156,211.323425 155.270737,212.832901 152.909317,214.342377 
	C151.385010,213.127197 149.860718,211.912048 148.257416,210.373978 
	C156.102341,210.776947 158.241928,208.325745 157.968246,198.416840 
	C158.003616,197.957779 157.992493,197.780029 157.992493,197.780029 
z"/>
<path fill="#F6F5EF" opacity="1.000000" stroke="none" 
	d="
M86.961433,192.165070 
	C87.719719,192.064575 88.478012,191.964081 89.618454,192.322174 
	C89.995506,193.838913 89.990410,194.897049 89.985306,195.955185 
	C89.967697,197.359406 89.950096,198.763641 89.658844,200.583572 
	C89.385185,200.999283 88.987122,201.004929 88.987122,201.004929 
	C87.904465,201.318970 86.821800,201.632996 85.355499,201.624146 
	C85.048691,199.965225 85.125534,198.629196 85.218636,197.010559 
	C83.552406,197.700272 82.384178,198.183838 81.215950,198.667419 
	C80.968887,196.935791 80.721825,195.204147 80.739899,193.223816 
	C81.651672,192.957352 82.298317,192.939606 83.636063,192.929428 
	C85.205261,192.679703 86.083344,192.422379 86.961433,192.165070 
z"/>
<path fill="#B9B9B9" opacity="1.000000" stroke="none" 
	d="
M152.991516,19.003727 
	C155.786850,23.444555 156.788528,27.281742 150.348724,29.630629 
	C149.493317,29.942638 149.598495,32.752537 149.153976,34.376942 
	C148.881134,35.373936 148.408752,36.316326 148.025986,37.283237 
	C147.483612,37.117855 146.941238,36.952473 146.398865,36.787090 
	C147.267761,32.786865 148.136673,28.786636 149.422516,24.403378 
	C150.890137,22.348137 151.940826,20.675930 152.991516,19.003727 
z"/>
<path fill="#F9F7EB" opacity="1.000000" stroke="none" 
	d="
M48.017883,47.996284 
	C46.954277,48.452744 45.890671,48.909210 44.638012,49.633743 
	C43.589016,45.679680 41.377644,42.773113 35.504227,42.536678 
	C37.003357,40.794834 37.589767,39.442432 38.464218,39.219418 
	C41.455181,38.456596 48.422771,43.920700 49.006645,47.614918 
	C49.002319,47.999439 49.000000,48.000000 48.754410,48.002068 
	C48.508816,48.004131 48.017883,47.996284 48.017883,47.996284 
z"/>
<path fill="#F5F0E3" opacity="1.000000" stroke="none" 
	d="
M152.865448,18.714998 
	C151.940826,20.675930 150.890137,22.348137 149.508636,24.032690 
	C145.499557,23.552151 143.611420,24.895277 143.938309,28.866844 
	C144.039230,30.093090 143.572678,31.366043 143.023315,32.858921 
	C140.855087,28.490627 141.619049,24.530184 145.532303,21.279312 
	C145.970322,20.915436 146.060730,20.133095 146.110519,19.294331 
	C148.185593,18.837984 150.462479,18.632130 152.865448,18.714998 
z"/>
<path fill="#F7F3E8" opacity="1.000000" stroke="none" 
	d="
M44.964752,143.983093 
	C43.235073,145.639175 41.675957,147.545593 39.724018,148.875458 
	C38.033543,150.027176 35.897472,150.524857 33.594364,151.408936 
	C33.449215,149.643524 33.668053,147.780807 33.934654,145.523544 
	C37.429707,144.676712 40.876999,144.224396 44.664837,143.892242 
	C45.005383,144.012375 44.964756,143.983093 44.964752,143.983093 
z"/>
<path fill="#989796" opacity="1.000000" stroke="none" 
	d="
M108.292679,32.638969 
	C107.147957,31.968700 106.217575,31.370449 104.889626,30.516546 
	C110.299149,27.600208 110.846741,22.740398 111.097794,17.741863 
	C111.102509,17.647861 111.355621,17.481379 111.476158,17.495111 
	C111.763069,17.527796 112.039963,17.648331 112.588356,17.966396 
	C112.936188,20.175581 113.016571,22.151749 113.049667,24.877302 
	C113.008530,26.084639 113.014664,26.542587 113.020813,27.000538 
	C112.726303,27.798805 112.431801,28.597075 111.778580,29.793575 
	C110.592567,31.077291 109.765259,31.962772 108.937950,32.848251 
	C108.937950,32.848251 108.507034,32.710991 108.292679,32.638969 
z"/>
<path fill="#F9F7F1" opacity="1.000000" stroke="none" 
	d="
M186.039505,61.680351 
	C185.787842,62.522442 185.570496,63.023006 184.857147,63.760078 
	C183.277283,64.327988 182.193420,64.659386 181.109543,64.990791 
	C182.219330,62.369743 183.329117,59.748695 184.833664,56.195335 
	C183.722229,55.457752 181.361511,53.891102 178.837769,52.066483 
	C179.053055,51.325291 179.736679,50.400917 179.766434,50.421494 
	C182.850098,52.555347 185.884537,54.760338 189.127289,57.109867 
	C187.871231,58.849445 186.972519,60.094139 186.039505,61.680351 
z"/>
<path fill="#E4E4E4" opacity="1.000000" stroke="none" 
	d="
M198.175934,152.838974 
	C201.566299,151.841003 205.407074,150.834000 209.291641,150.041580 
	C212.733200,149.339539 216.329483,149.031708 217.316284,144.254791 
	C219.482330,147.373657 217.152847,151.074738 211.942368,151.872406 
	C207.559143,152.543427 203.081314,152.596573 198.175934,152.838974 
z"/>
<path fill="#939293" opacity="1.000000" stroke="none" 
	d="
M189.846832,112.260208 
	C189.931824,109.081451 193.580994,105.428123 196.620911,104.940063 
	C198.484070,104.640938 200.226791,103.591820 202.134430,102.510910 
	C203.096329,102.554192 203.947403,102.966064 204.548492,103.898582 
	C202.464050,105.718269 200.629608,107.017319 198.795151,108.316376 
	C198.411087,108.302017 198.027023,108.287659 197.214905,108.014847 
	C194.473526,109.257668 192.160187,110.758942 189.846832,112.260208 
z"/>
<path fill="#939395" opacity="1.000000" stroke="none" 
	d="
M13.694408,144.115097 
	C17.519970,143.723175 21.058096,143.567474 24.791279,144.107819 
	C24.957167,145.094299 24.927999,145.384735 24.898832,145.675171 
	C24.487988,145.564575 24.077145,145.453979 23.154976,144.984711 
	C21.105618,144.745377 19.419573,144.503098 18.060343,145.059372 
	C15.222464,146.220779 12.557151,147.803848 9.820944,149.213684 
	C8.643686,148.480911 7.466432,147.748138 6.208659,146.965240 
	C8.869874,145.998871 11.138423,145.175095 13.694408,144.115097 
z"/>
<path fill="#F6F5EF" opacity="1.000000" stroke="none" 
	d="
M54.468117,188.134384 
	C55.471489,191.086426 56.213802,194.145477 57.000626,197.587311 
	C55.597950,197.970093 54.150753,197.970093 52.288441,197.970093 
	C52.067898,193.544250 51.870667,189.586151 51.655148,185.261093 
	C52.664097,186.439423 53.435581,187.340408 54.468117,188.134384 
z"/>
<path fill="#B2B3B3" opacity="1.000000" stroke="none" 
	d="
M46.141445,171.533859 
	C40.729973,171.897278 37.285923,175.363022 33.604122,179.154587 
	C33.137867,179.120102 32.901665,178.894135 32.972069,178.556885 
	C34.013367,176.121780 34.984261,174.023926 35.910835,171.933075 
	C35.866516,171.940063 35.808697,171.871445 36.198132,171.896439 
	C39.754539,171.357071 42.799217,167.778122 46.141445,171.533859 
z"/>
<path fill="#BABABB" opacity="1.000000" stroke="none" 
	d="
M9.954061,149.539490 
	C12.557151,147.803848 15.222464,146.220779 18.060343,145.059372 
	C19.419573,144.503098 21.105618,144.745377 22.836056,144.948685 
	C20.366255,146.899826 17.822803,148.799881 14.990133,150.038467 
	C13.639311,150.629105 11.738731,149.962433 9.954061,149.539490 
z"/>
<path fill="#F79312" opacity="1.000000" stroke="none" 
	d="
M26.989559,122.183083 
	C28.382843,123.489090 29.776127,124.795105 31.859426,126.747910 
	C27.477261,125.919899 23.323368,125.135025 18.906597,124.074310 
	C18.643721,123.798470 18.711554,123.792221 19.000826,123.786148 
	C19.516783,123.538589 19.743467,123.297104 19.970152,123.055626 
	C21.090044,122.660210 22.209936,122.264801 24.049999,121.874588 
	C25.509966,121.980881 26.249762,122.081985 26.989559,122.183083 
z"/>
<path fill="#9B9C9B" opacity="1.000000" stroke="none" 
	d="
M80.886368,198.730438 
	C82.384178,198.183838 83.552406,197.700272 85.218636,197.010559 
	C85.125534,198.629196 85.048691,199.965225 85.015488,201.654541 
	C85.059120,202.007843 84.876442,202.319809 84.506622,202.553436 
	C83.419281,202.925812 82.701775,203.064545 81.984268,203.203293 
	C80.405861,202.207657 78.827461,201.212036 76.242142,199.581268 
	C78.529228,199.163651 79.542999,198.978546 80.886368,198.730438 
z"/>
<path fill="#EEA02B" opacity="1.000000" stroke="none" 
	d="
M117.374008,41.796829 
	C117.801987,48.189022 113.365334,48.508041 107.192299,48.373508 
	C108.588058,46.811852 109.389221,45.915466 110.552673,45.016609 
	C114.549942,47.103699 114.798805,42.510674 117.374008,41.796829 
z"/>
<path fill="#F5F3EC" opacity="1.000000" stroke="none" 
	d="
M88.989899,201.439972 
	C88.987122,201.004929 89.385185,200.999283 89.584213,200.998230 
	C91.542969,204.066422 93.302704,207.135651 95.088097,210.558258 
	C93.684662,211.515228 92.255562,212.118835 90.298393,212.945496 
	C89.913826,209.684982 89.453247,205.779999 88.989899,201.439972 
z"/>
<path fill="#F5F3EC" opacity="1.000000" stroke="none" 
	d="
M105.442146,219.943497 
	C104.239548,216.809830 106.172905,215.181778 108.634682,213.976776 
	C110.802353,212.915726 113.058151,212.034698 115.641335,211.062012 
	C114.547783,212.651855 113.224693,214.413513 111.591263,215.812897 
	C109.807030,217.341461 107.735573,218.534729 105.442146,219.943497 
z"/>
<path fill="#F9F9ED" opacity="1.000000" stroke="none" 
	d="
M102.516304,9.983791 
	C102.148926,12.565786 101.411018,15.146619 100.341766,17.872211 
	C99.215576,15.332085 98.420731,12.647201 97.421181,9.270855 
	C99.715561,9.616508 100.930664,9.799568 102.516304,9.983791 
z"/>
<path fill="#B2B3B3" opacity="1.000000" stroke="none" 
	d="
M28.016766,180.924835 
	C27.178329,179.421799 26.339893,177.918777 26.183506,176.224670 
	C28.235609,176.051224 29.605665,176.068863 31.219883,176.065674 
	C31.464045,176.044846 31.933582,175.906723 31.899441,176.216034 
	C32.210754,177.314957 32.556210,178.104538 32.901665,178.894135 
	C32.901665,178.894135 33.137867,179.120102 33.261410,179.231216 
	C33.073727,179.815674 32.762497,180.289001 31.834553,180.914642 
	C30.150812,181.019592 29.083790,180.972214 28.016766,180.924835 
z"/>
<path fill="#F9F2E0" opacity="1.000000" stroke="none" 
	d="
M29.031969,72.710526 
	C25.905439,72.979858 22.838453,72.925751 19.369396,72.848038 
	C19.182224,72.056061 19.290501,70.672096 19.628347,70.613586 
	C23.432180,69.954758 27.271280,69.499535 32.439545,68.811409 
	C30.509378,70.872810 29.800446,71.629951 29.031969,72.710526 
z"/>
<path fill="#F4F0E5" opacity="1.000000" stroke="none" 
	d="
M64.199402,35.776970 
	C64.214447,35.743443 64.226562,35.346363 64.261963,35.150864 
	C69.528732,34.955368 74.760109,34.955368 80.146614,34.955368 
	C80.110291,35.660099 80.044136,36.943733 79.626015,38.441803 
	C75.181252,38.092537 71.088448,37.528831 66.685577,36.900196 
	C65.954430,36.806213 65.533340,36.777161 65.112259,36.748108 
	C65.112259,36.748108 65.074135,36.877102 65.060013,36.608646 
	C64.734573,36.159519 64.423241,35.978844 64.111916,35.798172 
	C64.111916,35.798172 64.184364,35.810501 64.199402,35.776970 
z"/>
<path fill="#EEA02B" opacity="1.000000" stroke="none" 
	d="
M100.055618,33.276855 
	C101.802368,33.947594 103.530045,34.993111 105.587036,36.120384 
	C106.307983,36.502766 106.699623,36.803383 107.524925,37.389359 
	C108.859100,38.475967 109.759621,39.277222 110.660149,40.078476 
	C110.756889,40.806698 110.853622,41.534916 110.858246,42.620857 
	C107.189606,39.869595 103.613075,36.760616 100.055618,33.276855 
z"/>
<path fill="#F5F0E3" opacity="1.000000" stroke="none" 
	d="
M144.732651,44.982948 
	C143.927658,48.664295 142.201111,51.408447 138.548569,50.277321 
	C140.045868,46.716095 141.508698,43.236900 143.062408,39.383072 
	C143.564987,40.981548 143.976700,42.954659 144.732651,44.982948 
z"/>
<path fill="#F6F1E6" opacity="1.000000" stroke="none" 
	d="
M30.975723,176.086502 
	C29.605665,176.068863 28.235609,176.051224 26.455677,176.047043 
	C26.053905,172.858429 26.062012,169.656342 26.342228,166.245575 
	C27.282423,167.922729 27.950504,169.808609 29.068140,171.362000 
	C29.517694,171.029541 29.957983,170.897583 30.060467,171.172180 
	C30.433874,172.993362 30.704800,174.539932 30.975723,176.086502 
z"/>
<path fill="#8A8B8B" opacity="1.000000" stroke="none" 
	d="
M46.495800,171.683594 
	C42.799217,167.778122 39.754539,171.357071 36.081360,171.516663 
	C38.763023,167.061691 42.825500,167.714157 47.263622,169.213989 
	C48.182045,170.331467 48.840107,171.221466 49.309731,172.167572 
	C49.121288,172.223694 49.013260,172.601791 49.013260,172.601791 
	C48.292225,172.345642 47.571190,172.089478 46.495800,171.683594 
z"/>
<path fill="#F7F7EC" opacity="1.000000" stroke="none" 
	d="
M201.873138,134.850433 
	C198.499039,133.615524 194.985855,132.117294 191.377625,130.292419 
	C194.214111,130.440765 197.201782,130.717056 200.040955,131.519073 
	C200.831146,131.742294 201.181778,133.521652 201.873138,134.850433 
z"/>
<path fill="#F5F3E8" opacity="1.000000" stroke="none" 
	d="
M38.981140,96.372208 
	C40.189640,97.306694 41.377975,98.594627 43.290165,100.667068 
	C40.125248,101.054108 37.745548,101.345116 35.182755,101.310036 
	C36.320099,99.564507 37.640541,98.145073 38.981140,96.372208 
z"/>
<path fill="#F0940C" opacity="1.000000" stroke="none" 
	d="
M66.995651,36.965126 
	C71.088448,37.528831 75.181252,38.092537 79.652206,38.731567 
	C80.605171,38.997955 81.179970,39.189022 81.773773,39.686432 
	C77.140289,39.326813 72.487808,38.660851 67.410797,37.735458 
	C66.989403,37.305721 66.992531,37.135422 66.995651,36.965126 
z"/>
<path fill="#FAF6E0" opacity="1.000000" stroke="none" 
	d="
M119.518936,27.073429 
	C119.887527,29.684462 119.898376,32.388176 119.740875,35.787621 
	C119.109550,37.417088 118.646584,38.350822 118.183609,39.284554 
	C118.509468,35.245071 118.835327,31.205591 119.518936,27.073429 
z"/>
<path fill="#F7F3EA" opacity="1.000000" stroke="none" 
	d="
M153.333038,46.953007 
	C152.903671,46.668976 152.726898,46.418980 152.259796,46.121468 
	C152.725525,44.863346 153.398529,43.711460 154.062683,42.213326 
	C155.146149,41.578728 156.238464,41.290382 157.330765,41.002033 
	C157.673752,41.487209 158.016739,41.972389 158.359726,42.457565 
	C156.796036,43.947815 155.232346,45.438065 153.333038,46.953007 
z"/>
<path fill="#C2C3C2" opacity="1.000000" stroke="none" 
	d="
M189.944275,112.549194 
	C192.160187,110.758942 194.473526,109.257668 196.928497,108.050430 
	C195.507645,110.048897 193.945190,111.753334 192.194992,113.731644 
	C191.352066,113.616402 190.696884,113.227287 189.944275,112.549194 
z"/>
<path fill="#C2C3C2" opacity="1.000000" stroke="none" 
	d="
M198.921555,108.628914 
	C200.629608,107.017319 202.464050,105.718269 204.560349,104.216103 
	C204.567383,105.466438 204.795044,107.615593 203.942368,108.206940 
	C202.726074,109.050446 200.717896,108.752083 198.921555,108.628914 
z"/>
<path fill="#E3E3E3" opacity="1.000000" stroke="none" 
	d="
M153.005798,214.644287 
	C155.270737,212.832901 157.632156,211.323425 160.299728,209.673553 
	C160.365265,214.471161 157.617142,215.933212 153.005798,214.644287 
z"/>
<path fill="#F5F3EC" opacity="1.000000" stroke="none" 
	d="
M98.077316,223.653381 
	C100.099159,222.612701 102.232147,221.909866 104.659737,221.062683 
	C104.680237,226.304871 101.643890,225.609406 98.077316,223.653381 
z"/>
<path fill="#F6F1E6" opacity="1.000000" stroke="none" 
	d="
M29.544800,156.032166 
	C29.091955,157.829834 28.278589,159.676743 27.223637,161.761169 
	C24.869757,158.966919 25.938488,157.119049 29.544800,156.032166 
z"/>
<path fill="#F5F3EC" opacity="1.000000" stroke="none" 
	d="
M120.248802,207.945770 
	C120.669098,203.226456 123.874191,205.840164 126.610306,205.912430 
	C124.865471,206.608627 122.744400,207.268951 120.248802,207.945770 
z"/>
<path fill="#EEA02B" opacity="1.000000" stroke="none" 
	d="
M118.162689,39.593872 
	C118.646584,38.350822 119.109550,37.417088 119.768570,36.237206 
	C120.858109,38.336712 121.901283,40.723221 118.018631,41.774410 
	C117.830154,41.094131 117.985962,40.498657 118.162689,39.593872 
z"/>
<path fill="#F6F5EF" opacity="1.000000" stroke="none" 
	d="
M54.001476,173.998550 
	C52.371918,173.719635 50.742363,173.440720 49.063034,172.881805 
	C49.013260,172.601791 49.121288,172.223694 49.623604,172.110107 
	C51.544052,172.418991 54.394085,170.075745 53.999252,174.000732 
	C54.000000,174.000000 54.001476,173.998550 54.001476,173.998550 
z"/>
<path fill="#ED981F" opacity="1.000000" stroke="none" 
	d="
M89.096268,32.376701 
	C90.867447,33.583572 93.659737,34.711784 91.308289,37.955246 
	C90.358330,36.244801 89.727272,34.490643 89.096268,32.376701 
z"/>
<path fill="#F6F4EE" opacity="1.000000" stroke="none" 
	d="
M111.019119,40.026283 
	C109.759621,39.277222 108.859100,38.475967 107.776360,37.424061 
	C109.204689,37.545441 110.815239,37.917469 112.425789,38.289497 
	C112.076553,38.851025 111.727318,39.412556 111.019119,40.026283 
z"/>
<path fill="#F7F3EA" opacity="1.000000" stroke="none" 
	d="
M160.085175,49.636238 
	C159.871552,49.978764 159.686249,49.985035 159.222321,49.981022 
	C159.234329,47.895252 157.943588,44.769741 162.575912,45.090206 
	C161.627060,46.712387 160.870285,48.006187 160.085175,49.636238 
z"/>
<path fill="#F5F3EC" opacity="1.000000" stroke="none" 
	d="
M131.063965,202.860352 
	C131.886703,201.552155 133.097961,200.274017 134.654144,199.001190 
	C133.816895,200.301147 132.634689,201.595764 131.063965,202.860352 
z"/>
<path fill="#F6F5EF" opacity="1.000000" stroke="none" 
	d="
M57.110676,174.045319 
	C56.735046,174.984146 56.359421,175.922958 55.733330,177.034790 
	C54.994686,176.394028 54.506504,175.580261 54.009895,174.382538 
	C54.001476,173.998550 54.000000,174.000000 54.388355,174.001694 
	C55.554699,174.017365 56.332687,174.031342 57.110676,174.045319 
z"/>
<path fill="#F6F4EE" opacity="1.000000" stroke="none" 
	d="
M109.145607,33.140747 
	C109.765259,31.962772 110.592567,31.077291 111.713943,30.107464 
	C111.564514,31.503462 113.161125,34.572018 109.145607,33.140747 
z"/>
<path fill="#F6F5EF" opacity="1.000000" stroke="none" 
	d="
M28.063173,181.277298 
	C29.083790,180.972214 30.150812,181.019592 31.617317,181.102264 
	C31.027016,183.783218 29.688372,183.659637 28.063173,181.277298 
z"/>
<path fill="#BABABB" opacity="1.000000" stroke="none" 
	d="
M24.987633,145.949402 
	C24.927999,145.384735 24.957167,145.094299 25.029736,144.367920 
	C26.043047,145.150436 27.012957,146.368866 28.007141,147.959137 
	C27.046419,147.628525 26.061424,146.926086 24.987633,145.949402 
z"/>
<path fill="#F7F5EC" opacity="1.000000" stroke="none" 
	d="
M33.975510,120.756531 
	C33.215271,121.346313 32.424572,121.654175 31.307678,121.903015 
	C31.969339,121.387535 32.957195,120.931076 33.975510,120.756531 
z"/>
<path fill="#F6F5EF" opacity="1.000000" stroke="none" 
	d="
M60.074646,207.985962 
	C60.696339,207.398148 61.494911,207.121048 62.623436,206.841080 
	C62.052769,207.324371 61.152145,207.810532 60.074646,207.985962 
z"/>
<path fill="#F6F4EE" opacity="1.000000" stroke="none" 
	d="
M113.359528,27.000439 
	C113.014664,26.542587 113.008530,26.084639 113.113953,25.299885 
	C113.992851,25.313536 114.760185,25.653994 115.527527,25.994450 
	C114.917770,26.329746 114.308014,26.665043 113.359528,27.000439 
z"/>
<path fill="#F6F5EF" opacity="1.000000" stroke="none" 
	d="
M82.053108,203.526276 
	C82.701775,203.064545 83.419281,202.925812 84.497971,202.733994 
	C84.781212,205.025314 83.951828,205.609253 82.053108,203.526276 
z"/>
<path fill="#F7F3EA" opacity="1.000000" stroke="none" 
	d="
M157.890961,49.729065 
	C157.032089,49.557816 156.063980,49.119583 155.040405,48.335266 
	C155.917191,48.480148 156.849457,48.971115 157.890961,49.729065 
z"/>
<path fill="#F6F5EF" opacity="1.000000" stroke="none" 
	d="
M54.580341,179.840271 
	C54.857960,180.139618 54.869064,180.320160 54.795280,180.758347 
	C53.940983,180.668442 53.171570,180.320908 52.402157,179.973373 
	C53.039379,179.889404 53.676601,179.805435 54.580341,179.840271 
z"/>
<path fill="#F6F5EF" opacity="1.000000" stroke="none" 
	d="
M67.548996,198.979340 
	C67.333000,198.473450 67.387199,197.912003 67.655685,197.155258 
	C67.853043,197.614563 67.836121,198.269196 67.548996,198.979340 
z"/>
<path fill="#F7F7EC" opacity="1.000000" stroke="none" 
	d="
M207.536438,133.389618 
	C207.652023,132.941986 207.934113,132.667572 208.234161,132.414413 
	C208.241882,132.407898 208.446014,132.634171 208.558563,132.751892 
	C208.274139,133.023132 207.989716,133.294373 207.536438,133.389618 
z"/>
<path fill="#F7F5EC" opacity="1.000000" stroke="none" 
	d="
M27.238426,122.104576 
	C26.249762,122.081985 25.509966,121.980881 24.407726,121.786705 
	C25.213745,121.594826 26.382204,121.496025 27.765839,121.627052 
	C27.816441,121.913277 27.651867,121.969673 27.238426,122.104576 
z"/>
<path fill="#F5F3EC" opacity="1.000000" stroke="none" 
	d="
M117.089928,210.878494 
	C117.271881,210.246124 117.805725,209.629974 118.664032,208.986786 
	C118.472939,209.604736 117.957375,210.249725 117.089928,210.878494 
z"/>
<path fill="#F6F5EF" opacity="1.000000" stroke="none" 
	d="
M49.955109,200.602112 
	C49.714806,200.208099 49.716579,199.816147 49.746723,199.426392 
	C49.747570,199.415451 50.051369,199.427948 50.213902,199.429520 
	C50.209652,199.821182 50.205402,200.212830 49.955109,200.602112 
z"/>
<path fill="#F6F5EF" opacity="1.000000" stroke="none" 
	d="
M66.198654,202.938858 
	C66.056938,202.398468 66.226524,201.851852 66.627113,201.129272 
	C66.742065,201.613083 66.626007,202.272873 66.198654,202.938858 
z"/>
<path fill="#F6F3E9" opacity="1.000000" stroke="none" 
	d="
M193.458557,123.514801 
	C193.382599,123.088196 193.466675,122.824707 193.550751,122.561218 
	C193.838715,122.855392 194.126678,123.149574 194.414642,123.443756 
	C194.149292,123.521812 193.883942,123.599869 193.458557,123.514801 
z"/>
<path fill="#F6F5EF" opacity="1.000000" stroke="none" 
	d="
M54.348618,183.312637 
	C54.565819,183.810837 54.627300,184.507431 54.577759,185.539917 
	C54.375458,185.087540 54.284176,184.299286 54.348618,183.312637 
z"/>
<path fill="#F5F0E3" opacity="1.000000" stroke="none" 
	d="
M146.692291,42.003399 
	C146.635925,42.466557 146.293335,42.942177 145.847870,43.692799 
	C145.965363,43.317154 146.185699,42.666508 146.692291,42.003399 
z"/>
<path fill="#F9F2E0" opacity="1.000000" stroke="none" 
	d="
M32.730598,75.493401 
	C32.071560,75.678619 31.172045,75.654648 30.118023,75.318062 
	C30.805717,75.098366 31.647921,75.191284 32.730598,75.493401 
z"/>
<path fill="#F7F3EA" opacity="1.000000" stroke="none" 
	d="
M173.686584,50.530457 
	C172.983383,50.769398 171.992493,50.769112 170.715240,50.527618 
	C171.418869,50.288017 172.408890,50.289623 173.686584,50.530457 
z"/>
<path fill="#F9F2E0" opacity="1.000000" stroke="none" 
	d="
M29.783916,74.073334 
	C29.207811,73.964806 29.041288,73.747612 28.973335,73.236237 
	C29.650339,73.168854 30.336054,73.313370 31.021767,73.457886 
	C30.709915,73.654251 30.398062,73.850601 29.783916,74.073334 
z"/>
<path fill="#F6F5EF" opacity="1.000000" stroke="none" 
	d="
M50.753754,177.989166 
	C50.589119,178.098221 50.423004,178.044662 50.256897,177.991119 
	C50.422024,177.936249 50.587151,177.881393 50.753754,177.989166 
z"/>
<path fill="#F7F7EC" opacity="1.000000" stroke="none" 
	d="
M204.273544,133.399536 
	C204.148285,133.557007 203.931671,133.579437 203.715073,133.601883 
	C203.870789,133.489410 204.026489,133.376953 204.273544,133.399536 
z"/>
<path fill="#F5F3E8" opacity="1.000000" stroke="none" 
	d="
M17.203560,85.740540 
	C17.579369,85.827003 17.943981,86.190369 18.313797,86.813950 
	C17.943453,86.721916 17.567907,86.369675 17.203560,85.740540 
z"/>
<path fill="#F9F2E0" opacity="1.000000" stroke="none" 
	d="
M36.415901,73.964050 
	C36.289005,74.266495 35.901344,74.592690 35.245987,74.918388 
	C35.370567,74.607857 35.762848,74.297829 36.415901,73.964050 
z"/>
<path fill="#F7F3EA" opacity="1.000000" stroke="none" 
	d="
M169.076889,50.504234 
	C168.901413,50.939747 168.654984,51.022476 168.186508,50.957993 
	C168.342682,50.683529 168.689850,50.463753 169.076889,50.504234 
z"/>
<path fill="#F7F5EC" opacity="1.000000" stroke="none" 
	d="
M23.108831,107.308838 
	C23.264549,107.270264 23.536076,107.461510 23.973257,107.839478 
	C23.828300,107.872002 23.523544,107.709488 23.108831,107.308838 
z"/>
<path fill="#F4F0E5" opacity="1.000000" stroke="none" 
	d="
M64.923004,17.824417 
	C64.664909,17.951632 64.444626,17.752193 64.245300,17.235674 
	C64.491241,17.110785 64.722763,17.303843 64.923004,17.824417 
z"/>
<path fill="#F5F3EC" opacity="1.000000" stroke="none" 
	d="
M90.003036,216.996063 
	C89.881630,216.856781 89.760223,216.717499 89.638809,216.578217 
	C89.722435,216.628189 89.806053,216.678162 89.944839,216.864075 
	C90.000000,217.000000 90.003036,216.996063 90.003036,216.996063 
z"/>
<path fill="#F5F3EC" opacity="1.000000" stroke="none" 
	d="
M89.998032,217.001526 
	C90.119194,217.144302 90.242332,217.285538 90.365479,217.426788 
	C90.279938,217.376511 90.194405,217.326248 90.055954,217.136017 
	C90.003036,216.996063 90.000000,217.000000 89.998032,217.001526 
z"/>
<path fill="#F6F3E9" opacity="1.000000" stroke="none" 
	d="
M196.956238,98.555801 
	C196.745911,98.733673 196.515350,98.607185 196.301529,98.144745 
	C196.490250,98.036148 196.696152,98.183693 196.956238,98.555801 
z"/>
<path fill="#F6F3E9" opacity="1.000000" stroke="none" 
	d="
M193.884872,96.347275 
	C193.949661,96.456459 193.612961,96.538040 193.612961,96.538040 
	C193.612961,96.538040 193.375916,96.285484 193.393646,96.112564 
	C193.570572,96.007683 193.706818,96.107162 193.884872,96.347275 
z"/>
<path fill="#F6F4EE" opacity="1.000000" stroke="none" 
	d="
M112.466080,35.446178 
	C112.524857,35.410488 112.407303,35.481869 112.466080,35.446178 
z"/>
<path fill="#F89721" opacity="1.000000" stroke="none" 
	d="
M19.708626,123.067368 
	C19.743467,123.297104 19.516783,123.538589 19.032776,123.797943 
	C18.999336,123.570251 19.223219,123.324684 19.708626,123.067368 
z"/>
<path fill="#F6F3E9" opacity="1.000000" stroke="none" 
	d="
M192.037689,95.219505 
	C192.045349,95.041748 192.234070,95.020691 192.706848,94.976517 
	C192.990906,94.953392 193.071640,95.272408 193.102844,95.433655 
	C192.802155,95.634163 192.497070,95.561264 192.037689,95.219505 
z"/>
<path fill="#F2F0E8" opacity="1.000000" stroke="none" 
	d="
M184.826965,158.927399 
	C184.606094,159.054596 184.283325,158.917862 183.832520,158.551666 
	C184.044693,158.435959 184.384888,158.549713 184.826965,158.927399 
z"/>
<path fill="#FDC40B" opacity="1.000000" stroke="none" 
	d="
M131.011658,64.984695 
	C140.045624,69.897766 148.330719,75.622711 152.625244,85.633743 
	C151.502747,85.996292 150.755615,85.992149 149.985107,85.691971 
	C149.641571,84.930420 149.321396,84.464905 148.964813,83.646973 
	C145.836044,76.835968 139.713318,73.717911 134.084229,70.207474 
	C125.702858,64.980652 116.253555,64.743904 106.704872,64.943481 
	C98.051270,65.124336 90.707481,68.741997 84.088631,73.618622 
	C79.008942,77.361221 74.117989,81.245026 70.903488,87.411697 
	C67.725464,93.508385 64.561913,99.088295 64.937317,106.203812 
	C65.226425,111.683701 64.927536,117.192368 65.045959,122.684883 
	C65.080360,124.280640 65.315887,126.038345 66.032822,127.425308 
	C69.827774,134.766968 73.615234,141.772888 80.091713,147.685562 
	C86.635315,153.659500 94.212769,157.037842 101.921242,158.554962 
	C113.293205,160.793076 125.064110,159.291504 135.383057,152.912888 
	C138.881882,150.750122 141.809509,147.663315 145.000427,145.000275 
	C145.002701,145.001770 145.011383,145.006104 145.386749,145.004807 
	C146.513763,145.005753 147.265396,145.007980 147.976562,145.355972 
	C142.805038,153.205551 135.164871,158.060257 127.094986,160.612854 
	C115.880203,164.160217 104.256203,166.032166 92.164879,161.513626 
	C84.711250,158.728180 78.103577,155.256058 72.527245,149.916214 
	C62.784187,140.586334 57.942108,129.270065 56.585510,115.506340 
	C54.937546,98.786537 61.304195,86.051872 72.273575,74.850388 
	C79.623466,67.344963 89.021706,63.017841 98.998421,59.972656 
	C100.742622,59.661839 102.486824,59.351013 104.899445,59.321560 
	C110.713387,60.066753 115.858902,60.530575 121.004425,60.994392 
	C121.440742,61.005798 121.877052,61.017208 122.710075,61.380623 
	C125.741737,62.816650 128.376694,63.900673 131.011658,64.984695 
z"/>
<path fill="#FBAC18" opacity="1.000000" stroke="none" 
	d="
M98.745834,59.698967 
	C89.021706,63.017841 79.623466,67.344963 72.273575,74.850388 
	C61.304195,86.051872 54.937546,98.786537 56.585510,115.506340 
	C57.942108,129.270065 62.784187,140.586334 72.527245,149.916214 
	C78.103577,155.256058 84.711250,158.728180 92.164879,161.513626 
	C104.256203,166.032166 115.880203,164.160217 127.094986,160.612854 
	C135.164871,158.060257 142.805038,153.205551 148.302963,145.350006 
	C149.105087,144.990738 149.540375,144.983170 149.986877,144.986786 
	C149.998108,144.997986 150.021591,145.020889 150.021591,145.020889 
	C150.249039,151.081787 145.297302,153.831696 141.479645,156.407196 
	C135.155151,160.673859 128.318802,164.966080 121.073433,166.868362 
	C113.446838,168.870743 104.978569,169.104156 97.074295,168.264084 
	C86.141510,167.102158 77.011108,161.361053 68.722023,153.971817 
	C53.555817,140.452026 49.395267,123.695152 51.627789,104.168510 
	C52.858990,93.399857 57.548447,84.735168 64.470177,77.000648 
	C70.906487,69.808556 78.225525,63.774902 88.108765,61.805923 
	C91.590179,61.112343 95.032875,60.224449 98.745834,59.698967 
z"/>
<path fill="#F6F5EF" opacity="1.000000" stroke="none" 
	d="
M47.003265,168.986511 
	C42.825500,167.714157 38.763023,167.061691 35.691925,171.491669 
	C35.808697,171.871445 35.866516,171.940063 35.601395,171.706573 
	C34.202045,172.950958 33.067814,174.428848 31.933582,175.906723 
	C31.933582,175.906723 31.464045,176.044846 31.219883,176.065674 
	C30.704800,174.539932 30.433874,172.993362 30.142143,170.841400 
	C34.109367,163.706665 40.274246,163.096893 47.005432,164.027115 
	C48.363888,164.759979 49.722340,165.492844 50.969017,166.545334 
	C49.572578,167.572144 48.287922,168.279327 47.003265,168.986511 
z"/>
<path fill="#FDC40B" opacity="1.000000" stroke="none" 
	d="
M153.001648,86.997566 
	C153.958908,87.982903 155.265015,88.804253 155.817627,89.979813 
	C159.846344,98.550125 161.866470,107.542587 160.721344,117.768967 
	C159.615112,120.977356 158.784576,123.484406 157.677811,125.724838 
	C157.355835,124.169930 157.028488,122.816208 157.310226,121.604057 
	C159.079681,113.991455 159.856674,106.403137 156.968323,98.898567 
	C155.803070,95.870987 154.337067,92.959160 153.003723,89.621002 
	C153.000229,88.497421 153.000946,87.747498 153.001648,86.997566 
z"/>
<path fill="#FEFEFE" opacity="1.000000" stroke="none" 
	d="
M47.263622,169.213989 
	C48.287922,168.279327 49.572578,167.572144 51.235714,166.754272 
	C53.143803,166.820358 54.673412,166.997147 56.630413,167.488312 
	C57.711857,167.462112 58.365910,167.121552 59.019966,166.781006 
	C59.450680,166.505844 59.881397,166.230667 60.887970,166.090271 
	C62.005436,167.217468 62.547050,168.209915 63.088665,169.202347 
	C62.748100,169.538864 62.407536,169.875381 61.507931,170.108551 
	C60.631817,169.669556 60.314739,169.333893 60.136032,168.944946 
	C60.183540,168.928589 60.092678,168.965469 59.739174,169.214142 
	C59.308205,170.528687 59.139870,171.631439 58.971539,172.734192 
	C58.524799,173.091064 58.078060,173.447952 57.370998,173.925079 
	C56.332687,174.031342 55.554699,174.017365 54.387611,174.002411 
	C54.394085,170.075745 51.544052,172.418991 49.812046,172.053986 
	C48.840107,171.221466 48.182045,170.331467 47.263622,169.213989 
z"/>
<path fill="#F9F7F1" opacity="1.000000" stroke="none" 
	d="
M184.749985,76.958618 
	C184.733215,77.434120 184.716431,77.909622 184.336548,78.805283 
	C184.299438,81.188461 184.625412,83.151482 184.951385,85.114502 
	C182.048492,84.336746 179.145599,83.558983 175.856384,82.677719 
	C180.401459,79.337784 181.347015,74.844566 181.326706,69.712189 
	C182.676193,72.017097 183.713089,74.487862 184.749985,76.958618 
z"/>
<path fill="#FC952B" opacity="1.000000" stroke="none" 
	d="
M150.540833,189.997253 
	C151.418182,192.713120 151.975006,195.419785 152.353806,198.151169 
	C152.608078,199.984711 152.610138,201.853226 152.725052,203.706100 
	C152.291718,203.746216 151.858383,203.786331 151.425049,203.826462 
	C149.357666,200.173737 147.290298,196.520996 145.049927,192.580078 
	C146.632812,191.527451 148.388672,190.763031 150.540833,189.997253 
z"/>
<path fill="#F09922" opacity="1.000000" stroke="none" 
	d="
M46.846657,163.716019 
	C40.274246,163.096893 34.109367,163.706665 30.039660,170.566803 
	C29.957983,170.897583 29.517694,171.029541 29.297501,171.095245 
	C28.961363,170.859970 28.685856,170.515884 28.753756,170.264603 
	C29.580999,167.203033 30.458719,164.155090 31.661671,161.051819 
	C32.000000,161.000000 32.002258,161.001770 32.002258,161.001770 
	C34.971096,161.348373 37.952583,161.613327 40.904305,162.070450 
	C42.854282,162.372452 44.761513,162.950470 46.846657,163.716019 
z"/>
<path fill="#FEFEFE" opacity="1.000000" stroke="none" 
	d="
M184.956940,85.438683 
	C184.625412,83.151482 184.299438,81.188461 184.242920,79.151474 
	C185.160904,79.594643 185.809433,80.111778 186.740601,80.760208 
	C187.906952,84.443504 188.790649,87.995499 189.680054,91.570419 
	C185.250092,93.055878 184.400604,92.570213 184.854858,88.059120 
	C184.873001,87.050972 184.917755,86.406914 184.956940,85.438683 
z"/>
<path fill="#FEFEFE" opacity="1.000000" stroke="none" 
	d="
M184.817688,76.502434 
	C183.713089,74.487862 182.676193,72.017097 181.391418,69.286972 
	C181.084656,67.948799 181.025787,66.869980 181.038239,65.390976 
	C182.193420,64.659386 183.277283,64.327988 184.709900,63.992493 
	C185.000885,68.007690 184.943130,72.026970 184.817688,76.502434 
z"/>
<path fill="#FBAC18" opacity="1.000000" stroke="none" 
	d="
M120.918793,60.608025 
	C115.858902,60.530575 110.713387,60.066753 105.283264,59.319809 
	C110.276833,59.431675 115.555000,59.826660 120.918793,60.608025 
z"/>
<path fill="#FBAC18" opacity="1.000000" stroke="none" 
	d="
M157.001617,133.003006 
	C157.081635,138.125748 154.739136,141.972092 150.368744,144.976868 
	C150.021591,145.020889 149.998108,144.997986 149.997574,144.617538 
	C150.995239,141.822647 151.993439,139.408188 152.995026,136.996307 
	C152.998444,136.998901 153.002441,137.002014 153.335907,136.954391 
	C154.780106,135.605515 155.890854,134.304260 157.001617,133.003006 
z"/>
<path fill="#FBAC18" opacity="1.000000" stroke="none" 
	d="
M157.954041,125.991463 
	C158.784576,123.484406 159.615112,120.977356 160.720779,118.235291 
	C159.916382,122.629440 158.836868,127.258598 157.386124,131.579346 
	C157.008728,130.512344 157.002579,129.753723 157.254761,128.786484 
	C157.660080,127.715721 157.807053,126.853592 157.954041,125.991463 
z"/>
<path fill="#EEA02B" opacity="1.000000" stroke="none" 
	d="
M103.809479,25.078152 
	C102.782326,27.435902 101.386345,29.799307 100.048050,32.547028 
	C96.639572,32.684261 96.676567,30.609781 98.342979,28.640572 
	C99.636673,27.111803 101.712486,26.244896 103.809479,25.078152 
z"/>
<path fill="#FDC40B" opacity="1.000000" stroke="none" 
	d="
M156.996429,128.995117 
	C157.002579,129.753723 157.008728,130.512344 157.029816,131.650848 
	C157.044739,132.030731 157.018814,132.516647 157.010223,132.759827 
	C155.890854,134.304260 154.780106,135.605515 153.333054,136.554611 
	C154.329971,133.800003 155.663193,131.397552 156.996429,128.995117 
z"/>
<path fill="#F6F5EF" opacity="1.000000" stroke="none" 
	d="
M63.414448,169.078659 
	C62.547050,168.209915 62.005436,167.217468 61.147743,166.063721 
	C61.587921,164.471817 62.344181,163.041245 63.100445,161.610672 
	C64.006432,162.216034 64.912422,162.821411 65.818413,163.426773 
	C65.125687,165.269501 64.432961,167.112244 63.414448,169.078659 
z"/>
<path fill="#F7F3EA" opacity="1.000000" stroke="none" 
	d="
M151.871490,56.298508 
	C153.346268,56.483444 154.693573,56.968121 156.040863,57.452793 
	C156.129257,57.785732 156.217651,58.118668 156.306030,58.451607 
	C154.363312,58.947147 152.420593,59.442688 150.057526,59.898552 
	C150.339447,58.771999 151.041718,57.685120 151.871490,56.298508 
z"/>
<path fill="#FBAC18" opacity="1.000000" stroke="none" 
	d="
M130.949005,64.630753 
	C128.376694,63.900673 125.741737,62.816650 123.037415,61.384453 
	C125.607475,62.116455 128.246902,63.196636 130.949005,64.630753 
z"/>
<path fill="#F29A1F" opacity="1.000000" stroke="none" 
	d="
M64.250145,42.258926 
	C64.530304,36.488537 67.720894,39.418480 70.424553,39.811478 
	C68.258011,40.738804 66.401085,41.533604 64.250145,42.258926 
z"/>
<path fill="#FED802" opacity="1.000000" stroke="none" 
	d="
M153.001465,86.748245 
	C153.000946,87.747498 153.000229,88.497421 152.619415,89.612457 
	C151.495697,88.647697 150.752090,87.317848 150.008484,85.987999 
	C150.755615,85.992149 151.502747,85.996292 152.624680,86.000351 
	C152.999481,86.000259 153.001266,86.498917 153.001465,86.748245 
z"/>
<path fill="#F7F3EA" opacity="1.000000" stroke="none" 
	d="
M148.730743,60.166527 
	C150.832367,60.393707 152.637878,60.717575 154.868500,61.076859 
	C152.821259,62.332047 150.318909,63.794258 148.730743,60.166527 
z"/>
<path fill="#F6F5EF" opacity="1.000000" stroke="none" 
	d="
M59.293171,172.784317 
	C59.139870,171.631439 59.308205,170.528687 59.738266,169.212967 
	C60.000000,169.000000 59.997665,168.998215 59.997665,168.998215 
	C60.314739,169.333893 60.631817,169.669556 61.264385,170.165466 
	C60.924850,171.161957 60.269829,171.998199 59.293171,172.784317 
z"/>
<path fill="#FEFEFE" opacity="1.000000" stroke="none" 
	d="
M27.046452,108.940155 
	C27.269936,109.669617 27.484760,110.420418 28.090572,112.537682 
	C26.217634,110.882568 25.266171,110.041763 24.287632,108.848312 
	C24.495937,108.324226 24.755375,108.272644 25.625452,108.598938 
	C26.499887,108.886475 26.787739,108.915985 27.075592,108.945496 
	C27.075592,108.945496 27.037790,108.961494 27.046452,108.940155 
z"/>
<path fill="#F7F3EA" opacity="1.000000" stroke="none" 
	d="
M151.602661,46.810246 
	C151.904510,48.394184 151.951920,50.288315 151.975952,52.650318 
	C151.751129,51.118938 151.549683,49.119690 151.602661,46.810246 
z"/>
<path fill="#F5F3EC" opacity="1.000000" stroke="none" 
	d="
M90.227570,195.694489 
	C89.990410,194.897049 89.995506,193.838913 89.999100,192.383621 
	C90.165741,191.937378 90.333893,191.888275 90.761612,191.879990 
	C90.837395,193.091797 90.653603,194.262787 90.227570,195.694489 
z"/>
<path fill="#F6F5EF" opacity="1.000000" stroke="none" 
	d="
M58.667755,166.811646 
	C58.365910,167.121552 57.711857,167.462112 57.019550,167.549652 
	C57.426048,167.145203 57.870800,166.993744 58.667755,166.811646 
z"/>
<path fill="#F29A1F" opacity="1.000000" stroke="none" 
	d="
M66.685577,36.900196 
	C66.992531,37.135422 66.989403,37.305721 66.984497,37.731335 
	C66.427650,37.770618 65.872604,37.554588 65.214905,37.043335 
	C65.533340,36.777161 65.954430,36.806213 66.685577,36.900196 
z"/>
<path fill="#F7F3EA" opacity="1.000000" stroke="none" 
	d="
M161.378174,55.260902 
	C161.466034,54.930714 161.818130,54.493767 162.463806,53.992554 
	C162.385742,54.336906 162.014099,54.745525 161.378174,55.260902 
z"/>
<path fill="#F7F5EC" opacity="1.000000" stroke="none" 
	d="
M26.941040,108.703583 
	C26.787739,108.915985 26.499887,108.886475 25.800217,108.712814 
	C25.861094,108.532990 26.333792,108.497330 26.941040,108.703583 
z"/>
<path fill="#F29A1F" opacity="1.000000" stroke="none" 
	d="
M64.192406,36.065502 
	C64.423241,35.978844 64.734573,36.159519 65.127258,36.607101 
	C64.896706,36.693615 64.584801,36.513222 64.192406,36.065502 
z"/>
<path fill="#F7F3E8" opacity="1.000000" stroke="none" 
	d="
M45.022438,144.030701 
	C45.039494,144.049042 45.132336,143.639572 45.132336,143.639572 
	C45.132336,143.639572 45.168293,143.896240 45.066525,143.939667 
	C44.964756,143.983093 45.005383,144.012375 45.022438,144.030701 
z"/>
<path fill="#FEFEFE" opacity="1.000000" stroke="none" 
	d="
M48.057812,48.261826 
	C48.017883,47.996284 48.508816,48.004131 48.754303,48.002483 
	C48.997807,48.187405 48.995831,48.373974 48.976933,48.841068 
	C48.672588,48.923519 48.385162,48.725441 48.057812,48.261826 
z"/>
<path fill="#F09922" opacity="1.000000" stroke="none" 
	d="
M31.999107,160.998779 
	C32.091839,160.962448 32.185459,160.927353 32.140671,160.947021 
	C32.002258,161.001770 32.000000,161.000000 31.999107,160.998779 
z"/>
<path fill="#919191" opacity="1.000000" stroke="none" 
	d="
M190.005066,177.886017 
	C186.940552,178.845718 183.749039,179.745865 180.515900,179.935120 
	C176.092590,180.194046 171.637634,179.912567 167.133270,179.471069 
	C172.375900,181.783096 176.624664,177.139709 181.499619,177.021027 
	C184.280624,176.953323 187.072510,177.331940 190.005066,177.886017 
z"/>
<path fill="#BFC0C0" opacity="1.000000" stroke="none" 
	d="
M157.917511,197.980438 
	C157.720612,197.808914 157.609818,197.614700 157.499039,197.420502 
	C157.631134,197.433990 157.763229,197.447479 157.943909,197.620499 
	C157.992493,197.780029 158.003616,197.957779 157.917511,197.980438 
z"/>
<path fill="#FEFEFE" opacity="1.000000" stroke="none" 
	d="
M29.810417,94.726601 
	C28.366697,94.853401 27.168821,94.794868 25.970947,94.736328 
	C26.000896,94.459534 26.030846,94.182732 26.060795,93.905930 
	C27.392616,94.117706 28.724440,94.329483 29.810417,94.726601 
z"/>
<path fill="#F89721" opacity="1.000000" stroke="none" 
	d="
M87.795273,189.653442 
	C88.137276,189.950455 88.268936,190.193802 88.400597,190.437134 
	C88.149872,190.509827 87.899147,190.582504 87.648422,190.655182 
	C87.627258,190.303360 87.606094,189.951569 87.795273,189.653442 
z"/>
<path fill="#F5F3EC" opacity="1.000000" stroke="none" 
	d="
M86.607117,192.133163 
	C86.083344,192.422379 85.205261,192.679703 83.960403,192.900024 
	C84.480019,192.609116 85.366409,192.355179 86.607117,192.133163 
z"/>
<path fill="#F7F3EA" opacity="1.000000" stroke="none" 
	d="
M157.118668,52.727242 
	C157.219330,52.247845 157.360260,51.996246 157.501205,51.744648 
	C157.641708,51.995956 157.946274,52.308533 157.881119,52.483017 
	C157.800079,52.700001 157.413544,52.802883 157.118668,52.727242 
z"/>
<path fill="#8A8B8B" opacity="1.000000" stroke="none" 
	d="
M31.899443,176.216034 
	C33.067814,174.428848 34.202045,172.950958 35.645714,171.699585 
	C34.984261,174.023926 34.013367,176.121780 32.972069,178.556885 
	C32.556210,178.104538 32.210754,177.314957 31.899443,176.216034 
z"/>
<path fill="#FEE202" opacity="1.000000" stroke="none" 
	d="
M149.985107,85.691971 
	C150.752090,87.317848 151.495697,88.647697 152.623627,89.986099 
	C154.337067,92.959160 155.803070,95.870987 156.968323,98.898567 
	C159.856674,106.403137 159.079681,113.991455 157.310226,121.604057 
	C157.028488,122.816208 157.355835,124.169930 157.677811,125.724838 
	C157.807053,126.853592 157.660080,127.715721 157.254761,128.786484 
	C155.663193,131.397552 154.329971,133.800003 152.999603,136.602234 
	C153.002441,137.002014 152.998444,136.998901 152.648438,137.032532 
	C149.869431,139.712799 147.440399,142.359451 145.011383,145.006104 
	C145.011383,145.006104 145.002701,145.001770 144.614441,145.000641 
	C142.742981,145.576294 141.217728,146.064606 139.784531,146.746445 
	C135.501755,148.783951 131.432938,152.079926 126.959938,152.752640 
	C114.961655,154.557144 102.838211,155.734268 91.856476,148.025040 
	C84.322891,142.736420 78.739594,135.640335 75.378464,127.607613 
	C70.978928,117.093246 72.298737,105.896324 76.387695,95.206917 
	C77.082001,93.391853 77.586349,91.383835 78.726753,89.881035 
	C83.112213,84.101982 88.375740,79.564941 94.470955,75.255089 
	C108.340195,65.448334 133.869904,70.747238 144.588074,81.183205 
	C145.812408,82.375313 147.518509,83.072647 149.001221,83.999390 
	C149.321396,84.464905 149.641571,84.930420 149.985107,85.691971 
M149.943573,95.101181 
	C149.943573,95.101181 149.868179,95.147575 149.891235,94.397224 
	C148.291351,92.564011 148.887497,88.652611 144.998062,89.030930 
	C144.998062,89.030930 144.899216,89.127769 144.955978,88.379906 
	C141.972153,85.917801 138.988342,83.455696 135.891388,80.293823 
	C130.105896,74.715492 117.347702,74.053177 110.184875,79.001534 
	C104.929214,77.886223 103.537270,83.184792 100.587143,85.434265 
	C96.458382,88.582443 92.372963,93.213455 90.827057,98.030952 
	C87.439713,108.586906 86.516747,119.519615 95.483719,128.538269 
	C95.946526,129.003738 96.495064,129.449432 96.779785,130.016708 
	C100.960587,138.346527 108.965958,140.424789 117.021126,141.869431 
	C121.664635,142.702209 126.479439,143.819321 131.112518,140.202026 
	C134.114349,137.858337 138.812592,137.706482 141.858047,135.395950 
	C149.897400,129.296600 152.845276,120.141098 154.747452,110.674858 
	C154.890533,109.962860 153.276962,108.897873 152.278595,107.243172 
	C152.283600,106.465050 152.288605,105.686928 152.685471,104.490952 
	C152.462311,103.659393 152.239151,102.827835 151.702423,101.438759 
	C151.450623,100.638634 151.198822,99.838509 151.447495,98.674461 
	C150.919296,97.471222 150.391098,96.267982 149.943573,95.101181 
z"/>
<path fill="#FED802" opacity="1.000000" stroke="none" 
	d="
M148.964813,83.646973 
	C147.518509,83.072647 145.812408,82.375313 144.588074,81.183205 
	C133.869904,70.747238 108.340195,65.448334 94.470955,75.255089 
	C88.375740,79.564941 83.112213,84.101982 78.726753,89.881035 
	C77.586349,91.383835 77.082001,93.391853 76.387695,95.206917 
	C72.298737,105.896324 70.978928,117.093246 75.378464,127.607613 
	C78.739594,135.640335 84.322891,142.736420 91.856476,148.025040 
	C102.838211,155.734268 114.961655,154.557144 126.959938,152.752640 
	C131.432938,152.079926 135.501755,148.783951 139.784531,146.746445 
	C141.217728,146.064606 142.742981,145.576294 144.612167,144.999146 
	C141.809509,147.663315 138.881882,150.750122 135.383057,152.912888 
	C125.064110,159.291504 113.293205,160.793076 101.921242,158.554962 
	C94.212769,157.037842 86.635315,153.659500 80.091713,147.685562 
	C73.615234,141.772888 69.827774,134.766968 66.032822,127.425308 
	C65.315887,126.038345 65.080360,124.280640 65.045959,122.684883 
	C64.927536,117.192368 65.226425,111.683701 64.937317,106.203812 
	C64.561913,99.088295 67.725464,93.508385 70.903488,87.411697 
	C74.117989,81.245026 79.008942,77.361221 84.088631,73.618622 
	C90.707481,68.741997 98.051270,65.124336 106.704872,64.943481 
	C116.253555,64.743904 125.702858,64.980652 134.084229,70.207474 
	C139.713318,73.717911 145.836044,76.835968 148.964813,83.646973 
z"/>
<path fill="#FDCC0A" opacity="1.000000" stroke="none" 
	d="
M145.386749,145.004807 
	C147.440399,142.359451 149.869431,139.712799 152.645035,137.029938 
	C151.993439,139.408188 150.995239,141.822647 149.986343,144.606354 
	C149.540375,144.983170 149.105087,144.990738 148.343414,145.004242 
	C147.265396,145.007980 146.513763,145.005753 145.386749,145.004807 
z"/>
<path fill="#F6F5EF" opacity="1.000000" stroke="none" 
	d="
M60.000908,169.001175 
	C60.092678,168.965469 60.183540,168.928589 60.136036,168.944946 
	C59.997665,168.998215 60.000000,169.000000 60.000908,169.001175 
z"/>
<path fill="#FFF589" opacity="1.000000" stroke="none" 
	d="
M152.293610,104.908806 
	C152.288605,105.686928 152.283600,106.465050 152.250885,108.026344 
	C150.938065,124.522530 137.175980,134.288391 121.198830,129.353882 
	C108.388260,125.397339 102.690315,110.556366 108.298233,97.432770 
	C113.052650,86.306519 128.510376,81.075378 139.534973,86.816818 
	C141.257156,87.713684 143.107910,88.363640 144.899216,89.127769 
	C144.899216,89.127769 144.998062,89.030930 144.973785,89.410049 
	C146.589081,91.575310 148.228638,93.361443 149.868179,95.147568 
	C149.868179,95.147575 149.943573,95.101181 149.870514,95.438904 
	C150.180649,96.863876 150.563828,97.951126 150.947021,99.038383 
	C151.198822,99.838509 151.450623,100.638634 151.838943,102.086212 
	C152.081512,103.458710 152.187561,104.183754 152.293610,104.908806 
z"/>
<path fill="#FEF005" opacity="1.000000" stroke="none" 
	d="
M144.927597,88.753838 
	C143.107910,88.363640 141.257156,87.713684 139.534973,86.816818 
	C128.510376,81.075378 113.052650,86.306519 108.298233,97.432770 
	C102.690315,110.556366 108.388260,125.397339 121.198830,129.353882 
	C137.175980,134.288391 150.938065,124.522530 152.351562,108.403244 
	C153.276962,108.897873 154.890533,109.962860 154.747452,110.674858 
	C152.845276,120.141098 149.897400,129.296600 141.858047,135.395950 
	C138.812592,137.706482 134.114349,137.858337 131.112518,140.202026 
	C126.479439,143.819321 121.664635,142.702209 117.021126,141.869431 
	C108.965958,140.424789 100.960587,138.346527 96.779785,130.016708 
	C96.495064,129.449432 95.946526,129.003738 95.483719,128.538269 
	C86.516747,119.519615 87.439713,108.586906 90.827057,98.030952 
	C92.372963,93.213455 96.458382,88.582443 100.587143,85.434265 
	C103.537270,83.184792 104.929214,77.886223 110.842636,79.264572 
	C114.244812,79.351738 117.015099,78.851662 119.728165,79.068321 
	C125.170158,79.502899 130.580887,80.329063 136.004517,80.993591 
	C138.988342,83.455696 141.972153,85.917801 144.927597,88.753838 
z"/>
<path fill="#FEE901" opacity="1.000000" stroke="none" 
	d="
M135.947952,80.643707 
	C130.580887,80.329063 125.170158,79.502899 119.728165,79.068321 
	C117.015099,78.851662 114.244812,79.351738 111.250046,79.264618 
	C117.347702,74.053177 130.105896,74.715492 135.947952,80.643707 
z"/>
<path fill="#FEF005" opacity="1.000000" stroke="none" 
	d="
M149.879700,94.772400 
	C148.228638,93.361443 146.589081,91.575310 144.913757,89.444427 
	C148.887497,88.652611 148.291351,92.564011 149.879700,94.772400 
z"/>
<path fill="#FEF005" opacity="1.000000" stroke="none" 
	d="
M151.197266,98.856422 
	C150.563828,97.951126 150.180649,96.863876 149.830170,95.420685 
	C150.391098,96.267982 150.919296,97.471222 151.197266,98.856422 
z"/>
<path fill="#FEF005" opacity="1.000000" stroke="none" 
	d="
M152.489532,104.699875 
	C152.187561,104.183754 152.081512,103.458710 151.995728,102.364967 
	C152.239151,102.827835 152.462311,103.659393 152.489532,104.699875 
z"/>
</svg>