<svg version="1.1" id="Layer_1" xmlns="http://www.w3.org/2000/svg" xmlns:xlink="http://www.w3.org/1999/xlink" x="0px" y="0px"
	 width="100%" viewBox="0 0 184 274" enable-background="new 0 0 184 274" xml:space="preserve">
<path fill="#FEFEFD" opacity="1.000000" stroke="none" 
	d="
M92.000000,1.000000 
	C122.985161,1.000000 153.970322,1.000000 184.977753,1.000000 
	C184.977753,92.274788 184.977753,183.549576 184.977753,274.912170 
	C123.754677,274.912170 62.509182,274.912170 1.131845,274.912170 
	C1.131845,183.666794 1.131845,92.333427 1.131845,1.000000 
	C30.757524,1.000000 60.410103,1.000000 90.547073,1.251950 
	C91.189247,1.770386 91.347031,2.036874 91.504822,2.303360 
	C91.669876,1.868906 91.834938,1.434453 92.000000,1.000000 
M119.307312,82.904518 
	C119.194283,82.925323 119.081245,82.946136 118.522934,82.964485 
	C118.522934,82.964485 118.076218,82.970665 117.576286,82.794777 
	C117.390472,82.504707 117.204659,82.214638 116.817902,81.484512 
	C116.610489,81.211716 116.336494,81.056236 115.529854,80.924911 
	C115.186005,80.845024 114.966225,80.635185 114.924759,79.571281 
	C113.670151,78.025574 112.415535,76.479858 111.050270,74.950226 
	C111.050270,74.950226 111.056015,74.838554 110.892021,74.445763 
	C110.728951,74.196289 110.503555,74.032700 109.598312,73.706169 
	C108.408089,72.442345 107.217857,71.178528 105.916618,69.468811 
	C105.752319,69.187813 105.512070,69.008636 105.072510,68.892632 
	C105.072510,68.892632 105.116173,68.770950 105.252525,68.109634 
	C108.620644,64.354019 106.608040,62.410595 102.292854,60.695148 
	C101.802422,58.949665 101.584198,57.064106 100.771362,55.484539 
	C98.161003,50.411945 95.273033,45.482330 92.654823,40.413532 
	C92.305840,39.737904 92.894791,38.577805 93.644211,38.011566 
	C95.738396,38.994545 97.832573,39.977524 100.271790,41.479565 
	C100.970108,41.797699 101.668427,42.115833 103.658241,43.022335 
	C102.167976,39.237457 101.115807,36.565212 100.086418,33.451115 
	C100.086418,33.451115 99.910385,33.045197 99.998520,32.260803 
	C100.043457,31.219563 100.088402,30.178320 100.730568,28.860306 
	C102.500496,27.301355 104.270416,25.742403 106.586769,24.031637 
	C106.781525,23.722584 106.976280,23.413532 107.203224,23.130665 
	C107.203224,23.130665 107.244225,23.138145 107.869667,22.917067 
	C108.463593,22.078695 109.057510,21.240326 109.526360,20.578510 
	C104.778458,19.467777 100.347359,18.431156 95.808281,16.654032 
	C95.458954,15.466438 95.109634,14.278845 95.169701,12.874999 
	C94.817123,12.579481 94.464546,12.283963 93.923538,11.621394 
	C93.923538,11.621394 93.909332,11.209048 93.935562,10.546960 
	C93.582870,10.042566 93.230171,9.538172 92.317932,8.672560 
	C91.481026,8.604860 90.011978,8.263273 89.904396,8.511572 
	C88.751320,11.172853 87.813393,13.927349 86.098625,16.971493 
	C81.521622,18.198967 76.944618,19.426439 71.612518,20.856417 
	C73.117409,21.958582 73.982605,22.592237 75.182747,23.807158 
	C77.075104,25.250368 78.967468,26.693579 81.142654,28.817909 
	C80.533165,33.281910 79.923676,37.745907 79.218910,42.907730 
	C81.075684,41.974377 82.033997,41.492657 83.632896,41.336830 
	C84.490196,43.004570 85.347496,44.672310 86.179703,47.056129 
	C82.813736,52.367817 79.447769,57.679504 75.497940,63.328533 
	C74.091599,64.624062 72.685257,65.919586 70.776703,67.677750 
	C72.953636,67.967659 74.361092,68.155090 76.823112,68.482956 
	C72.410141,71.620171 68.931427,74.093216 64.725372,77.083328 
	C67.256393,77.083328 68.847328,77.083328 69.328690,77.083328 
	C67.115494,79.710213 64.511772,82.800613 61.247593,86.125526 
	C59.220325,87.933594 57.193058,89.741661 54.327484,92.297394 
	C57.183262,92.059502 58.886829,91.917587 61.202915,91.724655 
	C59.854752,93.663383 58.655392,95.185509 57.743759,96.863914 
	C57.553215,97.214722 58.424438,98.142227 59.077396,99.081131 
	C59.077396,99.081131 59.345913,99.360725 59.285343,99.967010 
	C59.643013,100.620277 60.000683,101.273552 59.937344,102.447029 
	C59.626274,103.019455 59.315205,103.591873 58.430584,104.481888 
	C55.319473,107.336281 52.208359,110.190681 48.435593,113.008591 
	C46.717552,113.906975 44.999512,114.805351 43.226566,115.732437 
	C44.567398,117.348839 45.593170,118.585434 46.316360,120.335236 
	C45.578594,120.983414 44.840828,121.631599 43.698765,121.665398 
	C42.300552,121.892792 40.902340,122.120178 39.504135,122.347572 
	C40.131611,123.285088 40.759087,124.222603 41.140911,125.729965 
	C40.689342,126.136429 40.237770,126.542892 39.371841,127.134293 
	C39.116997,127.335991 38.984882,127.599281 38.866489,128.429443 
	C38.592899,128.626694 38.319309,128.823959 37.555470,129.018372 
	C37.436710,129.367706 37.317951,129.717041 37.070515,130.594879 
	C36.951336,130.731522 36.832157,130.868149 36.334156,131.152786 
	C36.100128,131.326218 35.973835,131.558304 35.731045,132.573608 
	C35.821987,134.405594 35.912930,136.237579 36.230976,138.688782 
	C37.645168,138.718369 39.086185,138.593231 40.464081,138.832153 
	C41.376701,138.990372 42.198853,139.670395 42.876823,140.632843 
	C42.361595,141.134262 41.846371,141.635681 40.750622,142.336594 
	C40.693439,142.709946 40.636261,143.083298 40.474983,143.479843 
	C40.474983,143.479843 40.453621,143.584335 39.880997,143.407333 
	C39.579147,143.871735 39.277298,144.336136 38.438160,145.234665 
	C35.560635,150.056747 30.596136,153.706146 29.973255,160.550308 
	C28.917856,162.856461 28.209435,165.425827 26.713463,167.397736 
	C25.083914,169.545731 22.723722,171.139404 20.004299,172.987564 
	C19.376055,173.577728 18.747808,174.167877 18.119564,174.758041 
	C19.140657,175.523605 20.161751,176.289169 21.511204,177.300919 
	C21.456284,177.927017 21.348312,179.157928 21.301771,179.688507 
	C23.604652,181.146896 25.411264,182.291000 27.219170,183.778473 
	C27.219170,183.778473 26.956638,183.999756 26.370712,184.077667 
	C26.057562,184.398621 25.744411,184.719559 25.431263,185.040512 
	C25.936914,185.360931 26.442564,185.681351 27.140232,186.671143 
	C26.313623,188.021912 25.487015,189.372696 24.770662,190.795197 
	C24.770662,190.795197 24.753294,190.664810 24.105293,190.792755 
	C23.186840,192.196594 22.268387,193.600418 20.921650,195.632385 
	C20.212313,196.560486 19.502977,197.488602 18.432226,198.889587 
	C20.763235,199.071732 22.273449,199.189758 23.099165,199.254272 
	C22.003531,203.271271 20.958925,207.101166 19.240641,211.209061 
	C16.654177,215.187836 14.067712,219.166611 11.007065,223.874817 
	C14.548482,223.589203 17.984303,223.312088 22.678921,222.933472 
	C21.019104,224.110199 20.428347,224.417694 19.988375,224.871399 
	C19.524128,225.350174 19.203724,225.968460 18.032221,227.672089 
	C24.133873,226.307739 29.003798,225.218796 35.189575,223.835617 
	C33.084023,226.100769 31.841658,227.437286 30.599295,228.773819 
	C30.756872,229.289764 30.914448,229.805695 31.072025,230.321640 
	C37.986256,228.413147 44.900486,226.504669 51.786160,224.604065 
	C51.281086,225.323532 50.774361,226.045364 49.530163,227.817703 
	C53.241825,226.718750 55.833561,225.951401 58.805374,225.071503 
	C58.697083,226.139648 58.605217,227.045776 58.475513,228.325119 
	C61.418938,227.889389 63.951664,227.514450 66.553841,227.129242 
	C66.185944,228.306030 65.828476,229.449478 65.141907,231.645645 
	C71.244499,229.342636 76.550568,227.340225 82.044327,225.266983 
	C81.710091,226.698975 81.364487,228.179642 80.884430,230.236343 
	C82.949089,229.751724 84.469391,229.394897 86.077827,229.910446 
	C85.983917,231.954239 85.890007,233.998016 85.350342,236.657883 
	C84.858162,239.425537 84.365982,242.193176 83.287910,245.233643 
	C82.978058,247.060822 82.747704,248.906174 82.335197,250.709869 
	C81.949799,252.395020 81.371056,254.035980 80.244560,255.999725 
	C78.368828,258.816101 76.493095,261.632446 73.901375,265.523865 
	C77.662262,265.773865 80.335381,265.951538 83.112198,266.684998 
	C84.033630,266.472260 84.955063,266.259521 86.258850,266.764496 
	C93.890503,269.496948 100.996117,268.089233 108.073402,264.414551 
	C106.982796,260.836578 105.781776,257.741180 105.110054,254.534851 
	C103.061569,244.756866 101.217041,234.936127 100.015778,225.244781 
	C100.634903,226.205933 101.254021,227.167084 102.345406,228.861389 
	C102.889656,226.633713 103.245941,225.175415 103.559349,223.892578 
	C108.553055,225.210464 113.159187,226.426071 117.765312,227.641678 
	C118.175354,226.986435 118.585396,226.331192 118.995445,225.675949 
	C117.681664,224.830429 116.367882,223.984894 115.821533,223.041168 
	C119.444397,224.030212 123.067261,225.019257 127.631882,226.265396 
	C125.454323,223.731598 124.058083,222.106918 121.822609,219.505737 
	C126.207268,221.505676 129.299316,222.916031 132.391357,224.326385 
	C132.566589,224.000885 132.741821,223.675400 132.917053,223.349899 
	C132.519882,222.658371 132.122711,221.966843 132.134644,220.790070 
	C132.250366,220.612946 132.366089,220.435837 133.230515,220.366867 
	C139.728317,222.206497 146.226120,224.046127 152.723923,225.885773 
	C152.930862,225.315216 153.137802,224.744659 153.344742,224.174118 
	C151.929962,222.971024 150.515182,221.767944 148.618149,220.154770 
	C155.037628,220.988113 160.741501,221.728561 166.445374,222.469009 
	C166.479919,222.085342 166.514465,221.701660 166.549011,221.317993 
	C165.132797,220.399521 163.716583,219.481033 162.018463,218.379730 
	C166.504593,218.379730 170.378998,218.379730 174.253418,218.379730 
	C168.604599,213.309967 163.099884,208.780701 161.989944,200.306290 
	C160.995667,198.138275 160.001389,195.970276 159.695053,193.998413 
	C160.739197,194.276093 161.783325,194.553772 162.827469,194.831467 
	C163.163788,194.378021 163.500107,193.924576 163.836426,193.471115 
	C162.893799,192.968674 161.951172,192.466217 160.875626,191.403824 
	C160.722351,191.288467 160.569061,191.173126 160.295532,190.591690 
	C159.929306,190.308716 159.563080,190.025757 159.084244,189.875412 
	C159.084244,189.875412 159.239044,189.795990 159.106689,189.195709 
	C158.413239,188.464813 157.719772,187.733902 156.839981,186.335358 
	C152.399994,183.621490 154.623367,178.643799 153.720200,174.641663 
	C155.560028,174.641663 157.399872,174.641663 160.527481,174.641663 
	C157.271149,172.003021 155.164764,170.296188 153.058395,168.589355 
	C153.207962,168.321350 153.357529,168.053329 153.507095,167.785324 
	C155.952545,168.500885 158.397995,169.216446 160.843445,169.932022 
	C161.039764,169.561569 161.236069,169.191116 161.432373,168.820679 
	C159.627625,167.265503 157.822891,165.710342 155.951797,163.770111 
	C155.951797,163.770111 155.600372,163.599258 155.567505,163.587448 
	C155.567505,163.587448 155.590393,163.557678 155.275253,162.950119 
	C152.821579,159.105728 150.436783,155.214951 147.890518,151.432892 
	C146.136169,148.827087 144.158142,146.371887 142.231430,143.141174 
	C140.102707,140.748688 137.973984,138.356201 136.011368,135.345978 
	C135.193237,133.964233 134.375092,132.582489 133.249557,130.681580 
	C136.595474,131.857361 139.582214,132.906906 143.350601,134.231140 
	C142.533066,132.407516 142.037048,131.301086 141.550491,130.215759 
	C142.492355,130.067535 143.207458,129.954987 144.916473,129.686020 
	C140.884857,125.364906 137.430496,121.662498 133.776642,117.339699 
	C132.221756,115.775986 130.666885,114.212273 129.663589,112.295227 
	C130.713776,111.955276 131.763977,111.615334 132.814163,111.275391 
	C132.813843,110.874390 132.813522,110.473389 132.813202,110.072395 
	C131.583710,109.694176 130.354202,109.315956 129.044739,108.959846 
	C129.044739,108.959846 129.057083,108.877800 129.043579,108.453453 
	C129.043579,108.453453 129.030411,108.029091 129.304352,107.901695 
	C129.193237,107.924522 129.082108,107.947342 128.461960,107.975426 
	C128.292526,107.990868 128.123093,108.006302 127.327766,107.858826 
	C126.242058,106.835854 125.156349,105.812881 123.995934,104.197304 
	C123.564781,103.867188 123.133636,103.537079 122.828888,103.167793 
	C122.828888,103.167793 122.794052,103.295464 122.722809,102.714684 
	C122.234619,102.444931 121.746437,102.175179 121.008621,101.941299 
	C121.008621,101.941299 120.784431,102.056839 120.707848,101.531921 
	C120.433975,101.089287 120.160095,100.646645 120.189621,99.549469 
	C121.086723,98.437401 121.953415,97.298965 122.888985,96.220253 
	C123.946777,95.000610 125.066399,93.834579 126.159134,92.645241 
	C125.635544,92.193352 125.111946,91.741470 124.588356,91.289581 
	C123.719574,92.206757 122.850792,93.123932 121.415939,93.879898 
	C120.931541,93.280502 120.447136,92.681114 119.988739,91.366829 
	C119.999344,90.651489 120.009956,89.936142 120.666916,89.105515 
	C121.100143,89.043190 121.533379,88.980858 122.305237,89.413872 
	C123.005341,89.099007 123.705444,88.784142 124.405540,88.469269 
	C123.506836,88.021843 122.608139,87.574409 121.214417,86.778053 
	C120.486061,85.824226 119.757706,84.870392 119.035629,83.474197 
	C119.035629,83.474197 119.032974,83.031815 119.307312,82.904518 
M19.845961,183.508926 
	C19.422531,183.207245 18.999102,182.905579 18.575670,182.603897 
	C18.463621,183.048981 18.351570,183.494064 18.239521,183.939148 
	C18.735609,183.993469 19.231695,184.047791 19.845961,183.508926 
M125.709106,100.563431 
	C125.994789,100.291275 126.280479,100.019127 126.566170,99.746979 
	C126.452736,99.628464 126.247086,99.400566 126.239174,99.407234 
	C125.937897,99.661194 125.654778,99.936684 125.709106,100.563431 
M93.260895,4.814248 
	C93.375999,4.972886 93.491112,5.131525 93.606216,5.290163 
	C93.582870,5.069299 93.559525,4.848435 93.260895,4.814248 
M33.484653,128.589615 
	C33.484653,128.589615 33.417675,128.477005 33.484653,128.589615 
M18.585398,180.517487 
	C18.585398,180.517487 18.476852,180.581879 18.585398,180.517487 
z"/>
<path fill="#FBFAEE" opacity="1.000000" stroke="none" 
	d="
M91.750000,1.000000 
	C91.834938,1.434453 91.669876,1.868906 91.504822,2.303360 
	C91.347031,2.036874 91.189247,1.770386 91.015732,1.251950 
	C91.000000,1.000000 91.500000,1.000000 91.750000,1.000000 
z"/>
<path fill="#038204" opacity="1.000000" stroke="none" 
	d="
M159.007111,193.802277 
	C160.001389,195.970276 160.995667,198.138275 162.016678,201.021103 
	C160.880478,202.599670 159.801956,203.635071 158.523422,204.263672 
	C157.738907,204.649368 156.018356,204.078140 155.791565,204.505829 
	C153.347290,209.115417 150.582214,205.965591 147.931335,204.959641 
	C146.496582,204.415176 145.102814,203.762680 143.690567,203.158920 
	C143.512466,203.410797 143.334366,203.662674 143.156281,203.914551 
	C145.204041,206.905884 147.251801,209.897217 149.299561,212.888565 
	C148.944092,213.375763 148.588608,213.862961 148.233139,214.350159 
	C144.027802,213.907700 139.826004,213.425537 135.614777,213.048630 
	C134.457245,212.945023 133.221405,212.969116 132.110794,213.267242 
	C130.529419,213.691757 129.032104,214.925293 127.496063,214.930191 
	C122.803627,214.945221 118.109840,214.537994 112.877304,214.267151 
	C113.329750,216.562927 113.670654,218.292709 113.629852,219.971039 
	C107.418716,217.233459 101.589294,214.547333 95.398750,211.694809 
	C93.876503,213.723251 92.012619,216.451172 89.866508,218.935242 
	C89.107315,219.813980 87.306328,220.826447 86.606827,220.487228 
	C85.481834,219.941696 84.563751,218.428192 84.132591,217.132523 
	C83.613098,215.571426 83.693733,213.810608 83.514587,212.136246 
	C82.678902,211.576309 81.843216,211.016373 81.007530,210.456436 
	C79.953575,212.340042 79.230537,214.562164 77.750023,216.009399 
	C76.347481,217.380386 74.150688,217.938843 72.303192,218.854645 
	C71.540421,216.991119 70.713974,215.150146 70.042992,213.254135 
	C69.729607,212.368622 69.716988,211.376678 69.285774,208.644501 
	C64.651588,212.653168 60.886650,215.909927 56.678345,219.550201 
	C56.678345,215.579147 56.678345,212.723557 56.678345,210.055969 
	C49.490997,213.307083 42.417946,216.506500 34.286602,220.184631 
	C35.928802,215.502258 36.945515,212.603302 38.287769,208.776154 
	C33.150753,211.433640 29.219633,213.467300 25.288511,215.500961 
	C24.973717,215.095596 24.658924,214.690231 24.344130,214.284866 
	C25.527266,211.797562 26.710402,209.310242 27.893538,206.822937 
	C27.652742,206.592987 27.411947,206.363022 27.171150,206.133072 
	C24.752209,207.732391 22.333265,209.331726 19.914320,210.931061 
	C20.958925,207.101166 22.003531,203.271271 23.099165,199.254272 
	C22.273449,199.189758 20.763235,199.071732 18.432226,198.889587 
	C19.502977,197.488602 20.212313,196.560486 21.486139,195.309357 
	C22.951517,193.545807 23.852407,192.105316 24.753296,190.664810 
	C24.753294,190.664810 24.770662,190.795197 25.088352,190.823822 
	C26.830984,189.839935 28.134909,188.538498 29.707968,187.879623 
	C32.364376,186.766998 35.191204,186.061234 38.034031,185.524628 
	C40.833241,190.251068 42.387192,190.274307 46.104607,186.148331 
	C47.313416,187.583557 48.213409,188.850021 48.897141,189.812180 
	C51.950363,188.773972 54.501076,187.906647 56.986851,187.370224 
	C53.415684,191.894226 49.909451,196.087326 46.403214,200.280411 
	C52.262066,200.015869 54.895092,195.748642 57.760254,192.004807 
	C58.732880,190.733902 58.597786,188.615234 59.051052,186.530670 
	C60.819912,185.482498 62.506599,184.787643 65.041603,183.743317 
	C65.041603,188.466217 65.041603,192.326752 65.003471,196.522415 
	C63.334064,199.310425 61.702793,201.763306 59.568356,204.972794 
	C66.834724,203.059891 72.179298,196.951538 73.288467,190.696518 
	C75.108124,189.120453 76.587578,187.608688 78.438919,186.075623 
	C80.256065,187.385956 82.091644,188.485397 83.054428,190.104004 
	C84.471771,192.486816 85.266678,195.239883 86.326721,197.835220 
	C86.870575,197.787689 87.414429,197.740158 87.958282,197.692627 
	C88.364082,195.083420 88.769875,192.474213 89.532921,189.900620 
	C91.138557,190.646606 92.324928,191.513519 93.647209,192.037384 
	C97.319603,193.492355 100.250435,197.941833 105.314110,195.206787 
	C107.129044,197.438889 108.690125,199.437973 110.251205,201.437057 
	C110.812202,200.962128 111.373199,200.487213 111.934196,200.012299 
	C111.239098,198.629456 110.483040,197.273453 109.860352,195.858749 
	C108.013802,191.663406 103.702057,188.371506 105.341843,183.025879 
	C105.896194,183.251572 106.039444,183.522034 106.182564,184.183044 
	C107.244606,184.641983 108.130943,184.803589 109.275803,184.866486 
	C110.024918,184.515717 110.515495,184.263641 111.042877,184.361664 
	C114.917183,191.331284 122.460854,195.527390 128.329178,194.170120 
	C125.831017,192.418610 123.426659,190.732880 121.018661,188.620239 
	C121.015022,186.298782 121.015022,184.404236 121.015022,181.674927 
	C125.616249,184.110565 129.300278,186.060684 133.079468,188.176910 
	C133.463120,188.237366 133.751617,188.131729 134.366028,188.027863 
	C135.126495,188.024185 135.561020,188.018753 136.239288,187.869400 
	C136.688782,187.209015 136.894562,186.692520 137.423462,186.096100 
	C138.572861,185.364456 139.399109,184.712753 140.616974,184.056580 
	C145.356857,185.698257 149.705170,187.344406 154.311737,189.214172 
	C154.985687,190.712982 155.401367,191.988205 155.354279,191.843719 
	C156.424911,191.279358 157.831955,190.537659 159.239029,189.795975 
	C159.239044,189.795990 159.084244,189.875412 159.147186,190.065399 
	C159.612000,190.522858 160.013901,190.790329 160.415787,191.057800 
	C160.569061,191.173126 160.722351,191.288467 160.793549,191.918518 
	C160.143356,192.889557 159.575226,193.345917 159.007111,193.802277 
M139.190460,197.359192 
	C140.536972,197.595505 141.883484,197.831802 143.229996,198.068115 
	C142.714722,196.330353 142.466476,194.428787 141.551041,192.936493 
	C141.191376,192.350159 139.339355,192.679260 138.166946,192.591461 
	C138.398315,193.966263 138.629700,195.341049 139.190460,197.359192 
M45.742725,205.332642 
	C44.274258,205.708344 42.805786,206.084030 41.337318,206.459717 
	C46.915962,208.502319 50.386173,207.271683 52.553825,203.107712 
	C50.282509,203.989426 48.357140,204.736847 45.742725,205.332642 
M113.147224,203.589081 
	C113.845627,203.916199 114.544022,204.243317 115.242432,204.570435 
	C115.317589,204.152283 115.392754,203.734116 115.467911,203.315964 
	C114.726669,203.191284 113.985435,203.066620 113.147224,203.589081 
z"/>
<path fill="#06B506" opacity="1.000000" stroke="none" 
	d="
M30.188526,159.916107 
	C30.596136,153.706146 35.560635,150.056747 38.965363,145.007019 
	C39.812916,144.381042 40.133270,143.982681 40.453621,143.584335 
	C40.453621,143.584335 40.474983,143.479843 40.696747,143.383835 
	C40.918507,143.287827 41.230019,143.070786 41.582275,143.052170 
	C43.456745,143.347748 44.978958,143.661942 46.594730,144.345367 
	C48.103645,145.988754 49.897842,148.541992 50.852104,148.259354 
	C52.605511,147.740021 53.864292,145.550735 55.648945,143.992828 
	C63.145725,141.992599 59.119751,147.617523 59.870384,150.230896 
	C55.800888,155.014603 51.874752,159.489609 47.948616,163.964615 
	C48.467079,164.393951 48.985538,164.823288 49.504002,165.252625 
	C55.355862,161.667114 60.281815,157.261230 62.027031,149.646622 
	C63.707989,147.867233 66.142632,144.915741 66.863434,145.287491 
	C70.227364,147.022293 73.118134,149.674606 76.499954,152.243347 
	C78.117821,150.481354 77.348755,145.529434 82.289734,145.162842 
	C83.010422,145.997543 83.687675,146.632111 83.830185,147.369949 
	C84.843887,152.618454 85.971260,153.411652 91.331635,152.306549 
	C90.923332,150.546661 90.515747,148.789841 90.268585,146.871277 
	C90.639549,146.489990 90.855507,146.275925 91.290161,145.910553 
	C92.623322,144.900024 93.743187,144.046249 95.019684,143.073074 
	C95.019684,143.946716 94.899849,144.776840 95.061279,145.548065 
	C95.171272,146.073563 95.674637,146.516693 96.266121,147.207092 
	C99.111603,152.581390 103.079140,156.275085 108.922974,158.429504 
	C108.617897,157.281723 108.312828,156.133942 108.406708,154.972855 
	C109.555641,152.951187 110.305634,150.942810 111.425789,148.958649 
	C116.124969,150.703094 119.831787,154.489014 125.550262,152.990234 
	C127.554581,152.872559 129.136520,152.763153 131.366028,152.608978 
	C130.490494,148.300415 129.748169,144.647385 129.002975,140.997131 
	C129.000092,140.999908 128.996338,141.005417 129.348267,141.036972 
	C133.502350,143.764908 137.029129,147.707047 142.280090,143.849365 
	C144.158142,146.371887 146.136169,148.827087 147.890518,151.432892 
	C150.436783,155.214951 152.821579,159.105728 155.046173,163.361481 
	C152.237549,162.861725 149.657974,161.950577 147.494354,161.186356 
	C147.361710,163.327469 147.242523,165.250992 147.123352,167.174530 
	C145.404572,166.948639 143.547104,167.058533 141.999069,166.419205 
	C139.596085,165.426773 137.441254,163.850525 135.109024,162.663666 
	C133.567459,161.879181 131.899460,161.343170 129.454773,160.361237 
	C131.796402,163.590103 133.392395,165.790817 135.102600,168.149017 
	C127.785599,172.402832 121.829437,166.020004 114.783554,166.458191 
	C115.582413,168.248688 116.129791,169.475525 116.870644,171.136017 
	C109.207390,173.269836 103.962967,167.189133 97.495132,166.353546 
	C96.247353,169.375397 95.113754,172.120728 93.610664,174.893036 
	C92.500542,174.903870 91.759926,174.887726 91.020981,174.511444 
	C90.070084,172.435104 89.117500,170.718903 87.970253,168.651962 
	C83.070480,176.150345 83.053078,176.147049 76.141060,167.131668 
	C72.797089,169.760727 69.443962,172.396973 65.360771,175.607208 
	C65.052910,171.956589 64.865631,169.735870 64.661896,167.320023 
	C59.639400,170.558685 54.972397,173.568115 49.476696,177.111923 
	C48.540741,173.239746 47.977219,170.908371 47.236427,167.843597 
	C44.244881,169.550217 41.449249,171.145081 37.999012,173.113373 
	C38.339832,169.968872 38.582306,167.731720 38.846325,165.295822 
	C36.380779,166.017807 34.692890,166.512070 33.002499,167.003174 
	C33.000000,167.000000 32.993603,166.995026 32.995232,166.617737 
	C33.931442,163.663239 34.866024,161.086044 36.040310,157.847824 
	C33.399399,158.781235 31.793962,159.348663 30.188526,159.916107 
z"/>
<path fill="#085708" opacity="1.000000" stroke="none" 
	d="
M19.577480,211.070068 
	C22.333265,209.331726 24.752209,207.732391 27.171150,206.133072 
	C27.411947,206.363022 27.652742,206.592987 27.893538,206.822937 
	C26.710402,209.310242 25.527266,211.797562 24.344130,214.284866 
	C24.658924,214.690231 24.973717,215.095596 25.288511,215.500961 
	C29.219633,213.467300 33.150753,211.433640 38.287769,208.776154 
	C36.945515,212.603302 35.928802,215.502258 34.286602,220.184631 
	C42.417946,216.506500 49.490997,213.307083 56.678345,210.055969 
	C56.678345,212.723557 56.678345,215.579147 56.678345,219.550201 
	C60.886650,215.909927 64.651588,212.653168 69.285774,208.644501 
	C69.716988,211.376678 69.729607,212.368622 70.042992,213.254135 
	C70.713974,215.150146 71.540421,216.991119 72.303192,218.854645 
	C74.150688,217.938843 76.347481,217.380386 77.750023,216.009399 
	C79.230537,214.562164 79.953575,212.340042 81.007530,210.456436 
	C81.843216,211.016373 82.678902,211.576309 83.514587,212.136246 
	C83.693733,213.810608 83.613098,215.571426 84.132591,217.132523 
	C84.563751,218.428192 85.481834,219.941696 86.606827,220.487228 
	C87.306328,220.826447 89.107315,219.813980 89.866508,218.935242 
	C92.012619,216.451172 93.876503,213.723251 95.398750,211.694809 
	C101.589294,214.547333 107.418716,217.233459 113.760475,220.275757 
	C114.533241,221.467743 114.793678,222.303543 115.054108,223.139374 
	C116.367882,223.984894 117.681664,224.830429 118.995445,225.675949 
	C118.585396,226.331192 118.175354,226.986435 117.765312,227.641678 
	C113.159187,226.426071 108.553055,225.210464 103.559349,223.892578 
	C103.245941,225.175415 102.889656,226.633713 102.345406,228.861389 
	C101.254021,227.167084 100.634903,226.205933 99.281326,225.157700 
	C95.582275,226.622925 92.617683,228.175217 89.653091,229.727509 
	C89.428711,229.510284 89.204330,229.293076 88.979950,229.075867 
	C89.940018,227.394470 90.900078,225.713074 91.860138,224.031693 
	C91.604843,223.830032 91.349548,223.628387 91.094261,223.426727 
	C89.392738,225.297180 87.691216,227.167618 85.989700,229.038055 
	C84.469391,229.394897 82.949089,229.751724 80.884430,230.236343 
	C81.364487,228.179642 81.710091,226.698975 82.044327,225.266983 
	C76.550568,227.340225 71.244499,229.342636 65.141907,231.645645 
	C65.828476,229.449478 66.185944,228.306030 66.553841,227.129242 
	C63.951664,227.514450 61.418938,227.889389 58.475513,228.325119 
	C58.605217,227.045776 58.697083,226.139648 58.805374,225.071503 
	C55.833561,225.951401 53.241825,226.718750 49.530163,227.817703 
	C50.774361,226.045364 51.281086,225.323532 51.786160,224.604065 
	C44.900486,226.504669 37.986256,228.413147 31.072025,230.321640 
	C30.914448,229.805695 30.756872,229.289764 30.599295,228.773819 
	C31.841658,227.437286 33.084023,226.100769 35.189575,223.835617 
	C29.003798,225.218796 24.133873,226.307739 18.032221,227.672089 
	C19.203724,225.968460 19.524128,225.350174 19.988375,224.871399 
	C20.428347,224.417694 21.019104,224.110199 22.678921,222.933472 
	C17.984303,223.312088 14.548482,223.589203 11.007065,223.874817 
	C14.067712,219.166611 16.654177,215.187836 19.577480,211.070068 
z"/>
<path fill="#06B406" opacity="1.000000" stroke="none" 
	d="
M39.786198,126.949356 
	C40.237770,126.542892 40.689342,126.136429 41.542866,125.360794 
	C42.664234,124.087669 43.383652,123.183731 44.103065,122.279785 
	C44.840828,121.631599 45.578594,120.983414 46.772491,119.947533 
	C48.564369,118.380005 49.900124,117.200180 51.570854,116.025986 
	C55.465267,116.749977 52.977898,118.047462 52.252750,119.264145 
	C50.723717,121.829659 49.270557,124.440399 47.786266,127.032578 
	C48.190830,127.481163 48.595398,127.929749 48.999966,128.378342 
	C51.327686,127.512215 53.918243,127.037300 55.922966,125.690407 
	C59.117073,123.544418 60.882137,122.951408 61.090652,127.829659 
	C61.201836,130.430832 62.296997,132.039505 65.242912,129.795578 
	C67.254112,128.263626 69.619705,127.196930 71.837685,125.915955 
	C74.253349,130.732758 77.519020,131.250793 81.113029,127.679657 
	C83.153587,125.652084 85.057030,123.486519 87.538658,120.830345 
	C88.344315,124.874405 89.019173,128.261948 89.694038,131.649475 
	C90.141823,131.727722 90.589600,131.805969 91.037384,131.884216 
	C92.302368,128.345062 93.567360,124.805916 95.199539,120.239464 
	C98.463280,123.397430 101.342125,126.182968 105.052086,129.772690 
	C105.868393,125.688499 106.436287,122.847176 107.311661,120.158966 
	C111.650650,125.608437 117.615288,125.859573 124.343857,126.946327 
	C123.089417,124.059280 122.166115,121.934349 120.742195,118.657265 
	C125.464890,120.523880 129.235458,122.014175 133.696854,123.777504 
	C133.836166,120.875618 133.906158,119.417854 133.976135,117.960091 
	C137.430496,121.662498 140.884857,125.364906 144.916473,129.686020 
	C143.207458,129.954987 142.492355,130.067535 141.550491,130.215759 
	C142.037048,131.301086 142.533066,132.407516 143.350601,134.231140 
	C139.582214,132.906906 136.595474,131.857361 133.249557,130.681580 
	C134.375092,132.582489 135.193237,133.964233 135.641266,135.487000 
	C130.235001,131.608414 124.174522,132.621277 118.459427,132.489182 
	C114.250717,132.391891 110.024422,133.320602 105.793373,133.604538 
	C105.235252,133.641998 104.602501,132.567368 103.845261,131.701111 
	C98.599609,127.549675 100.352074,134.515091 97.632141,134.990906 
	C92.760826,133.552139 90.185890,137.053513 86.783020,139.103607 
	C86.289246,139.406616 86.100021,139.665543 85.997650,139.993225 
	C85.999695,140.000000 85.990623,139.988449 85.727829,139.807526 
	C84.263283,137.337265 82.891342,136.290176 80.618973,139.000015 
	C79.081734,137.506424 77.928139,136.028046 76.607819,134.336014 
	C75.860092,135.048309 75.088341,136.435333 74.239555,136.484192 
	C69.441635,136.760391 64.620918,136.622391 59.818066,136.844040 
	C58.571728,136.901566 57.361530,137.742126 56.465080,138.093536 
	C55.011177,137.772415 53.445324,137.426559 51.554951,137.130829 
	C49.160767,137.751907 47.231556,142.961029 45.271263,137.140503 
	C44.259026,136.894089 42.929390,136.721588 41.647648,136.897675 
	C39.748569,137.158600 37.883450,137.666702 36.003876,138.069565 
	C35.912930,136.237579 35.821987,134.405594 36.052135,132.154785 
	C36.674477,131.579575 36.787727,131.335861 36.712978,131.004791 
	C36.832157,130.868149 36.951336,130.731522 37.371128,130.252045 
	C37.950787,129.678207 38.075443,129.382217 38.045715,129.021210 
	C38.319309,128.823959 38.592899,128.626694 39.149101,128.108948 
	C39.718620,127.580063 39.836781,127.300362 39.786198,126.949356 
z"/>
<path fill="#0AD40B" opacity="1.000000" stroke="none" 
	d="
M107.004196,120.005844 
	C106.436287,122.847176 105.868393,125.688499 105.052086,129.772690 
	C101.342125,126.182968 98.463280,123.397430 95.199539,120.239464 
	C93.567360,124.805916 92.302368,128.345062 91.037384,131.884216 
	C90.589600,131.805969 90.141823,131.727722 89.694038,131.649475 
	C89.019173,128.261948 88.344315,124.874405 87.538658,120.830345 
	C85.057030,123.486519 83.153587,125.652084 81.113029,127.679657 
	C77.519020,131.250793 74.253349,130.732758 71.837685,125.915955 
	C69.619705,127.196930 67.254112,128.263626 65.242912,129.795578 
	C62.296997,132.039505 61.201836,130.430832 61.090652,127.829659 
	C60.882137,122.951408 59.117073,123.544418 55.922966,125.690407 
	C53.918243,127.037300 51.327686,127.512215 48.999966,128.378342 
	C48.595398,127.929749 48.190830,127.481163 47.786266,127.032578 
	C49.270557,124.440399 50.723717,121.829659 52.252750,119.264145 
	C52.977898,118.047462 55.465267,116.749977 51.389740,115.762253 
	C50.281509,114.676949 49.689377,113.861015 49.097244,113.045074 
	C52.208359,110.190681 55.319473,107.336281 58.977844,104.481491 
	C61.069008,104.026711 62.604450,103.235893 64.158798,103.196800 
	C66.490211,103.138161 69.355011,103.102051 67.600723,107.057983 
	C62.980602,112.143234 57.036034,115.858475 54.025532,122.847145 
	C62.054306,120.729980 64.862740,114.689850 68.318031,108.860695 
	C70.088303,108.181656 71.558228,107.624107 73.388756,107.074692 
	C74.468773,107.060852 75.188187,107.038879 75.962250,107.342178 
	C76.677986,108.113274 77.339058,108.559074 78.274521,109.063736 
	C78.726555,109.181267 78.904198,109.239944 78.906517,109.574669 
	C75.756416,112.779457 72.641724,115.584091 69.877815,118.699883 
	C68.817368,119.895355 68.557228,121.800751 67.932411,123.382660 
	C68.510574,123.654778 69.088737,123.926895 69.666901,124.199013 
	C74.518082,120.311211 79.367371,116.414719 81.251709,109.957268 
	C81.305382,109.773315 80.462204,109.327652 80.034210,108.774582 
	C80.031204,108.545135 80.035736,108.086235 80.363174,108.063599 
	C81.127426,108.011345 81.564247,107.981720 82.220520,107.859200 
	C82.716850,107.585518 82.909637,107.338974 83.371635,107.023285 
	C84.430641,107.001747 85.136360,106.983597 85.883377,107.356750 
	C86.878799,109.113403 87.576065,111.137672 88.866333,111.640625 
	C89.945267,112.061188 92.678658,111.005386 92.975067,110.065720 
	C93.523216,108.328026 92.824059,106.196869 93.028641,104.161926 
	C93.931915,104.072533 94.451012,104.050819 95.196152,104.287407 
	C96.793465,105.359802 98.082191,106.489265 99.564949,106.877342 
	C100.556885,107.136963 101.824539,106.343117 103.228989,106.015610 
	C103.662621,106.008728 103.836090,106.006927 104.043915,106.358368 
	C104.718597,108.480988 105.358940,110.250351 105.996086,112.377701 
	C106.329994,115.159065 106.667099,117.582458 107.004196,120.005844 
z"/>
<path fill="#57CE07" opacity="1.000000" stroke="none" 
	d="
M61.908043,85.891006 
	C64.511772,82.800613 67.115494,79.710213 69.328690,77.083328 
	C68.847328,77.083328 67.256393,77.083328 64.725372,77.083328 
	C68.931427,74.093216 72.410141,71.620171 76.823112,68.482956 
	C74.361092,68.155090 72.953636,67.967659 70.776703,67.677750 
	C72.685257,65.919586 74.091599,64.624062 76.173248,63.177971 
	C79.045776,62.428478 81.242996,61.829544 83.621887,61.181087 
	C82.571411,65.247208 81.676094,68.712730 80.474213,73.364868 
	C83.518112,71.226250 85.212624,70.035706 87.468384,68.450829 
	C87.845894,71.810524 88.107597,74.139595 88.369308,76.468674 
	C88.715919,76.520905 89.062538,76.573135 89.409149,76.625366 
	C90.386055,73.906685 91.362968,71.188004 92.846512,67.059364 
	C95.644196,71.053162 97.732658,74.034515 100.279083,77.669632 
	C102.139519,73.321457 103.142052,70.978340 104.394135,68.618546 
	C104.801178,68.658226 104.958679,68.714592 105.116173,68.770950 
	C105.116173,68.770950 105.072510,68.892632 105.150787,69.160263 
	C105.377266,69.783691 105.643456,69.945961 106.027634,69.914703 
	C107.217857,71.178528 108.408089,72.442345 109.937943,74.062408 
	C110.440254,74.737999 110.699730,74.877968 111.056015,74.838554 
	C111.056015,74.838554 111.050270,74.950226 111.031418,75.247055 
	C110.491074,75.898964 109.969589,76.254036 109.352684,76.674080 
	C110.282310,77.439751 110.981201,78.015381 111.361252,78.693672 
	C108.469711,80.880814 111.327980,81.461609 112.152794,82.443237 
	C113.997208,84.638336 116.019577,86.683922 117.764938,88.879700 
	C117.560417,88.968987 117.117905,89.027191 116.792000,88.892014 
	C114.916908,87.912666 113.367722,87.068497 111.360481,85.974731 
	C111.360481,88.199127 111.360481,89.882591 111.360481,92.497383 
	C106.615944,90.638832 102.268890,88.935989 97.740532,87.162125 
	C96.400635,90.283150 95.110695,93.287796 93.445480,97.166595 
	C92.244095,93.996346 91.454163,91.911835 90.620399,89.711678 
	C89.271339,91.446838 88.083603,92.974495 86.436890,95.092484 
	C86.017090,92.426804 85.775757,90.894409 85.437927,88.749245 
	C82.905945,90.754707 80.897003,92.345901 77.941086,94.687141 
	C78.456100,91.449669 78.734825,89.697556 78.944260,87.599709 
	C76.736443,86.866295 74.597931,86.478607 72.459412,86.090912 
	C72.683746,87.416252 72.908081,88.741585 72.946236,90.368164 
	C70.865829,91.476830 68.971603,92.284256 67.034760,93.045479 
	C66.992134,92.999275 66.898994,92.914810 66.903793,92.551773 
	C67.376633,90.628632 67.844673,89.068542 68.387077,87.260551 
	C66.020683,87.891434 64.037292,88.420212 61.908039,88.987869 
	C61.908039,87.746239 61.908039,86.818619 61.908043,85.891006 
z"/>
<path fill="#0E9A0A" opacity="1.000000" stroke="none" 
	d="
M87.002747,138.997559 
	C90.185890,137.053513 92.760826,133.552139 97.802719,135.311188 
	C103.719696,139.878967 102.456383,133.747162 104.004318,132.007797 
	C104.602501,132.567368 105.235252,133.641998 105.793373,133.604538 
	C110.024422,133.320602 114.250717,132.391891 118.459427,132.489182 
	C124.174522,132.621277 130.235001,131.608414 135.558197,135.795868 
	C137.973984,138.356201 140.102707,140.748688 142.255768,143.495270 
	C137.029129,147.707047 133.502350,143.764908 129.228821,140.831436 
	C128.410263,140.607559 128.063095,140.620773 127.715935,140.634003 
	C128.145905,140.754120 128.575882,140.874237 129.005859,140.994354 
	C129.748169,144.647385 130.490494,148.300415 131.366028,152.608978 
	C129.136520,152.763153 127.554581,152.872559 125.378311,152.687378 
	C119.843437,148.901459 114.902870,145.410126 109.962311,141.918808 
	C109.577789,142.251434 109.193275,142.584076 108.808754,142.916718 
	C109.557709,144.922623 110.306664,146.928543 111.055618,148.934448 
	C110.305634,150.942810 109.555641,152.951187 108.334763,154.638672 
	C104.151054,151.035812 100.438232,147.753845 96.294106,144.090637 
	C96.158417,145.441010 96.080261,146.218826 96.002106,146.996658 
	C95.674637,146.516693 95.171272,146.073563 95.061279,145.548065 
	C94.899849,144.776840 95.019684,143.946716 95.019684,143.073074 
	C93.743187,144.046249 92.623322,144.900024 91.232635,145.736359 
	C90.961815,145.718948 90.792130,145.394760 90.879250,145.110413 
	C90.702278,144.089828 90.438187,143.353592 89.975266,142.389130 
	C89.185806,142.033340 88.595184,141.905807 88.006439,141.481995 
	C88.005508,140.790710 88.002724,140.395706 88.157494,139.852478 
	C87.877617,139.468689 87.440186,139.233124 87.002747,138.997559 
M122.380585,137.156464 
	C122.264450,137.591217 122.148315,138.025986 121.971588,139.253922 
	C122.649605,139.758163 123.273949,140.455399 124.033455,140.666626 
	C124.316177,140.745239 124.915085,139.687012 125.369820,139.147186 
	C124.537781,138.469971 123.705734,137.792740 122.380585,137.156464 
M96.250214,138.172836 
	C96.414879,138.117905 96.579536,138.062958 96.744194,138.008026 
	C96.578690,137.954361 96.413185,137.900696 96.250214,138.172836 
z"/>
<path fill="#0B590B" opacity="1.000000" stroke="none" 
	d="
M115.437820,223.090271 
	C114.793678,222.303543 114.533241,221.467743 114.142181,220.327209 
	C113.670654,218.292709 113.329750,216.562927 112.877304,214.267151 
	C118.109840,214.537994 122.803627,214.945221 127.496063,214.930191 
	C129.032104,214.925293 130.529419,213.691757 132.110794,213.267242 
	C133.221405,212.969116 134.457245,212.945023 135.614777,213.048630 
	C139.826004,213.425537 144.027802,213.907700 148.233139,214.350159 
	C148.588608,213.862961 148.944092,213.375763 149.299561,212.888565 
	C147.251801,209.897217 145.204041,206.905884 143.156281,203.914551 
	C143.334366,203.662674 143.512466,203.410797 143.690567,203.158920 
	C145.102814,203.762680 146.496582,204.415176 147.931335,204.959641 
	C150.582214,205.965591 153.347290,209.115417 155.791565,204.505829 
	C156.018356,204.078140 157.738907,204.649368 158.523422,204.263672 
	C159.801956,203.635071 160.880478,202.599670 162.066101,201.363388 
	C163.099884,208.780701 168.604599,213.309967 174.253418,218.379730 
	C170.378998,218.379730 166.504593,218.379730 162.018463,218.379730 
	C163.716583,219.481033 165.132797,220.399521 166.549011,221.317993 
	C166.514465,221.701660 166.479919,222.085342 166.445374,222.469009 
	C160.741501,221.728561 155.037628,220.988113 148.618149,220.154770 
	C150.515182,221.767944 151.929962,222.971024 153.344742,224.174118 
	C153.137802,224.744659 152.930862,225.315216 152.723923,225.885773 
	C146.226120,224.046127 139.728317,222.206497 132.584076,220.174454 
	C131.654800,220.063599 131.371964,220.145172 131.089127,220.226746 
	C131.301270,220.576263 131.513397,220.925797 131.725540,221.275314 
	C132.122711,221.966843 132.519882,222.658371 132.917053,223.349899 
	C132.741821,223.675400 132.566589,224.000885 132.391357,224.326385 
	C129.299316,222.916031 126.207268,221.505676 121.822609,219.505737 
	C124.058083,222.106918 125.454323,223.731598 127.631882,226.265396 
	C123.067261,225.019257 119.444397,224.030212 115.437820,223.090271 
z"/>
<path fill="#068406" opacity="1.000000" stroke="none" 
	d="
M33.004997,167.006348 
	C34.692890,166.512070 36.380779,166.017807 38.846325,165.295822 
	C38.582306,167.731720 38.339832,169.968872 37.999012,173.113373 
	C41.449249,171.145081 44.244881,169.550217 47.236427,167.843597 
	C47.977219,170.908371 48.540741,173.239746 49.476696,177.111923 
	C54.972397,173.568115 59.639400,170.558685 64.661896,167.320023 
	C64.865631,169.735870 65.052910,171.956589 65.360771,175.607208 
	C69.443962,172.396973 72.797089,169.760727 76.141060,167.131668 
	C83.053078,176.147049 83.070480,176.150345 87.970253,168.651962 
	C89.117500,170.718903 90.070084,172.435104 90.971680,174.872620 
	C88.125366,177.395721 85.993156,182.548065 81.746277,177.302032 
	C79.156349,178.539536 76.536079,179.791519 73.713593,181.021332 
	C73.511360,180.999161 73.103539,181.017715 72.753036,181.005371 
	C71.935318,180.996475 71.468102,180.999939 70.720749,180.808426 
	C69.487091,180.161926 68.483780,179.242416 67.588455,179.337692 
	C63.076309,179.817841 58.592319,180.562576 54.098446,181.214447 
	C53.723473,180.733276 53.348495,180.252106 52.973518,179.770935 
	C54.155731,179.468353 55.337940,179.165771 56.520153,178.863190 
	C56.217926,178.412155 55.915695,177.961105 55.613468,177.510056 
	C51.434570,180.461426 45.725365,175.951462 41.601429,180.957306 
	C39.092846,180.964355 36.949223,180.964355 34.539848,180.964355 
	C34.539848,180.583466 34.539848,179.565308 34.539848,178.414429 
	C32.420498,178.707733 30.527386,178.969742 28.532207,179.268463 
	C28.430140,179.305176 28.255318,179.177734 27.917194,179.132843 
	C26.741581,179.298096 25.904089,179.508240 24.744312,179.824005 
	C23.782267,179.851898 23.142504,179.774170 21.863716,179.618774 
	C24.579020,177.041412 26.952545,174.788467 29.326069,172.535522 
	C26.969254,172.508606 25.284004,173.466385 23.472345,173.927444 
	C22.674728,174.130432 21.620039,173.323273 20.682062,172.974731 
	C22.723722,171.139404 25.083914,169.545731 26.713463,167.397736 
	C28.209435,165.425827 28.917856,162.856461 30.080891,160.233215 
	C31.793962,159.348663 33.399399,158.781235 36.040310,157.847824 
	C34.866024,161.086044 33.931442,163.663239 32.856117,166.670959 
	C32.811916,167.069778 32.908455,167.038055 33.004997,167.006348 
M73.409470,178.490463 
	C73.409470,178.490463 73.526306,178.419189 73.409470,178.490463 
z"/>
<path fill="#068406" opacity="1.000000" stroke="none" 
	d="
M93.980164,174.866074 
	C95.113754,172.120728 96.247353,169.375397 97.495132,166.353546 
	C103.962967,167.189133 109.207390,173.269836 116.870644,171.136017 
	C116.129791,169.475525 115.582413,168.248688 114.783554,166.458191 
	C121.829437,166.020004 127.785599,172.402832 135.102600,168.149017 
	C133.392395,165.790817 131.796402,163.590103 129.454773,160.361237 
	C131.899460,161.343170 133.567459,161.879181 135.109024,162.663666 
	C137.441254,163.850525 139.596085,165.426773 141.999069,166.419205 
	C143.547104,167.058533 145.404572,166.948639 147.123352,167.174530 
	C147.242523,165.250992 147.361710,163.327469 147.494354,161.186356 
	C149.657974,161.950577 152.237549,162.861725 155.203751,163.665268 
	C155.590393,163.557678 155.567505,163.587448 155.452271,163.755371 
	C155.564072,164.000580 155.791107,164.077881 156.018143,164.155182 
	C157.822891,165.710342 159.627625,167.265503 161.432373,168.820679 
	C161.236069,169.191116 161.039764,169.561569 160.843445,169.932022 
	C158.397995,169.216446 155.952545,168.500885 153.507095,167.785324 
	C153.357529,168.053329 153.207962,168.321350 153.058395,168.589355 
	C155.164764,170.296188 157.271149,172.003021 160.527481,174.641663 
	C157.399872,174.641663 155.560028,174.641663 152.985077,174.769165 
	C150.214890,174.141953 148.179794,173.387238 145.153809,172.265060 
	C145.867874,174.473206 146.179565,175.437088 146.867828,177.565460 
	C144.314850,176.710083 142.614410,176.031769 140.856674,175.573196 
	C136.736557,174.498367 132.440079,172.312195 128.572327,177.003342 
	C117.984650,176.400208 107.826469,175.798492 97.754173,175.201859 
	C97.871620,175.587646 98.156120,176.522217 98.440620,177.456787 
	C98.124725,177.686691 97.808838,177.916611 97.492950,178.146515 
	C96.322021,177.053040 95.151093,175.959549 93.980164,174.866074 
z"/>
<path fill="#94E40F" opacity="1.000000" stroke="none" 
	d="
M104.144592,68.635231 
	C103.142052,70.978340 102.139519,73.321457 100.279083,77.669632 
	C97.732658,74.034515 95.644196,71.053162 92.846512,67.059364 
	C91.362968,71.188004 90.386055,73.906685 89.409149,76.625366 
	C89.062538,76.573135 88.715919,76.520905 88.369308,76.468674 
	C88.107597,74.139595 87.845894,71.810524 87.468384,68.450829 
	C85.212624,70.035706 83.518112,71.226250 80.474213,73.364868 
	C81.676094,68.712730 82.571411,65.247208 83.621887,61.181087 
	C81.242996,61.829544 79.045776,62.428478 76.465179,63.009300 
	C79.447769,57.679504 82.813736,52.367817 86.488937,46.496826 
	C87.774261,43.032566 88.750359,40.127609 90.064072,37.092476 
	C91.284256,37.188885 92.166817,37.415474 93.049377,37.642063 
	C92.894791,38.577805 92.305840,39.737904 92.654823,40.413532 
	C95.273033,45.482330 98.161003,50.411945 100.771362,55.484539 
	C101.584198,57.064106 101.802422,58.949665 102.540787,61.206215 
	C102.880234,63.394558 102.971756,65.071831 103.072922,67.083183 
	C103.420685,67.938568 103.758804,68.459869 104.047729,68.886261 
	C103.998535,68.791359 104.144592,68.635231 104.144592,68.635231 
z"/>
<path fill="#2FA206" opacity="1.000000" stroke="none" 
	d="
M61.577816,86.008263 
	C61.908039,86.818619 61.908039,87.746239 61.908039,88.987869 
	C64.037292,88.420212 66.020683,87.891434 68.387077,87.260551 
	C67.844673,89.068542 67.376633,90.628632 66.760971,92.633049 
	C66.768013,93.082138 66.922699,93.086906 67.077377,93.091675 
	C68.971603,92.284256 70.865829,91.476830 73.285263,90.315170 
	C75.544838,89.289101 77.279198,88.617264 79.013557,87.945435 
	C78.734825,89.697556 78.456100,91.449669 77.941086,94.687141 
	C80.897003,92.345901 82.905945,90.754707 85.437927,88.749245 
	C85.775757,90.894409 86.017090,92.426804 86.436890,95.092484 
	C88.083603,92.974495 89.271339,91.446838 90.620399,89.711678 
	C91.454163,91.911835 92.244095,93.996346 93.445480,97.166595 
	C95.110695,93.287796 96.400635,90.283150 97.740532,87.162125 
	C102.268890,88.935989 106.615944,90.638832 111.360481,92.497383 
	C111.360481,89.882591 111.360481,88.199127 111.360481,85.974731 
	C113.367722,87.068497 114.916908,87.912666 116.831161,89.203064 
	C118.118408,90.460098 119.040573,91.270905 119.962738,92.081718 
	C120.447136,92.681114 120.931541,93.280502 121.645264,94.280647 
	C120.641342,95.866173 119.408089,97.050949 117.929016,97.928917 
	C115.804726,97.128830 113.799042,96.902512 112.076614,96.081749 
	C109.261520,94.740326 107.451118,95.589661 105.748573,97.868576 
	C104.518219,97.343422 103.039429,96.440102 102.693954,96.760147 
	C99.312691,99.892540 94.861328,98.858757 90.785828,100.115746 
	C90.293602,100.403961 90.103928,100.656189 89.623528,100.979660 
	C88.499184,100.983047 87.749588,100.978386 87.000244,100.646828 
	C87.050392,99.335739 87.100281,98.351547 87.112648,98.107674 
	C81.884201,98.761276 76.938965,99.379478 71.924133,99.640594 
	C67.250557,96.807404 64.050186,100.435829 60.358353,101.926819 
	C60.000683,101.273552 59.643013,100.620277 59.538803,99.507301 
	C59.772400,98.803650 59.752529,98.559700 59.732662,98.315758 
	C59.423897,98.478493 59.115131,98.641235 58.806366,98.803978 
	C58.424438,98.142227 57.553215,97.214722 57.743759,96.863914 
	C58.655392,95.185509 59.854752,93.663383 61.202915,91.724655 
	C58.886829,91.917587 57.183262,92.059502 54.327484,92.297394 
	C57.193058,89.741661 59.220325,87.933594 61.577816,86.008263 
z"/>
<path fill="#0BD30C" opacity="1.000000" stroke="none" 
	d="
M107.311668,120.158966 
	C106.667099,117.582458 106.329994,115.159065 106.268242,112.595215 
	C108.118782,117.942284 113.116249,118.733147 117.507675,120.505447 
	C114.813988,116.367035 111.679619,112.716362 108.362404,109.240166 
	C107.132286,107.951088 105.473083,107.071472 104.009567,106.005119 
	C103.836090,106.006927 103.662621,106.008728 103.242004,106.010612 
	C102.994850,106.010689 102.981918,106.024132 102.985825,105.761566 
	C102.987267,105.323944 102.984795,105.148895 103.235397,104.696487 
	C105.379990,103.947731 107.271507,103.476334 109.519951,102.988449 
	C110.547470,102.319077 111.218071,101.666183 112.316910,100.989746 
	C115.424911,101.329750 118.104668,101.693298 120.784431,102.056839 
	C120.784431,102.056839 121.008621,101.941299 121.198959,102.197952 
	C121.857552,102.734901 122.325806,103.015182 122.794052,103.295464 
	C122.794052,103.295464 122.828888,103.167793 122.827660,103.459534 
	C123.241173,104.097481 123.655914,104.443695 124.070648,104.789909 
	C125.156349,105.812881 126.242058,106.835854 127.748810,108.165710 
	C128.404602,108.741173 128.700348,108.876244 129.057083,108.877800 
	C129.057083,108.877800 129.044739,108.959846 129.207703,109.235916 
	C129.284439,110.557510 129.198212,111.603035 129.112000,112.648560 
	C130.666885,114.212273 132.221756,115.775986 133.876389,117.649895 
	C133.906158,119.417854 133.836166,120.875618 133.696854,123.777504 
	C129.235458,122.014175 125.464890,120.523880 120.742195,118.657265 
	C122.166115,121.934349 123.089417,124.059280 124.343857,126.946327 
	C117.615288,125.859573 111.650650,125.608437 107.311668,120.158966 
z"/>
<path fill="#3A1C08" opacity="1.000000" stroke="none" 
	d="
M86.033768,229.474243 
	C87.691216,227.167618 89.392738,225.297180 91.094261,223.426727 
	C91.349548,223.628387 91.604843,223.830032 91.860138,224.031693 
	C90.900078,225.713074 89.940018,227.394470 88.979950,229.075867 
	C89.204330,229.293076 89.428711,229.510284 89.653091,229.727509 
	C92.617683,228.175217 95.582275,226.622925 98.919998,225.101318 
	C101.217041,234.936127 103.061569,244.756866 105.110054,254.534851 
	C105.781776,257.741180 106.982796,260.836578 108.073402,264.414551 
	C100.996117,268.089233 93.890503,269.496948 86.436745,266.339233 
	C88.741173,265.292114 90.867699,264.670227 93.218567,264.311218 
	C97.337074,263.909546 101.649223,263.405060 100.910736,257.910706 
	C100.253777,253.022873 99.034683,248.203751 97.895103,243.394241 
	C97.699585,242.569061 96.659607,241.943954 94.992973,240.103867 
	C94.992973,243.264664 95.160339,244.911865 94.946495,246.507980 
	C94.727020,248.146164 94.134933,249.734421 93.705917,251.344528 
	C93.136482,251.279556 92.567047,251.214584 91.997612,251.149597 
	C91.997612,247.944931 92.003693,244.740234 91.996323,241.535583 
	C91.981766,235.202805 91.978691,235.202805 85.796104,236.041809 
	C85.890007,233.998016 85.983917,231.954239 86.033768,229.474243 
z"/>
<path fill="#562A03" opacity="1.000000" stroke="none" 
	d="
M85.573227,236.349854 
	C91.978691,235.202805 91.981766,235.202805 91.996323,241.535583 
	C92.003693,244.740234 91.997612,247.944931 91.997612,251.149597 
	C92.567047,251.214584 93.136482,251.279556 93.705917,251.344528 
	C94.134933,249.734421 94.727020,248.146164 94.946495,246.507980 
	C95.160339,244.911865 94.992973,243.264664 94.992973,240.103867 
	C96.659607,241.943954 97.699585,242.569061 97.895103,243.394241 
	C99.034683,248.203751 100.253777,253.022873 100.910736,257.910706 
	C101.649223,263.405060 97.337074,263.909546 93.367531,263.991333 
	C97.275497,258.788971 97.558792,257.212311 95.414886,253.505310 
	C93.869629,255.316132 92.199684,257.273071 90.529732,259.229980 
	C89.890694,259.023651 89.251648,258.817322 88.612610,258.610962 
	C88.612610,252.656418 88.612610,246.701843 88.612610,240.061600 
	C86.396881,242.352341 85.135345,243.656601 83.873810,244.960846 
	C84.365982,242.193176 84.858162,239.425537 85.573227,236.349854 
z"/>
<path fill="#884B06" opacity="1.000000" stroke="none" 
	d="
M83.580856,245.097244 
	C85.135345,243.656601 86.396881,242.352341 88.612610,240.061600 
	C88.612610,246.701843 88.612610,252.656418 88.612610,258.610962 
	C89.251648,258.817322 89.890694,259.023651 90.529732,259.229980 
	C92.199684,257.273071 93.869629,255.316132 95.414886,253.505310 
	C97.558792,257.212311 97.275497,258.788971 93.143188,263.728455 
	C90.867699,264.670227 88.741173,265.292114 86.245560,265.980408 
	C84.955063,266.259521 84.033630,266.472260 83.014900,266.044983 
	C79.771034,263.459473 77.924957,261.204010 80.833778,257.592560 
	C81.148277,257.202118 80.876984,256.339813 80.877419,255.696381 
	C81.371056,254.035980 81.949799,252.395020 82.335197,250.709869 
	C82.747704,248.906174 82.978058,247.060822 83.580856,245.097244 
z"/>
<path fill="#0A6304" opacity="1.000000" stroke="none" 
	d="
M129.001831,177.004745 
	C132.440079,172.312195 136.736557,174.498367 140.856674,175.573196 
	C142.614410,176.031769 144.314850,176.710083 146.867828,177.565460 
	C146.179565,175.437088 145.867874,174.473206 145.153809,172.265060 
	C148.179794,173.387238 150.214890,174.141953 152.615906,174.937927 
	C154.623367,178.643799 152.399994,183.621490 156.746307,186.918488 
	C155.786255,187.997940 154.919861,188.494232 154.053467,188.990540 
	C149.705170,187.344406 145.356857,185.698257 140.531860,183.650909 
	C139.276169,177.925598 138.160965,177.645599 132.118500,180.926697 
	C131.049149,179.391495 130.025482,178.198120 129.001831,177.004745 
z"/>
<path fill="#F7340A" opacity="1.000000" stroke="none" 
	d="
M93.346802,37.826813 
	C92.166817,37.415474 91.284256,37.188885 89.779457,37.212650 
	C87.224068,38.350956 85.290901,39.238907 83.101158,39.964714 
	C84.206505,35.852520 85.568428,31.902466 86.945999,27.955135 
	C86.961647,27.957861 86.969498,27.934832 87.281487,27.933262 
	C88.075432,27.592710 88.557396,27.253733 89.375198,26.951349 
	C90.151558,27.076103 90.592087,27.164261 91.163177,27.532536 
	C92.759766,31.872473 97.269600,30.919922 99.910385,33.045197 
	C99.910385,33.045197 100.086418,33.451115 99.775726,33.846344 
	C95.591614,36.757969 100.828415,38.648319 99.926758,40.960499 
	C97.832573,39.977524 95.738396,38.994545 93.346802,37.826813 
z"/>
<path fill="#FBD219" opacity="1.000000" stroke="none" 
	d="
M91.032608,27.252419 
	C90.592087,27.164261 90.151558,27.076103 89.376068,26.731819 
	C89.041100,26.475691 88.994293,26.038378 89.002869,25.656590 
	C88.324242,23.495264 87.637039,21.715727 86.959930,19.526199 
	C86.918839,18.296234 86.867653,17.476261 86.816483,16.656292 
	C87.813393,13.927349 88.751320,11.172853 89.904396,8.511572 
	C90.011978,8.263273 91.481026,8.604860 92.637672,9.170412 
	C93.274719,10.181859 93.592026,10.695454 93.909332,11.209049 
	C93.909332,11.209048 93.923538,11.621394 93.999367,12.047312 
	C94.167488,12.830104 94.395866,13.036111 94.760315,13.091251 
	C95.109634,14.278845 95.458954,15.466438 95.843590,17.343407 
	C94.906975,20.358624 93.935059,22.684467 92.970741,25.253174 
	C92.978340,25.496033 92.979065,25.981991 92.668671,26.025883 
	C91.916389,26.463989 91.474503,26.858204 91.032608,27.252419 
z"/>
<path fill="#13620C" opacity="1.000000" stroke="none" 
	d="
M28.634277,179.231750 
	C30.527386,178.969742 32.420498,178.707733 34.539848,178.414429 
	C34.539848,179.565308 34.539848,180.583466 34.539848,180.964355 
	C36.949223,180.964355 39.092846,180.964355 41.615150,181.179962 
	C41.993832,181.395554 42.013096,181.840225 41.681602,181.927002 
	C40.215534,183.070648 39.080952,184.127533 37.946373,185.184402 
	C35.191204,186.061234 32.364376,186.766998 29.707968,187.879623 
	C28.134909,188.538498 26.830984,189.839935 25.033226,190.787964 
	C25.487015,189.372696 26.313623,188.021912 27.086704,186.004044 
	C27.007666,184.891220 26.982153,184.445480 26.956638,183.999756 
	C26.956638,183.999756 27.219170,183.778473 27.494793,183.324646 
	C27.864708,181.896027 27.959002,180.921249 28.020927,179.970322 
	C27.988560,179.994171 27.920586,180.037140 28.154594,180.101059 
	C28.512608,179.864975 28.594498,179.553894 28.634277,179.231750 
z"/>
<path fill="#FCB61B" opacity="1.000000" stroke="none" 
	d="
M92.963142,25.010313 
	C93.935059,22.684467 94.906975,20.358624 95.897575,17.713657 
	C100.347359,18.431156 104.778458,19.467777 109.526360,20.578510 
	C109.057510,21.240326 108.463593,22.078695 107.306229,22.746052 
	C102.149582,23.386795 97.556358,24.198555 92.963142,25.010313 
z"/>
<path fill="#109C08" opacity="1.000000" stroke="none" 
	d="
M60.147850,102.186920 
	C64.050186,100.435829 67.250557,96.807404 71.927414,99.641647 
	C72.000298,99.999786 71.997841,99.993690 71.762085,99.995857 
	C71.350060,100.334595 71.173790,100.671165 71.153641,101.249763 
	C71.872696,102.218933 72.435638,102.946075 72.730255,103.874207 
	C72.650681,105.072319 72.839417,106.069435 73.028145,107.066551 
	C71.558228,107.624107 70.088303,108.181656 68.295433,108.531342 
	C67.957680,107.883186 67.942879,107.442894 67.928070,107.002609 
	C69.355011,103.102051 66.490211,103.138161 64.158798,103.196800 
	C62.604450,103.235893 61.069008,104.026711 59.264622,104.322693 
	C59.315205,103.591873 59.626274,103.019455 60.147850,102.186920 
z"/>
<path fill="#F86810" opacity="1.000000" stroke="none" 
	d="
M86.930359,27.952412 
	C85.568428,31.902466 84.206505,35.852520 83.036446,40.197151 
	C83.228310,40.591732 82.992310,41.010937 82.992310,41.010937 
	C82.033997,41.492657 81.075684,41.974377 79.218910,42.907730 
	C79.923676,37.745907 80.533165,33.281910 81.257248,28.321407 
	C83.224678,27.867409 85.077522,27.909910 86.930359,27.952412 
z"/>
<path fill="#0E9A0A" opacity="1.000000" stroke="none" 
	d="
M120.746140,101.794388 
	C118.104668,101.693298 115.424911,101.329750 112.016319,100.871338 
	C110.454475,100.850243 109.621468,100.924019 108.487152,100.944443 
	C107.465919,99.946754 106.745972,99.002434 106.026031,98.058105 
	C107.451118,95.589661 109.261520,94.740326 112.076614,96.081749 
	C113.799042,96.902512 115.804726,97.128830 118.063492,98.162880 
	C118.924606,99.203766 119.405411,99.703888 119.886223,100.204010 
	C120.160095,100.646645 120.433975,101.089287 120.746140,101.794388 
z"/>
<path fill="#ECF6EC" opacity="1.000000" stroke="none" 
	d="
M28.053291,179.946472 
	C27.959002,180.921249 27.864708,181.896027 27.494146,183.152954 
	C25.411264,182.291000 23.604652,181.146896 21.301771,179.688507 
	C21.348312,179.157928 21.456284,177.927017 21.511204,177.300919 
	C20.161751,176.289169 19.140657,175.523605 18.119564,174.758041 
	C18.747808,174.167877 19.376055,173.577728 20.343182,172.981155 
	C21.620039,173.323273 22.674728,174.130432 23.472345,173.927444 
	C25.284004,173.466385 26.969254,172.508606 29.326069,172.535522 
	C26.952545,174.788467 24.579020,177.041412 21.863716,179.618774 
	C23.142504,179.774170 23.782267,179.851898 25.114956,179.891052 
	C26.556353,179.883789 27.304823,179.915131 28.053291,179.946472 
z"/>
<path fill="#F89511" opacity="1.000000" stroke="none" 
	d="
M92.970741,25.253174 
	C97.556358,24.198555 102.149582,23.386795 106.993515,22.856590 
	C107.244225,23.138145 107.203224,23.130665 106.916496,23.196609 
	C106.433289,23.569521 106.236809,23.876486 106.040337,24.183451 
	C104.270416,25.742403 102.500496,27.301355 100.143059,28.859245 
	C97.363388,27.899456 95.171227,26.940723 92.979065,25.981991 
	C92.979065,25.981991 92.978340,25.496033 92.970741,25.253174 
z"/>
<path fill="#30A111" opacity="1.000000" stroke="none" 
	d="
M117.969452,88.790405 
	C116.019577,86.683922 113.997208,84.638336 112.152794,82.443237 
	C111.327980,81.461609 108.469711,80.880814 111.656174,78.764816 
	C113.136780,79.254005 114.003647,79.774704 114.870506,80.295403 
	C114.966225,80.635185 115.186005,80.845024 115.847374,81.204742 
	C116.371964,81.781784 116.656616,81.928452 117.018845,81.924568 
	C117.204659,82.214638 117.390472,82.504707 117.888062,83.121353 
	C118.393448,83.750847 118.669952,83.907059 119.029350,83.916557 
	C119.757706,84.870392 120.486061,85.824226 121.506134,87.252960 
	C121.854095,88.124756 121.910347,88.521645 121.966606,88.918533 
	C121.533379,88.980858 121.100143,89.043190 120.007660,89.067139 
	C118.888748,88.949310 118.429100,88.869858 117.969452,88.790405 
z"/>
<path fill="#F89217" opacity="1.000000" stroke="none" 
	d="
M86.945999,27.955135 
	C85.077522,27.909910 83.224678,27.867409 81.115829,27.980846 
	C78.967468,26.693579 77.075104,25.250368 75.069382,23.221165 
	C74.965530,22.435263 74.975037,22.235353 75.381454,22.023064 
	C79.872551,23.375113 83.966751,24.739540 87.928871,26.337078 
	C87.521034,27.025068 87.245262,27.479948 86.969498,27.934830 
	C86.969498,27.934832 86.961647,27.957861 86.945999,27.955135 
z"/>
<path fill="#3AA91C" opacity="1.000000" stroke="none" 
	d="
M44.975296,137.370346 
	C47.231556,142.961029 49.160767,137.751907 51.576408,137.506012 
	C51.951405,138.839249 51.980427,139.847382 51.663338,140.931946 
	C49.711876,141.997604 48.106525,142.986862 46.501175,143.976120 
	C44.978958,143.661942 43.456745,143.347748 41.599640,142.817886 
	C41.264748,142.602219 41.331139,142.137100 41.331139,142.137100 
	C41.846371,141.635681 42.361595,141.134262 43.251366,140.239471 
	C44.075706,139.020844 44.525501,138.195587 44.975296,137.370346 
z"/>
<path fill="#562A03" opacity="1.000000" stroke="none" 
	d="
M80.560989,255.848053 
	C80.876984,256.339813 81.148277,257.202118 80.833778,257.592560 
	C77.924957,261.204010 79.771034,263.459473 82.963058,265.767120 
	C80.335381,265.951538 77.662262,265.773865 73.901375,265.523865 
	C76.493095,261.632446 78.368828,258.816101 80.560989,255.848053 
z"/>
<path fill="#F66A14" opacity="1.000000" stroke="none" 
	d="
M92.668671,26.025883 
	C95.171227,26.940723 97.363388,27.899456 99.844444,28.997633 
	C100.088402,30.178320 100.043457,31.219563 99.954453,32.653000 
	C97.269600,30.919922 92.759766,31.872473 91.163177,27.532536 
	C91.474503,26.858204 91.916389,26.463989 92.668671,26.025883 
z"/>
<path fill="#FAC83B" opacity="1.000000" stroke="none" 
	d="
M74.984550,22.035444 
	C74.975037,22.235353 74.965530,22.435263 74.901909,22.930534 
	C73.982605,22.592237 73.117409,21.958582 71.612518,20.856417 
	C76.944618,19.426439 81.521622,18.198967 86.457550,16.813892 
	C86.867653,17.476261 86.918839,18.296234 86.527420,19.555408 
	C82.384727,20.674889 78.684639,21.355165 74.984550,22.035444 
z"/>
<path fill="#F3F8D2" opacity="1.000000" stroke="none" 
	d="
M83.312607,41.173882 
	C82.992310,41.010937 83.228310,40.591732 83.293022,40.359295 
	C85.290901,39.238907 87.224068,38.350956 89.441833,37.342827 
	C88.750359,40.127609 87.774261,43.032566 86.501480,46.138786 
	C85.347496,44.672310 84.490196,43.004570 83.312607,41.173882 
z"/>
<path fill="#EBF9E9" opacity="1.000000" stroke="none" 
	d="
M48.766418,113.026833 
	C49.689377,113.861015 50.281509,114.676949 51.054760,115.756622 
	C49.900124,117.200180 48.564369,118.380005 46.923782,119.690933 
	C45.593170,118.585434 44.567398,117.348839 43.226566,115.732437 
	C44.999512,114.805351 46.717552,113.906975 48.766418,113.026833 
M47.583916,117.514526 
	C47.583916,117.514526 47.469528,117.581009 47.583916,117.514526 
z"/>
<path fill="#F66A14" opacity="1.000000" stroke="none" 
	d="
M100.099274,41.220032 
	C100.828415,38.648319 95.591614,36.757969 99.764328,34.067268 
	C101.115807,36.565212 102.167976,39.237457 103.658241,43.022335 
	C101.668427,42.115833 100.970108,41.797699 100.099274,41.220032 
z"/>
<path fill="#DBF8D0" opacity="1.000000" stroke="none" 
	d="
M103.063278,66.749107 
	C102.971756,65.071831 102.880234,63.394558 102.831291,61.382141 
	C106.608040,62.410595 108.620644,64.354019 105.184349,68.440292 
	C104.958679,68.714592 104.801178,68.658226 104.394135,68.618546 
	C104.144592,68.635231 103.998535,68.791359 104.150696,68.557976 
	C103.889671,67.799431 103.476479,67.274269 103.063278,66.749107 
z"/>
<path fill="#EBF9E9" opacity="1.000000" stroke="none" 
	d="
M120.037918,99.876740 
	C119.405411,99.703888 118.924606,99.203766 118.309311,98.469681 
	C119.408089,97.050949 120.641342,95.866173 121.928299,94.361252 
	C122.850792,93.123932 123.719574,92.206757 124.588356,91.289581 
	C125.111946,91.741470 125.635544,92.193352 126.159134,92.645241 
	C125.066399,93.834579 123.946777,95.000610 122.888985,96.220253 
	C121.953415,97.298965 121.086723,98.437401 120.037918,99.876740 
z"/>
<path fill="#E8F6E7" opacity="1.000000" stroke="none" 
	d="
M45.271263,137.140503 
	C44.525501,138.195587 44.075706,139.020844 43.343704,139.981445 
	C42.198853,139.670395 41.376701,138.990372 40.464081,138.832153 
	C39.086185,138.593231 37.645168,138.718369 36.117424,138.379181 
	C37.883450,137.666702 39.748569,137.158600 41.647648,136.897675 
	C42.929390,136.721588 44.259026,136.894089 45.271263,137.140503 
z"/>
<path fill="#1A7F1C" opacity="1.000000" stroke="none" 
	d="
M154.311722,189.214157 
	C154.919861,188.494232 155.786255,187.997940 156.839478,187.252319 
	C157.719772,187.733902 158.413239,188.464813 159.172852,189.495834 
	C157.831955,190.537659 156.424911,191.279358 155.354279,191.843719 
	C155.401367,191.988205 154.985687,190.712982 154.311722,189.214157 
z"/>
<path fill="#EBF9E9" opacity="1.000000" stroke="none" 
	d="
M114.897629,79.933342 
	C114.003647,79.774704 113.136780,79.254005 111.975006,78.662155 
	C110.981201,78.015381 110.282310,77.439751 109.352684,76.674080 
	C109.969589,76.254036 110.491074,75.898964 111.086746,75.239021 
	C112.415535,76.479858 113.670151,78.025574 114.897629,79.933342 
z"/>
<path fill="#EBF9E9" opacity="1.000000" stroke="none" 
	d="
M43.900917,121.972595 
	C43.383652,123.183731 42.664234,124.087669 41.665695,125.075867 
	C40.759087,124.222603 40.131611,123.285088 39.504135,122.347565 
	C40.902340,122.120178 42.300552,121.892792 43.900917,121.972595 
z"/>
<path fill="#EBF9E9" opacity="1.000000" stroke="none" 
	d="
M129.387787,112.471893 
	C129.198212,111.603035 129.284439,110.557510 129.247681,109.224861 
	C130.354202,109.315956 131.583710,109.694176 132.813202,110.072395 
	C132.813522,110.473389 132.813843,110.874390 132.814163,111.275391 
	C131.763977,111.615334 130.713776,111.955276 129.387787,112.471893 
z"/>
<path fill="#13620C" opacity="1.000000" stroke="none" 
	d="
M24.429295,190.728790 
	C23.852407,192.105316 22.951517,193.545807 21.700279,194.995285 
	C22.268387,193.600418 23.186840,192.196594 24.429295,190.728790 
z"/>
<path fill="#EBF9E9" opacity="1.000000" stroke="none" 
	d="
M122.135925,89.166199 
	C121.910347,88.521645 121.854095,88.124756 121.753639,87.427429 
	C122.608139,87.574409 123.506836,88.021843 124.405540,88.469269 
	C123.705444,88.784142 123.005341,89.099007 122.135925,89.166199 
z"/>
<path fill="#1A7F1C" opacity="1.000000" stroke="none" 
	d="
M159.351074,193.900345 
	C159.575226,193.345917 160.143356,192.889557 160.860016,192.198486 
	C161.951172,192.466217 162.893799,192.968674 163.836426,193.471115 
	C163.500107,193.924576 163.163788,194.378021 162.827469,194.831467 
	C161.783325,194.553772 160.739197,194.276093 159.351074,193.900345 
z"/>
<path fill="#EBF9E9" opacity="1.000000" stroke="none" 
	d="
M117.764938,88.879700 
	C118.429100,88.869858 118.888748,88.949310 119.684479,89.124786 
	C120.009956,89.936142 119.999344,90.651489 119.975739,91.724274 
	C119.040573,91.270905 118.118408,90.460098 117.157074,89.338242 
	C117.117905,89.027191 117.560417,88.968987 117.764938,88.879700 
z"/>
<path fill="#ECF6EC" opacity="1.000000" stroke="none" 
	d="
M19.786871,183.805527 
	C19.231695,184.047791 18.735609,183.993469 18.239521,183.939148 
	C18.351570,183.494064 18.463621,183.048981 18.575672,182.603897 
	C18.999102,182.905579 19.422531,183.207245 19.786871,183.805527 
z"/>
<path fill="#ECF6EC" opacity="1.000000" stroke="none" 
	d="
M26.663677,184.038712 
	C26.982153,184.445480 27.007666,184.891220 26.990696,185.669357 
	C26.442564,185.681351 25.936914,185.360931 25.431263,185.040512 
	C25.744411,184.719559 26.057562,184.398621 26.663677,184.038712 
z"/>
<path fill="#EBF9E9" opacity="1.000000" stroke="none" 
	d="
M125.539169,100.386368 
	C125.654778,99.936684 125.937897,99.661194 126.239174,99.407234 
	C126.247086,99.400566 126.452736,99.628464 126.566170,99.746979 
	C126.280479,100.019127 125.994789,100.291275 125.539169,100.386368 
z"/>
<path fill="#FBFAEE" opacity="1.000000" stroke="none" 
	d="
M93.398537,4.720909 
	C93.559525,4.848435 93.582870,5.069299 93.606216,5.290163 
	C93.491112,5.131525 93.375999,4.972886 93.398537,4.720909 
z"/>
<path fill="#FBFAEE" opacity="1.000000" stroke="none" 
	d="
M93.922447,10.878004 
	C93.592026,10.695454 93.274719,10.181859 92.917442,9.351021 
	C93.230171,9.538172 93.582870,10.042566 93.922447,10.878004 
z"/>
<path fill="#FBFAEE" opacity="1.000000" stroke="none" 
	d="
M94.965012,12.983126 
	C94.395866,13.036111 94.167488,12.830104 94.093582,12.230837 
	C94.464546,12.283963 94.817123,12.579481 94.965012,12.983126 
z"/>
<path fill="#1A7F1C" opacity="1.000000" stroke="none" 
	d="
M160.355652,190.824738 
	C160.013901,190.790329 159.612000,190.522858 159.203491,189.999084 
	C159.563080,190.025757 159.929306,190.308716 160.355652,190.824738 
z"/>
<path fill="#E8F6E7" opacity="1.000000" stroke="none" 
	d="
M40.167309,143.495834 
	C40.133270,143.982681 39.812916,144.381042 39.234009,144.789963 
	C39.277298,144.336136 39.579147,143.871735 40.167309,143.495834 
z"/>
<path fill="#EBF9E9" opacity="1.000000" stroke="none" 
	d="
M124.033295,104.493607 
	C123.655914,104.443695 123.241173,104.097481 122.764458,103.479111 
	C123.133636,103.537079 123.564781,103.867188 124.033295,104.493607 
z"/>
<path fill="#E8F6E7" opacity="1.000000" stroke="none" 
	d="
M37.800591,129.019791 
	C38.075443,129.382217 37.950787,129.678207 37.435467,129.987793 
	C37.317951,129.717041 37.436710,129.367706 37.800591,129.019791 
z"/>
<path fill="#EBF9E9" opacity="1.000000" stroke="none" 
	d="
M122.758430,103.005074 
	C122.325806,103.015182 121.857552,102.734901 121.323776,102.180016 
	C121.746437,102.175179 122.234619,102.444931 122.758430,103.005074 
z"/>
<path fill="#E8F6E7" opacity="1.000000" stroke="none" 
	d="
M36.523567,131.078796 
	C36.787727,131.335861 36.674477,131.579575 36.164253,131.792480 
	C35.973835,131.558304 36.100128,131.326218 36.523567,131.078796 
z"/>
<path fill="#E8F6E7" opacity="1.000000" stroke="none" 
	d="
M41.040878,142.236847 
	C41.331139,142.137100 41.264748,142.602219 41.247383,142.836502 
	C41.230019,143.070786 40.918507,143.287827 40.748795,143.372238 
	C40.636261,143.083298 40.693439,142.709946 41.040878,142.236847 
z"/>
<path fill="#EBF9E9" opacity="1.000000" stroke="none" 
	d="
M128.970993,107.970161 
	C129.082108,107.947342 129.193237,107.924522 129.151932,107.950546 
	C128.999512,107.999390 128.970993,107.970161 128.970993,107.970161 
z"/>
<path fill="#EBF9E9" opacity="1.000000" stroke="none" 
	d="
M129.050323,108.665627 
	C128.700348,108.876244 128.404602,108.741173 128.061752,108.247162 
	C128.123093,108.006302 128.292526,107.990868 128.716476,107.972794 
	C128.970993,107.970161 128.999512,107.999390 129.014954,108.014236 
	C129.030411,108.029091 129.043579,108.453453 129.050323,108.665627 
z"/>
<path fill="#FCB61B" opacity="1.000000" stroke="none" 
	d="
M106.313553,24.107544 
	C106.236809,23.876486 106.433289,23.569521 106.900398,23.183517 
	C106.976280,23.413532 106.781525,23.722584 106.313553,24.107544 
z"/>
<path fill="#E8F6E7" opacity="1.000000" stroke="none" 
	d="
M33.451164,128.533310 
	C33.417675,128.477005 33.484653,128.589615 33.451164,128.533310 
z"/>
<path fill="#E8F6E7" opacity="1.000000" stroke="none" 
	d="
M39.579018,127.041824 
	C39.836781,127.300362 39.718620,127.580063 39.203606,127.856316 
	C38.984882,127.599281 39.116997,127.335991 39.579018,127.041824 
z"/>
<path fill="#DBF8D0" opacity="1.000000" stroke="none" 
	d="
M105.972122,69.691757 
	C105.643456,69.945961 105.377266,69.783691 105.212463,69.179596 
	C105.512070,69.008636 105.752319,69.187813 105.972122,69.691757 
z"/>
<path fill="#ECF6EC" opacity="1.000000" stroke="none" 
	d="
M18.531124,180.549683 
	C18.476852,180.581879 18.585398,180.517487 18.531124,180.549683 
z"/>
<path fill="#EBF9E9" opacity="1.000000" stroke="none" 
	d="
M110.974014,74.642159 
	C110.699730,74.877968 110.440254,74.737999 110.246704,74.186813 
	C110.503555,74.032700 110.728951,74.196289 110.974014,74.642159 
z"/>
<path fill="#06B506" opacity="1.000000" stroke="none" 
	d="
M155.984970,163.962646 
	C155.791107,164.077881 155.564072,164.000580 155.468704,163.761276 
	C155.600372,163.599258 155.951797,163.770111 155.984970,163.962646 
z"/>
<path fill="#EBF9E9" opacity="1.000000" stroke="none" 
	d="
M116.918373,81.704544 
	C116.656616,81.928452 116.371964,81.781784 116.080414,81.251328 
	C116.336494,81.056236 116.610489,81.211716 116.918373,81.704544 
z"/>
<path fill="#EBF9E9" opacity="1.000000" stroke="none" 
	d="
M118.968216,82.966942 
	C119.081245,82.946136 119.194283,82.925323 119.153305,82.951828 
	C118.999306,82.999138 118.968216,82.966942 118.968216,82.966942 
z"/>
<path fill="#EBF9E9" opacity="1.000000" stroke="none" 
	d="
M119.032486,83.695374 
	C118.669952,83.907059 118.393448,83.750847 118.138031,83.209290 
	C118.076218,82.970665 118.522934,82.964485 118.745575,82.965714 
	C118.968216,82.966942 118.999306,82.999138 119.016144,83.015472 
	C119.032974,83.031815 119.035629,83.474197 119.032486,83.695374 
z"/>
<path fill="#066302" opacity="1.000000" stroke="none" 
	d="
M128.572327,177.003342 
	C130.025482,178.198120 131.049149,179.391495 132.176392,181.193588 
	C132.230774,182.336914 132.181580,182.871506 132.167938,183.718430 
	C132.466034,184.339508 132.728561,184.648270 133.013779,184.965668 
	C133.036469,184.974335 133.036545,185.022888 133.118500,185.232330 
	C133.366867,185.704941 133.594803,185.893860 134.235321,186.057465 
	C135.055908,186.151443 135.525467,186.196487 135.995148,186.536743 
	C135.995377,187.225754 135.995468,187.619522 135.995560,188.013306 
	C135.561020,188.018753 135.126495,188.024185 134.101929,188.019897 
	C133.336029,188.010376 133.160156,188.010590 132.984299,188.010818 
	C129.300278,186.060684 125.616249,184.110565 121.015022,181.674927 
	C121.015022,184.404236 121.015022,186.298782 120.663757,188.575836 
	C117.210358,187.309418 114.108215,185.660492 111.006073,184.011566 
	C110.515495,184.263641 110.024918,184.515717 109.313530,184.504242 
	C109.827057,182.115463 110.946663,179.798157 106.657196,179.976990 
	C105.921486,180.952499 105.514046,181.964966 105.106598,182.977432 
	C103.702057,188.371506 108.013802,191.663406 109.860352,195.858749 
	C110.483040,197.273453 111.239098,198.629456 111.934196,200.012299 
	C111.373199,200.487213 110.812202,200.962128 110.251205,201.437057 
	C108.690125,199.437973 107.129044,197.438889 105.109650,194.937012 
	C99.852089,191.497238 95.052841,188.560272 89.452332,185.132965 
	C89.317673,187.436279 89.246674,188.650650 89.175674,189.865005 
	C88.769875,192.474213 88.364082,195.083420 87.958282,197.692627 
	C87.414429,197.740158 86.870575,197.787689 86.326721,197.835220 
	C85.266678,195.239883 84.471771,192.486816 83.054428,190.104004 
	C82.091644,188.485397 80.256065,187.385956 78.338211,185.745392 
	C76.549019,183.972107 75.232414,182.507812 73.915817,181.043518 
	C76.536079,179.791519 79.156349,178.539536 81.746277,177.302032 
	C85.993156,182.548065 88.125366,177.395721 90.970001,175.232758 
	C91.759926,174.887726 92.500542,174.903870 93.610664,174.893036 
	C95.151093,175.959549 96.322021,177.053040 97.492950,178.146515 
	C97.808838,177.916611 98.124725,177.686691 98.440620,177.456787 
	C98.156120,176.522217 97.871620,175.587646 97.754173,175.201859 
	C107.826469,175.798492 117.984650,176.400208 128.572327,177.003342 
M103.526527,178.633453 
	C103.471535,178.846497 103.416542,179.059525 103.361542,179.272568 
	C103.496490,179.135605 103.631432,178.998642 103.526527,178.633453 
z"/>
<path fill="#086503" opacity="1.000000" stroke="none" 
	d="
M42.013100,181.840225 
	C42.013096,181.840225 41.993832,181.395554 41.980110,181.172897 
	C45.725365,175.951462 51.434570,180.461426 55.613468,177.510056 
	C55.915695,177.961105 56.217926,178.412155 56.520153,178.863190 
	C55.337940,179.165771 54.155731,179.468353 52.973518,179.770935 
	C53.348495,180.252106 53.723473,180.733276 54.098446,181.214447 
	C58.592319,180.562576 63.076309,179.817841 67.588455,179.337692 
	C68.483780,179.242416 69.487091,180.161926 70.739204,181.136734 
	C71.064674,181.877625 71.091545,182.095245 71.169746,182.657471 
	C70.189781,185.537628 68.399681,188.120850 71.434059,190.704834 
	C69.135948,192.745422 67.088776,194.466354 65.041603,196.187286 
	C65.041603,192.326752 65.041603,188.466217 65.041603,183.743317 
	C62.506599,184.787643 60.819912,185.482498 58.731781,186.561096 
	C57.904148,186.976334 57.477966,187.007828 57.051781,187.039307 
	C54.501076,187.906647 51.950363,188.773972 48.897141,189.812180 
	C48.213409,188.850021 47.313416,187.583557 46.026962,185.822540 
	C44.431366,184.165421 43.222233,183.002823 42.013100,181.840225 
z"/>
<path fill="#E2C013" opacity="1.000000" stroke="none" 
	d="
M71.684998,190.385162 
	C68.399681,188.120850 70.189781,185.537628 71.476578,182.587860 
	C72.189232,181.788330 72.646385,181.403015 73.103539,181.017715 
	C73.103539,181.017715 73.511360,180.999161 73.713585,181.021332 
	C75.232414,182.507812 76.549019,183.972107 77.966324,185.766663 
	C76.587578,187.608688 75.108124,189.120453 73.099182,190.571533 
	C72.284515,190.400467 71.989616,190.358566 71.684998,190.385162 
z"/>
<path fill="#06B906" opacity="1.000000" stroke="none" 
	d="
M71.434059,190.704834 
	C71.989616,190.358566 72.284515,190.400467 72.758987,190.635834 
	C72.179298,196.951538 66.834724,203.059891 59.568356,204.972794 
	C61.702793,201.763306 63.334064,199.310425 65.003471,196.522415 
	C67.088776,194.466354 69.135948,192.745422 71.434059,190.704834 
z"/>
<path fill="#06AA06" opacity="1.000000" stroke="none" 
	d="
M89.532921,189.900620 
	C89.246674,188.650650 89.317673,187.436279 89.452332,185.132965 
	C95.052841,188.560272 99.852089,191.497238 104.855797,194.703979 
	C100.250435,197.941833 97.319603,193.492355 93.647209,192.037384 
	C92.324928,191.513519 91.138557,190.646606 89.532921,189.900620 
z"/>
<path fill="#06B906" opacity="1.000000" stroke="none" 
	d="
M111.042870,184.361679 
	C114.108215,185.660492 117.210358,187.309418 120.667404,189.002747 
	C123.426659,190.732880 125.831017,192.418610 128.329178,194.170120 
	C122.460854,195.527390 114.917183,191.331284 111.042870,184.361679 
z"/>
<path fill="#06B906" opacity="1.000000" stroke="none" 
	d="
M56.986847,187.370209 
	C57.477966,187.007828 57.904148,186.976334 58.649605,186.914398 
	C58.597786,188.615234 58.732880,190.733902 57.760254,192.004807 
	C54.895092,195.748642 52.262066,200.015869 46.403214,200.280411 
	C49.909451,196.087326 53.415684,191.894226 56.986847,187.370209 
z"/>
<path fill="#E56561" opacity="1.000000" stroke="none" 
	d="
M41.681606,181.927002 
	C43.222233,183.002823 44.431366,184.165421 45.718143,185.653809 
	C42.387192,190.274307 40.833241,190.251068 38.034027,185.524628 
	C39.080952,184.127533 40.215534,183.070648 41.681606,181.927002 
z"/>
<path fill="#F3D819" opacity="1.000000" stroke="none" 
	d="
M135.995010,186.241516 
	C135.525467,186.196487 135.055908,186.151443 134.170441,185.833420 
	C133.617538,185.244553 133.378220,185.065369 133.036545,185.022888 
	C133.036545,185.022888 133.036469,184.974335 132.981781,184.653931 
	C132.662201,184.024399 132.397278,183.715256 132.132385,183.406113 
	C132.181580,182.871506 132.230774,182.336914 132.222092,181.535400 
	C138.160965,177.645599 139.276169,177.925598 140.140259,183.655365 
	C139.399109,184.712753 138.572861,185.364456 137.142319,186.041199 
	C136.357025,186.124634 136.176025,186.183075 135.995010,186.241516 
z"/>
<path fill="#037706" opacity="1.000000" stroke="none" 
	d="
M139.025772,197.037521 
	C138.629700,195.341049 138.398315,193.966263 138.166946,192.591461 
	C139.339355,192.679260 141.191376,192.350159 141.551041,192.936493 
	C142.466476,194.428787 142.714722,196.330353 143.229996,198.068115 
	C141.883484,197.831802 140.536972,197.595505 139.025772,197.037521 
z"/>
<path fill="#037706" opacity="1.000000" stroke="none" 
	d="
M46.087250,205.408447 
	C48.357140,204.736847 50.282509,203.989426 52.553825,203.107712 
	C50.386173,207.271683 46.915962,208.502319 41.337318,206.459717 
	C42.805786,206.084030 44.274258,205.708344 46.087250,205.408447 
z"/>
<path fill="#0A6304" opacity="1.000000" stroke="none" 
	d="
M106.985458,180.013962 
	C110.946663,179.798157 109.827057,182.115463 109.055008,184.602936 
	C108.130943,184.803589 107.244606,184.641983 106.514572,184.190247 
	C106.775734,182.604736 106.880592,181.309341 106.985458,180.013962 
z"/>
<path fill="#FAB7B2" opacity="1.000000" stroke="none" 
	d="
M106.657196,179.976990 
	C106.880592,181.309341 106.775734,182.604736 106.338867,183.892914 
	C106.039444,183.522034 105.896194,183.251572 105.341843,183.025879 
	C105.514046,181.964966 105.921486,180.952499 106.657196,179.976990 
z"/>
<path fill="#066302" opacity="1.000000" stroke="none" 
	d="
M113.195709,203.265518 
	C113.985435,203.066620 114.726669,203.191284 115.467911,203.315964 
	C115.392754,203.734116 115.317589,204.152283 115.242432,204.570435 
	C114.544022,204.243317 113.845627,203.916199 113.195709,203.265518 
z"/>
<path fill="#0A6304" opacity="1.000000" stroke="none" 
	d="
M135.995148,186.536743 
	C136.176025,186.183075 136.357025,186.124634 136.819183,186.121124 
	C136.894562,186.692520 136.688782,187.209015 136.239288,187.869400 
	C135.995468,187.619522 135.995377,187.225754 135.995148,186.536743 
z"/>
<path fill="#0A6304" opacity="1.000000" stroke="none" 
	d="
M133.079468,188.176910 
	C133.160156,188.010590 133.336029,188.010376 133.776001,188.018127 
	C133.751617,188.131729 133.463120,188.237366 133.079468,188.176910 
z"/>
<path fill="#0B9A08" opacity="1.000000" stroke="none" 
	d="
M52.009445,140.855515 
	C51.980427,139.847382 51.951405,138.839249 51.900925,137.455917 
	C53.445324,137.426559 55.011177,137.772415 56.465080,138.093536 
	C57.361530,137.742126 58.571728,136.901566 59.818066,136.844040 
	C64.620918,136.622391 69.441635,136.760391 74.239555,136.484192 
	C75.088341,136.435333 75.860092,135.048309 76.607819,134.336014 
	C77.928139,136.028046 79.081734,137.506424 80.622330,139.343445 
	C81.679314,140.807556 82.349319,141.913025 82.908203,143.276001 
	C82.530983,144.025848 82.264885,144.518173 81.998779,145.010513 
	C77.348755,145.529434 78.117821,150.481354 76.499954,152.243347 
	C73.118134,149.674606 70.227364,147.022293 66.863434,145.287491 
	C66.142632,144.915741 63.707989,147.867233 61.697289,149.637360 
	C60.892391,149.965332 60.453072,149.943756 60.013748,149.922180 
	C59.119751,147.617523 63.145725,141.992599 55.483253,143.671539 
	C54.001736,142.561829 53.005589,141.708664 52.009445,140.855515 
z"/>
<path fill="#08DF09" opacity="1.000000" stroke="none" 
	d="
M111.425789,148.958649 
	C110.306664,146.928543 109.557709,144.922623 108.808754,142.916718 
	C109.193275,142.584076 109.577789,142.251434 109.962311,141.918808 
	C114.902870,145.410126 119.843437,148.901459 124.955948,152.695633 
	C119.831787,154.489014 116.124969,150.703094 111.425789,148.958649 
z"/>
<path fill="#0BE10D" opacity="1.000000" stroke="none" 
	d="
M96.266121,147.207092 
	C96.080261,146.218826 96.158417,145.441010 96.294106,144.090637 
	C100.438232,147.753845 104.151054,151.035812 107.935822,154.651978 
	C108.312828,156.133942 108.617897,157.281723 108.922974,158.429504 
	C103.079140,156.275085 99.111603,152.581390 96.266121,147.207092 
z"/>
<path fill="#0BE10D" opacity="1.000000" stroke="none" 
	d="
M59.870384,150.230896 
	C60.453072,149.943756 60.892391,149.965332 61.661461,149.996155 
	C60.281815,157.261230 55.355862,161.667114 49.504002,165.252625 
	C48.985538,164.823288 48.467079,164.393951 47.948616,163.964615 
	C51.874752,159.489609 55.800888,155.014603 59.870384,150.230896 
z"/>
<path fill="#1C8B09" opacity="1.000000" stroke="none" 
	d="
M82.289734,145.162842 
	C82.264885,144.518173 82.530983,144.025848 83.277458,143.261566 
	C84.502090,141.989212 85.246353,140.988831 85.990623,139.988449 
	C85.990623,139.988449 85.999695,140.000000 86.331726,139.997528 
	C87.109146,139.996933 87.554543,139.998810 87.999939,140.000687 
	C88.002724,140.395706 88.005508,140.790710 87.711784,141.643280 
	C87.328232,142.733994 87.241196,143.367126 87.066635,144.259644 
	C86.976524,144.878906 86.973946,145.238831 86.695869,145.832962 
	C87.649635,146.389145 88.878899,146.711090 90.108162,147.033035 
	C90.515747,148.789841 90.923332,150.546661 91.331635,152.306549 
	C85.971260,153.411652 84.843887,152.618454 83.830185,147.369949 
	C83.687675,146.632111 83.010422,145.997543 82.289734,145.162842 
z"/>
<path fill="#E9C50D" opacity="1.000000" stroke="none" 
	d="
M51.663334,140.931946 
	C53.005589,141.708664 54.001736,142.561829 55.163567,143.736267 
	C53.864292,145.550735 52.605511,147.740021 50.852104,148.259354 
	C49.897842,148.541992 48.103645,145.988754 46.594727,144.345367 
	C48.106525,142.986862 49.711876,141.997604 51.663334,140.931946 
z"/>
<path fill="#E56561" opacity="1.000000" stroke="none" 
	d="
M90.268585,146.871277 
	C88.878899,146.711090 87.649635,146.389145 86.958839,145.895142 
	C88.595581,145.613632 89.693855,145.504196 90.792130,145.394760 
	C90.792130,145.394760 90.961815,145.718948 91.019333,145.893127 
	C90.855507,146.275925 90.639549,146.489990 90.268585,146.871277 
z"/>
<path fill="#06AA06" opacity="1.000000" stroke="none" 
	d="
M103.845261,131.701111 
	C102.456383,133.747162 103.719696,139.878967 98.170181,135.312317 
	C100.352074,134.515091 98.599609,127.549675 103.845261,131.701111 
z"/>
<path fill="#0E9A0A" opacity="1.000000" stroke="none" 
	d="
M85.727829,139.807526 
	C85.246353,140.988831 84.502090,141.989212 83.388580,143.004059 
	C82.349319,141.913025 81.679314,140.807556 81.005959,139.358673 
	C82.891342,136.290176 84.263283,137.337265 85.727829,139.807526 
z"/>
<path fill="#0B9A08" opacity="1.000000" stroke="none" 
	d="
M88.157494,139.852478 
	C87.554543,139.998810 87.109146,139.996933 86.329681,139.990753 
	C86.100021,139.665543 86.289246,139.406616 86.783020,139.103607 
	C87.440186,139.233124 87.877617,139.468689 88.157494,139.852478 
z"/>
<path fill="#109C08" opacity="1.000000" stroke="none" 
	d="
M105.748573,97.868576 
	C106.745972,99.002434 107.465919,99.946754 108.567810,101.274841 
	C109.020851,102.107368 109.091942,102.556152 109.163033,103.004929 
	C107.271507,103.476334 105.379990,103.947731 103.067032,104.791786 
	C102.757713,105.451004 102.869812,105.737564 102.981918,106.024132 
	C102.981918,106.024132 102.994850,106.010689 102.981834,106.015686 
	C101.824539,106.343117 100.556885,107.136963 99.564949,106.877342 
	C98.082191,106.489265 96.793465,105.359802 95.354744,104.103241 
	C93.859642,102.446030 92.431999,101.231293 91.004356,100.016548 
	C94.861328,98.858757 99.312691,99.892540 102.693954,96.760147 
	C103.039429,96.440102 104.518219,97.343422 105.748573,97.868576 
z"/>
<path fill="#11F011" opacity="1.000000" stroke="none" 
	d="
M104.043915,106.358368 
	C105.473083,107.071472 107.132286,107.951088 108.362404,109.240166 
	C111.679619,112.716362 114.813988,116.367035 117.507675,120.505447 
	C113.116249,118.733147 108.118782,117.942284 106.271439,112.237228 
	C105.358940,110.250351 104.718597,108.480988 104.043915,106.358368 
z"/>
<path fill="#11F011" opacity="1.000000" stroke="none" 
	d="
M80.037209,109.004028 
	C80.462204,109.327652 81.305382,109.773315 81.251709,109.957268 
	C79.367371,116.414719 74.518082,120.311211 69.666901,124.199013 
	C69.088737,123.926895 68.510574,123.654778 67.932411,123.382660 
	C68.557228,121.800751 68.817368,119.895355 69.877815,118.699883 
	C72.641724,115.584091 75.756416,112.779457 79.140236,109.482933 
	C79.711922,109.078117 79.874565,109.041069 80.037209,109.004028 
z"/>
<path fill="#11F011" opacity="1.000000" stroke="none" 
	d="
M67.600723,107.057983 
	C67.942879,107.442894 67.957680,107.883186 67.995079,108.652824 
	C64.862740,114.689850 62.054306,120.729980 54.025532,122.847145 
	C57.036034,115.858475 62.980602,112.143234 67.600723,107.057983 
z"/>
<path fill="#1A9A0A" opacity="1.000000" stroke="none" 
	d="
M72.998573,103.673218 
	C72.435638,102.946075 71.872696,102.218933 71.373199,101.138245 
	C71.714645,100.585548 71.901718,100.321884 71.997841,99.993690 
	C71.997841,99.993690 72.000298,99.999786 71.997017,99.998734 
	C76.938965,99.379478 81.884201,98.761276 87.112648,98.107674 
	C87.100281,98.351547 87.050392,99.335739 86.584030,100.656433 
	C79.092773,101.095177 77.986389,102.163528 79.655121,107.023369 
	C78.891373,107.716576 78.445747,108.360725 78.000122,109.004883 
	C77.339058,108.559074 76.677986,108.113274 76.024590,107.082481 
	C76.072922,106.324829 76.113586,106.152161 76.469742,105.808128 
	C77.712349,102.292160 76.198715,102.438751 73.706924,103.695595 
	C73.472214,103.742416 72.998573,103.673218 72.998573,103.673218 
z"/>
<path fill="#E8AE04" opacity="1.000000" stroke="none" 
	d="
M92.644455,104.229614 
	C92.824059,106.196869 93.523216,108.328026 92.975067,110.065720 
	C92.678658,111.005386 89.945267,112.061188 88.866333,111.640625 
	C87.576065,111.137672 86.878799,109.113403 86.242569,107.303696 
	C88.588448,105.982773 90.616455,105.106194 92.644455,104.229614 
z"/>
<path fill="#1A9A0A" opacity="1.000000" stroke="none" 
	d="
M93.028641,104.161926 
	C90.616455,105.106194 88.588448,105.982773 86.201263,106.912399 
	C85.136360,106.983597 84.430641,107.001747 83.402702,106.659027 
	C85.386406,104.522636 87.692337,102.747116 89.998276,100.971603 
	C90.103928,100.656189 90.293602,100.403961 90.785828,100.115746 
	C92.431999,101.231293 93.859642,102.446030 95.128693,103.844940 
	C94.451012,104.050819 93.931915,104.072533 93.028641,104.161926 
z"/>
<path fill="#109C08" opacity="1.000000" stroke="none" 
	d="
M89.623520,100.979660 
	C87.692337,102.747116 85.386406,104.522636 83.049408,106.662415 
	C82.909637,107.338974 82.716850,107.585518 82.203918,107.602020 
	C81.320610,107.298439 80.673355,107.159134 80.012711,107.009033 
	C79.999313,106.998230 79.973251,106.974312 79.973251,106.974312 
	C77.986389,102.163528 79.092773,101.095177 86.583786,100.983337 
	C87.749588,100.978386 88.499184,100.983047 89.623520,100.979660 
z"/>
<path fill="#F89395" opacity="1.000000" stroke="none" 
	d="
M76.154251,105.979485 
	C76.113586,106.152161 76.072922,106.324829 75.969925,106.757202 
	C75.188187,107.038879 74.468773,107.060852 73.388756,107.074692 
	C72.839417,106.069435 72.650681,105.072319 72.730255,103.874207 
	C72.998573,103.673218 73.472214,103.742416 73.797897,104.025406 
	C74.800476,104.865433 75.477364,105.422455 76.154251,105.979485 
z"/>
<path fill="#109C08" opacity="1.000000" stroke="none" 
	d="
M78.274513,109.063736 
	C78.445747,108.360725 78.891373,107.716576 79.655121,107.023369 
	C79.973251,106.974312 79.999313,106.998230 80.009949,107.275574 
	C80.025635,107.730698 80.030685,107.908463 80.035736,108.086235 
	C80.035736,108.086235 80.031204,108.545135 80.034210,108.774582 
	C79.874565,109.041069 79.711922,109.078117 79.315567,109.206894 
	C78.904198,109.239944 78.726555,109.181267 78.274513,109.063736 
z"/>
<path fill="#1A9A0A" opacity="1.000000" stroke="none" 
	d="
M80.363174,108.063599 
	C80.030685,107.908463 80.025635,107.730698 80.023346,107.286377 
	C80.673355,107.159134 81.320610,107.298439 81.984467,107.694916 
	C81.564247,107.981720 81.127426,108.011345 80.363174,108.063599 
z"/>
<path fill="#4EC50B" opacity="1.000000" stroke="none" 
	d="
M78.944260,87.599709 
	C77.279198,88.617264 75.544838,89.289101 73.471451,90.013931 
	C72.908081,88.741585 72.683746,87.416252 72.459412,86.090912 
	C74.597931,86.478607 76.736443,86.866295 78.944260,87.599709 
z"/>
<path fill="#F89395" opacity="1.000000" stroke="none" 
	d="
M122.873695,137.115524 
	C123.705734,137.792740 124.537781,138.469971 125.369812,139.147186 
	C124.915085,139.687012 124.316177,140.745239 124.033455,140.666626 
	C123.273949,140.455399 122.649605,139.758163 122.222198,139.029449 
	C122.606438,138.241821 122.740067,137.678665 122.873695,137.115524 
z"/>
<path fill="#F89395" opacity="1.000000" stroke="none" 
	d="
M90.879250,145.110413 
	C89.693855,145.504196 88.595581,145.613632 87.234337,145.660919 
	C86.973946,145.238831 86.976524,144.878906 87.431709,144.271683 
	C88.647575,143.555374 89.410843,143.086365 90.174103,142.617371 
	C90.438187,143.353592 90.702278,144.089828 90.879250,145.110413 
z"/>
<path fill="#FAB7B2" opacity="1.000000" stroke="none" 
	d="
M89.975266,142.389130 
	C89.410843,143.086365 88.647575,143.555374 87.519241,144.012329 
	C87.241196,143.367126 87.328232,142.733994 87.709915,141.939560 
	C88.595184,141.905807 89.185806,142.033340 89.975266,142.389130 
z"/>
<path fill="#F3F8D2" opacity="1.000000" stroke="none" 
	d="
M122.627136,137.135986 
	C122.740067,137.678665 122.606438,138.241821 122.252502,138.632843 
	C122.148315,138.025986 122.264450,137.591217 122.627136,137.135986 
z"/>
<path fill="#06B506" opacity="1.000000" stroke="none" 
	d="
M129.002975,140.997131 
	C128.575882,140.874237 128.145905,140.754120 127.715935,140.634003 
	C128.063095,140.620773 128.410263,140.607559 128.876892,140.799881 
	C128.996338,141.005417 129.000092,140.999908 129.002975,140.997131 
z"/>
<path fill="#06B406" opacity="1.000000" stroke="none" 
	d="
M96.248947,138.009933 
	C96.413185,137.900696 96.578690,137.954361 96.744194,138.008026 
	C96.579536,138.062958 96.414879,138.117905 96.248947,138.009933 
z"/>
<path fill="#FEFEFD" opacity="1.000000" stroke="none" 
	d="
M131.930084,221.032684 
	C131.513397,220.925797 131.301270,220.576263 131.089127,220.226746 
	C131.371964,220.145172 131.654800,220.063599 132.209717,220.120392 
	C132.366089,220.435837 132.250366,220.612946 131.930084,221.032684 
z"/>
<path fill="#13620C" opacity="1.000000" stroke="none" 
	d="
M28.020926,179.970322 
	C27.304823,179.915131 26.556353,179.883789 25.437241,179.785400 
	C25.904089,179.508240 26.741581,179.298096 27.847916,179.353058 
	C28.116756,179.618149 27.920586,180.037140 27.920586,180.037140 
	C27.920586,180.037140 27.988560,179.994171 28.020926,179.970322 
z"/>
<path fill="#066302" opacity="1.000000" stroke="none" 
	d="
M72.753036,181.005371 
	C72.646385,181.403015 72.189232,181.788330 71.425247,182.243256 
	C71.091545,182.095245 71.064674,181.877625 71.019348,181.331711 
	C71.468102,180.999939 71.935318,180.996475 72.753036,181.005371 
z"/>
<path fill="#06B506" opacity="1.000000" stroke="none" 
	d="
M33.002495,167.003174 
	C32.908455,167.038055 32.811916,167.069778 32.854488,167.048248 
	C32.993603,166.995026 33.000000,167.000000 33.002495,167.003174 
z"/>
<path fill="#066302" opacity="1.000000" stroke="none" 
	d="
M73.467888,178.454834 
	C73.526306,178.419189 73.409470,178.490463 73.467888,178.454834 
z"/>
<path fill="#ECF6EC" opacity="1.000000" stroke="none" 
	d="
M28.154594,180.101059 
	C27.920586,180.037140 28.116756,179.618149 28.186037,179.397949 
	C28.255318,179.177734 28.430140,179.305176 28.532207,179.268463 
	C28.594498,179.553894 28.512608,179.864975 28.154594,180.101059 
z"/>
<path fill="#57CE07" opacity="1.000000" stroke="none" 
	d="
M103.072922,67.083183 
	C103.476479,67.274269 103.889671,67.799431 104.199890,68.652878 
	C103.758804,68.459869 103.420685,67.938568 103.072922,67.083183 
z"/>
<path fill="#FEFEFD" opacity="1.000000" stroke="none" 
	d="
M58.941879,98.942551 
	C59.115131,98.641235 59.423897,98.478493 59.732662,98.315758 
	C59.752529,98.559700 59.772400,98.803650 59.569092,99.204163 
	C59.345913,99.360725 59.077396,99.081131 58.941879,98.942551 
z"/>
<path fill="#57CE07" opacity="1.000000" stroke="none" 
	d="
M67.034760,93.045471 
	C66.922699,93.086906 66.768013,93.082138 66.756165,92.996094 
	C66.898994,92.914810 66.992134,92.999275 67.034760,93.045471 
z"/>
<path fill="#FAB7B2" opacity="1.000000" stroke="none" 
	d="
M109.519951,102.988449 
	C109.091942,102.556152 109.020851,102.107368 108.869110,101.328194 
	C109.621468,100.924019 110.454475,100.850243 111.588089,100.894882 
	C111.218071,101.666183 110.547470,102.319077 109.519951,102.988449 
z"/>
<path fill="#0AD40B" opacity="1.000000" stroke="none" 
	d="
M102.985825,105.761566 
	C102.869812,105.737564 102.757713,105.451004 102.813965,105.069138 
	C102.984795,105.148895 102.987267,105.323944 102.985825,105.761566 
z"/>
<path fill="#F86810" opacity="1.000000" stroke="none" 
	d="
M87.281479,27.933258 
	C87.245262,27.479948 87.521034,27.025068 88.161934,26.319458 
	C88.527069,26.068729 88.994293,26.038378 88.994293,26.038378 
	C88.994293,26.038378 89.041100,26.475691 89.040222,26.695221 
	C88.557396,27.253733 88.075432,27.592710 87.281479,27.933258 
z"/>
<path fill="#FCAE06" opacity="1.000000" stroke="none" 
	d="
M89.002869,25.656590 
	C88.994293,26.038378 88.527069,26.068729 88.294006,26.086349 
	C83.966751,24.739540 79.872551,23.375113 75.381454,22.023064 
	C78.684639,21.355165 82.384727,20.674889 86.517326,19.965401 
	C87.637039,21.715727 88.324242,23.495264 89.002869,25.656590 
z"/>
<path fill="#2FA206" opacity="1.000000" stroke="none" 
	d="
M71.762085,99.995857 
	C71.901718,100.321884 71.714645,100.585548 71.217087,100.896210 
	C71.173790,100.671165 71.350060,100.334595 71.762085,99.995857 
z"/>
<path fill="#FEFEFD" opacity="1.000000" stroke="none" 
	d="
M47.526722,117.547768 
	C47.469528,117.581009 47.583916,117.514526 47.526722,117.547768 
z"/>
<path fill="#0A6304" opacity="1.000000" stroke="none" 
	d="
M103.646454,178.747574 
	C103.631432,178.998642 103.496490,179.135605 103.361542,179.272568 
	C103.416542,179.059525 103.471535,178.846497 103.646454,178.747574 
z"/>
<path fill="#0A6304" opacity="1.000000" stroke="none" 
	d="
M133.118500,185.232330 
	C133.378220,185.065369 133.617538,185.244553 133.819397,185.784485 
	C133.594803,185.893860 133.366867,185.704941 133.118500,185.232330 
z"/>
<path fill="#0A6304" opacity="1.000000" stroke="none" 
	d="
M132.167938,183.718430 
	C132.397278,183.715256 132.662201,184.024399 132.959106,184.645279 
	C132.728561,184.648270 132.466034,184.339508 132.167938,183.718430 
z"/>
<path fill="#FAB7B2" opacity="1.000000" stroke="none" 
	d="
M76.469742,105.808128 
	C75.477364,105.422455 74.800476,104.865433 74.032608,103.978592 
	C76.198715,102.438751 77.712349,102.292160 76.469742,105.808128 
z"/>
</svg>